<svg xmlns="http://www.w3.org/2000/svg" viewBox="0 0 191.08 71.29"><title>Asset 8</title><path d="M32,44.12c-.83.05-1.44.08-1.83.08a12.44,12.44,0,0,1-3.63-.5,6.85,6.85,0,0,1-3.16-1.77,15.1,15.1,0,0,1-8.13,2.27A15,15,0,0,1,4.54,39.91,14.13,14.13,0,0,1,0,29.3,14.62,14.62,0,0,1,4.43,18.54,14.7,14.7,0,0,1,15.2,14.15,15.28,15.28,0,0,1,26,18.37a13.85,13.85,0,0,1,4.64,10.55,14.64,14.64,0,0,1-2.39,8.36,4.32,4.32,0,0,0,3.78,1ZM21,23a7.7,7.7,0,0,0-5.76-2.33A7.17,7.17,0,0,0,10,22.76,9.25,9.25,0,0,0,7.42,28a12.68,12.68,0,0,1,2-.71,8.17,8.17,0,0,1,2.1-.27,11.41,11.41,0,0,1,6,1.84,19.2,19.2,0,0,1,4.71,4.25,8.33,8.33,0,0,0,1-4.25A8.07,8.07,0,0,0,21,23ZM16.94,35.18a10.35,10.35,0,0,0-1.75-1.47,7.66,7.66,0,0,0-7-.88c1.38,3.26,3.72,4.88,7,4.88A6.9,6.9,0,0,0,18.56,37C18,36.25,17.41,35.65,16.94,35.18Z" style="fill:#bd2626"/><path d="M57.19,32.16A18.89,18.89,0,0,1,56.7,37,9.28,9.28,0,0,1,54.31,41a10.81,10.81,0,0,1-8.09,3.13,13.79,13.79,0,0,1-4.5-.7,9.26,9.26,0,0,1-3.81-2.39A9.75,9.75,0,0,1,35.46,37a14.53,14.53,0,0,1-.38-2.23c0-.66-.07-1.51-.07-2.56V14.69h7.38V32.16a15.7,15.7,0,0,0,.11,2A6.08,6.08,0,0,0,43,35.9a3.18,3.18,0,0,0,3.13,1.78,3.11,3.11,0,0,0,3.13-1.74,6.36,6.36,0,0,0,.45-1.75c.05-.51.08-1.19.08-2V14.69h7.38Z" style="fill:#bd2626"/><path d="M81,43.61l-1.41-4.18h-10L68,43.61H60.07l11.6-28.92h5.82L89,43.61ZM77.7,13.3,68.05,9.08,70,4.5l9.46,5Zm-3,10.39h-.12l-3,9.89h6.06Z" style="fill:#bd2626"/><path d="M105.54,34.13v-10h10.13v10Z" style="fill:#bd2626"/><path d="M145.32,21.18V43.61h-7.39V21.18h-5.7V14.69H151v6.49Z" style="fill:#bd2626"/><path d="M163.67,12.15,161.88,9.9l-1.8,2.25h-6.33l6.08-6.48h4.24l5.86,6.48Zm-9.73,31.46V14.69H170v6.49h-9v4.5h8.72v6.48H161v5h9v6.49ZM169,8.87,167.16,5l9.37-5,2.08,4.62Z" style="fill:#bd2626"/><path d="M185.42,21.18V43.61H178V21.18h-5.7V14.69h18.75v6.49Z" style="fill:#bd2626"/><path d="M13,66.34a6.28,6.28,0,0,1-2.3,3.58,6.43,6.43,0,0,1-4,1.35,6.44,6.44,0,0,1-4.67-1.88,6.53,6.53,0,0,1,0-9.27,6.45,6.45,0,0,1,4.66-1.87,6.23,6.23,0,0,1,5.52,3,5.22,5.22,0,0,1,.85,2H9.59a3,3,0,0,0-3-2.18,3.12,3.12,0,0,0-2.44,1.1,3.79,3.79,0,0,0-.92,2.56,3.87,3.87,0,0,0,.92,2.59,3.1,3.1,0,0,0,2.46,1.14,3.16,3.16,0,0,0,3-2.12Z" style="fill:#bd2626"/><path d="M25.36,69.41a6.5,6.5,0,0,1-4.7,1.86A6.49,6.49,0,0,1,16,69.45a6,6,0,0,1-2-4.53,7.41,7.41,0,0,1,.48-2.68,5.81,5.81,0,0,1,.82-1.41,6.3,6.3,0,0,1,5.31-2.58,6.48,6.48,0,0,1,4.68,1.87,6.53,6.53,0,0,1,0,9.29Zm-2.19-7.22a3.34,3.34,0,0,0-5,0,3.7,3.7,0,0,0-.94,2.57,3.8,3.8,0,0,0,.95,2.61,3.18,3.18,0,0,0,2.51,1.12,3.11,3.11,0,0,0,2.44-1.13,3.75,3.75,0,0,0,.93-2.55A3.83,3.83,0,0,0,23.17,62.19Z" style="fill:#bd2626"/><path d="M39.32,71l.1-9.39,0,0L36.71,71H34.59l-2.68-9.42,0,0L32,71H29V58.49h4.12l2.49,8.26h0l2.46-8.26h4.13V71Z" style="fill:#bd2626"/><path d="M52.62,70a4.13,4.13,0,0,1-1.93,1,6.82,6.82,0,0,1-1,.12H44.53V58.49H48.4c.49,0,.85,0,1.11,0a6.2,6.2,0,0,1,1.06.14,3.45,3.45,0,0,1,1.84,1.06,3,3,0,0,1,.75,2.07,2.72,2.72,0,0,1-1.46,2.53,2.81,2.81,0,0,1,2.07,2.91A3.37,3.37,0,0,1,52.62,70Zm-2.9-8.47a1.73,1.73,0,0,0-.88-.18H47.61v2h1.21c.85,0,1.28-.33,1.28-1A.83.83,0,0,0,49.72,61.48Zm.52,4.65a2.25,2.25,0,0,0-1-.19h-1.6v2.28h1.58A1.87,1.87,0,0,0,50.25,68a1.06,1.06,0,0,0,.45-1A1,1,0,0,0,50.24,66.13Z" style="fill:#bd2626"/><path d="M66.25,69.41a6.83,6.83,0,0,1-9.33,0,6,6,0,0,1-2-4.53,7.42,7.42,0,0,1,.49-2.68,5.81,5.81,0,0,1,.82-1.41,6.3,6.3,0,0,1,5.31-2.58,6.48,6.48,0,0,1,4.68,1.87,6.53,6.53,0,0,1,0,9.29Zm-2.19-7.22a3.34,3.34,0,0,0-5,0,3.7,3.7,0,0,0-.94,2.57,3.8,3.8,0,0,0,1,2.61,3.18,3.18,0,0,0,2.51,1.12,3.11,3.11,0,0,0,2.44-1.13A3.75,3.75,0,0,0,65,64.78,3.83,3.83,0,0,0,64.06,62.19Z" style="fill:#bd2626"/><path d="M88.5,71.26l-.79,0a5.62,5.62,0,0,1-1.57-.21,3.06,3.06,0,0,1-1.38-.77,6.57,6.57,0,0,1-3.52,1,6.48,6.48,0,0,1-4.66-1.86,6.11,6.11,0,0,1-2-4.6,6.54,6.54,0,0,1,6.59-6.58,6.64,6.64,0,0,1,4.69,1.83,6,6,0,0,1,2,4.58,6.37,6.37,0,0,1-1,3.63,1.91,1.91,0,0,0,1.64.42Zm-4.78-9.18a3.32,3.32,0,0,0-2.5-1,3.07,3.07,0,0,0-2.29.92,4,4,0,0,0-1.1,2.25,5.82,5.82,0,0,1,.86-.31,4,4,0,0,1,.92-.11,5,5,0,0,1,2.61.79,8.39,8.39,0,0,1,2,1.85,3.7,3.7,0,0,0,.43-1.85A3.5,3.5,0,0,0,83.72,62.08ZM82,67.38a4.35,4.35,0,0,0-.77-.64,3.35,3.35,0,0,0-1.92-.59,3.3,3.3,0,0,0-1.12.21,3.11,3.11,0,0,0,3,2.12,3,3,0,0,0,1.46-.33C82.39,67.84,82.16,67.58,82,67.38Z" style="fill:#bd2626"/><path d="M99.42,66.07a8.43,8.43,0,0,1-.21,2.08,4.2,4.2,0,0,1-1,1.77,4.72,4.72,0,0,1-3.51,1.35,6.13,6.13,0,0,1-2-.3,4,4,0,0,1-1.66-1A4.25,4.25,0,0,1,90,68.15a6.33,6.33,0,0,1-.16-1q0-.44,0-1.11V58.49H93v7.58a5.32,5.32,0,0,0,0,.85,2.6,2.6,0,0,0,.22.77,1.4,1.4,0,0,0,1.36.77A1.36,1.36,0,0,0,96,67.71a2.56,2.56,0,0,0,.19-.76,7.13,7.13,0,0,0,0-.88V58.49h3.2Z" style="fill:#bd2626"/><path d="M109.74,71l-.61-1.81h-4.35L104.12,71h-3.45l5-12.54h2.53l5,12.54Zm-1.42-13.15-4.19-1.83.86-2,4.11,2.16ZM107,62.39h0l-1.3,4.29h2.64Z" style="fill:#bd2626"/><path d="M124.45,61.3V71h-3.21V61.3h-2.47V58.49h8.13V61.3Z" style="fill:#bd2626"/><path d="M132.41,57.38l-.78-1-.78,1H128.1l2.64-2.81h1.84l2.54,2.81ZM128.19,71V58.49h7V61.3h-3.9v2H135v2.82h-3.78v2.15h3.9V71ZM134.72,56l-.8-1.66L138,52.11l.9,2Z" style="fill:#bd2626"/><path d="M141.84,61.3V71h-3.2V61.3h-2.47V58.49h8.13V61.3Z" style="fill:#bd2626"/><path d="M150.54,71V68.54l1-.68c.36-.25.69-.49,1-.72a13.38,13.38,0,0,0,1.82-1.65c.21-.23.4-.45.58-.68s.4-.54.56-.8a3.46,3.46,0,0,0,.59-1.72,1.06,1.06,0,0,0-1.19-1.22,1.19,1.19,0,0,0-1.13.64,3,3,0,0,0-.31,1.34h-3a8.09,8.09,0,0,1,.16-1.5,4.22,4.22,0,0,1,.58-1.38,4,4,0,0,1,1.68-1.45,5.12,5.12,0,0,1,2.19-.47,5,5,0,0,1,2.31.53A3.65,3.65,0,0,1,159,60.46a3.57,3.57,0,0,1,.32,1.44,5.07,5.07,0,0,1-.39,1.92,7.71,7.71,0,0,1-1,1.7,13.45,13.45,0,0,1-1.34,1.5c-.22.21-.46.44-.73.68s-.43.39-.72.64h4.25V71Z" style="fill:#bd2626"/><path d="M170.06,66.51a5.09,5.09,0,0,1-.61,2.55,4.14,4.14,0,0,1-1.94,1.75,4.74,4.74,0,0,1-2.07.46,5.13,5.13,0,0,1-1.92-.38,4.36,4.36,0,0,1-2.81-4.38V63a4.28,4.28,0,0,1,2.83-4.38,5.19,5.19,0,0,1,1.9-.38,4.91,4.91,0,0,1,1.92.41,4.34,4.34,0,0,1,2.7,4.35Zm-3.2-3.58a2.38,2.38,0,0,0-.3-1.3,1.32,1.32,0,0,0-1.17-.56,1.29,1.29,0,0,0-1.15.57,2.29,2.29,0,0,0-.33,1.29v3.66a2.3,2.3,0,0,0,.33,1.3,1.28,1.28,0,0,0,1.15.57,1.32,1.32,0,0,0,1.17-.56,2.44,2.44,0,0,0,.3-1.31Z" style="fill:#bd2626"/><path d="M171.49,71V68.54l1-.68q.54-.37,1-.72a13.27,13.27,0,0,0,1.81-1.65c.21-.23.4-.45.58-.68s.4-.54.56-.8a3.46,3.46,0,0,0,.59-1.72,1.06,1.06,0,0,0-1.18-1.22,1.21,1.21,0,0,0-1.14.64,2.92,2.92,0,0,0-.3,1.34h-3.06a7.23,7.23,0,0,1,.17-1.5,4,4,0,0,1,.58-1.38,3.84,3.84,0,0,1,1.68-1.45,5.08,5.08,0,0,1,2.18-.47,5,5,0,0,1,2.31.53,3.5,3.5,0,0,1,2,3.12,5.07,5.07,0,0,1-.39,1.92,7,7,0,0,1-1,1.7,13.45,13.45,0,0,1-1.34,1.5c-.22.21-.46.44-.73.68s-.43.39-.72.64h4.25V71Z" style="fill:#bd2626"/><path d="M191,66.51a5.09,5.09,0,0,1-.61,2.55,4.14,4.14,0,0,1-1.94,1.75,4.68,4.68,0,0,1-2.07.46,5.08,5.08,0,0,1-1.91-.38,4.35,4.35,0,0,1-2.82-4.38V63a4.28,4.28,0,0,1,2.83-4.38,5.19,5.19,0,0,1,1.9-.38,4.91,4.91,0,0,1,1.92.41A4.34,4.34,0,0,1,191,63Zm-3.2-3.58a2.38,2.38,0,0,0-.3-1.3,1.32,1.32,0,0,0-1.17-.56,1.3,1.3,0,0,0-1.15.57,2.29,2.29,0,0,0-.33,1.29v3.66a2.3,2.3,0,0,0,.33,1.3,1.28,1.28,0,0,0,1.15.57,1.32,1.32,0,0,0,1.17-.56,2.44,2.44,0,0,0,.3-1.31Z" style="fill:#bd2626"/><path d="M94.37,19.31q-.27.27-.54.57a3.59,3.59,0,0,1-.38-.21,9.22,9.22,0,0,1-1.31-.94,9.57,9.57,0,0,1-3.2-6.53h0c0-.15,0-.3,0-.45a9.63,9.63,0,0,1,.21-1.95,9.28,9.28,0,0,0,4.28,9l.51.32,0,0Z" style="fill:#a66428"/><path d="M93.42,18.8a9.28,9.28,0,0,1-4.28-9,9.63,9.63,0,0,0-.21,1.95c0,.15,0,.3,0,.45,0-.21,0-.42,0-.64a9.43,9.43,0,0,1,.88-4,10,10,0,0,0-.33,1.1,9.31,9.31,0,0,0-.25,2.19A9.59,9.59,0,0,0,93.42,18.8Z" style="fill:#a66428"/><path d="M108.12,11.56a9.8,9.8,0,0,1-.2,2l-.75,0h-1.48l-.21,0h-.25l-.23,0h0l-.22,0h0l-.19,0-.17,0-.11,0-.27,0-.16,0h0l-.17,0-.08,0-.15,0h0l-.14,0-.1,0-.23,0-.18,0h0l-.19.05-.07,0-.11,0-.13,0h0l-.16,0-.37.11-.12,0-.16.06-.12,0-.12,0,0,0-.16,0-.35.13-.15.06h0l-.13,0-.06,0-.14.06,0,0-.13.05-.06,0-.14.06-.34.16-.09,0-.12.06,0,0-.15.07,0,0-.12.06-.09.05a2.68,2.68,0,0,0-.33.18l-.11.06-.14.07-.11.07-.09.05-.55.34-.14.09-.14.1-.1.06-.09.07-.08.05-.54.39L96.2,17l-.13.1-.13.1-.14.12-.28.23-.19.16-.13.12-.09.08h0L95,18l0,0,0,.05h0l-.08.07h0l-.07.06-.13.13,0,0-.1.1a.94.94,0,0,1-.1.1l-.3.32L94,19.1l0,0-.51-.32a9.59,9.59,0,0,1-4.2-8,9.31,9.31,0,0,1,.25-2.19,10,10,0,0,1,.33-1.1,9.6,9.6,0,0,1,18.32,4Z" style="fill:#b36a29"/><path d="M140.91,26.07a14,14,0,0,1-.69,4.33,11.43,11.43,0,0,1-10.38,7.35,10.64,10.64,0,0,1-6.79-2.47,16.53,16.53,0,0,0,.55-2.75,16.2,16.2,0,0,0,.11-2,17.09,17.09,0,0,0-2.41-8.77,17.27,17.27,0,0,0-1.59-2.22,11.24,11.24,0,0,1,9.78-6.11C135.8,13.45,140.91,19.1,140.91,26.07Z" style="fill:#a66428"/><path d="M106.77,21.75a9.87,9.87,0,0,0-2.61.56,9.53,9.53,0,0,0-1.64-1.94A41.05,41.05,0,0,1,106.77,21.75Z" style="fill:#a66428"/><path d="M123,35.62c-.08.27-.17.53-.27.79a17.09,17.09,0,0,1-10.44,9.19,17.19,17.19,0,0,0,9.3-12.33A27,27,0,0,1,123,35.62Z" style="fill:#a96628"/><path d="M123.71,30.55a16.2,16.2,0,0,1-.11,2c0,.13,0,.25,0,.37l-.21-.35-.09-.15c-.12-.18-.23-.36-.35-.53l-.11-.17-.11-.16c-.11-.17-.23-.33-.34-.49s-.16-.21-.23-.32h0l-.11-.15-.12-.16-.12-.15-.12-.16-.12-.15-.12-.15-.1-.12-.4-.49-.12-.13-.12-.15a.86.86,0,0,1-.13-.14l-.13-.14-.11-.12a1.07,1.07,0,0,0-.14-.16l-.13-.14-.14-.15-.12-.12-.13-.14c-.4-.42-.82-.81-1.24-1.2l-.09-.09-.14-.12-.14-.12-.27-.24-.14-.12-.14-.12-.14-.11q-.22-.2-.45-.36a.52.52,0,0,0-.11-.1l-.27-.2,0,0-.13-.09-.43-.33-.21-.15h0l-.2-.14-.14-.11c0-.1.07-.21.11-.32.94-2.82,1.14-5.95.34-7.7a21,21,0,0,1,3.93,3.42,17.27,17.27,0,0,1,1.59,2.22A17.09,17.09,0,0,1,123.71,30.55Z" style="fill:#bc2426"/><path d="M113,14.71a8.71,8.71,0,0,0-5.13,1.89,19.72,19.72,0,0,0-3,2.69l-.25-.07-.25-.08-.25-.07-.25-.06-.17-.05-.33-.08-.16-.05-1-.23-.38-.08-.17,0-.27-.06-.13,0-.16,0-.16,0-.31-.06-.3-.06-.31-.05-.15,0-.15,0-.29-.05-.15,0-.15,0L99,18l-.21,0-.29,0-.28,0-.28,0-.14,0-.28,0H97.4l-.27,0-.13,0-.23,0h-.11l-.25,0h-.17l-.13,0H96l-.24,0-.23,0,.28-.23.14-.12.13-.1.24-.19.12-.09,0,0,.12-.09.35-.24.09-.07.24-.16.1-.06.25-.16.12-.08.31-.18.09,0,.18-.1.09-.05.59-.32.14-.06.8-.37.11-.05.56-.22.35-.13.33-.11.11,0h0l.14,0h0l.12,0,.89-.25.13,0h0l.16,0,.68-.13h.16l.12,0h.08l.16,0,.18,0,.12,0,.14,0,.24,0,.18,0H105l.21,0h2.51l.18,0c.34,0,.67.05,1,.1A16.68,16.68,0,0,1,113,14.71Z" style="fill:#bd2626"/><path d="M116.16,20.67a18.05,18.05,0,0,1-.53,2.57l-.09.3a.88.88,0,0,0-.05.15l0,.15c0,.11-.07.22-.11.32l0,0-.12-.08-.36-.24-.13-.09-.16-.1-.15-.1-.33-.21-.15-.09h0l-.46-.28,0,0-.14-.09-.33-.18-.16-.1-.32-.18-.33-.17-.18-.1-.15-.08-.25-.13-.17-.08-.18-.09-.31-.15-.23-.12-.5-.23-.24-.11-.25-.11h0l-.24-.1-.28-.12-.21-.09c-.47-.19-.93-.38-1.4-.55l-.16-.06L107.2,20l-.36-.12-.29-.1-.21-.07-.12,0-.64-.21-.15,0-.49-.15a19.72,19.72,0,0,1,3-2.69v.07a5.1,5.1,0,0,0,8.26,4Z" style="fill:#fdb714"/><path d="M138.59,26a10.78,10.78,0,0,1-.55,3.44,9.05,9.05,0,0,1-8.24,5.84,8.56,8.56,0,0,1-6.2-2.72,16.2,16.2,0,0,0,.11-2,17.09,17.09,0,0,0-2.41-8.77A9,9,0,0,1,129.53,16C134.53,16,138.59,20.44,138.59,26Z" style="fill:#f1d2b6"/><path d="M115.42,15.13a1,1,0,0,1-.23.64,11.54,11.54,0,0,0-1.79-.91,1,1,0,0,1,2,.27Z" style="fill:#bc2426"/><path d="M121.54,33.27a17.19,17.19,0,0,1-9.3,12.33,17.08,17.08,0,0,1-2.7.61,17.19,17.19,0,0,0,9.39-15.32q0-.53,0-1l.28.32.12.13c.11.12.22.25.32.38l.14.16.13.15a1,1,0,0,0,.08.11,1.83,1.83,0,0,1,.13.16l.17.21h0l.16.21.16.22.15.2.18.24a1.77,1.77,0,0,0,.16.22c.1.15.21.3.31.46Z" style="fill:#c8813e"/><path d="M123.55,32.9c0,.1,0,.2,0,.3a.77.77,0,0,0,0,.15l0,.14v0l0,.14a.43.43,0,0,1,0,.11.78.78,0,0,1,0,.14.64.64,0,0,0,0,.07v0l0,.1-.06.3a.36.36,0,0,0,0,.1l0,.11c0,.06,0,.11,0,.17l0,.09s0,.07,0,.11a.65.65,0,0,0,0,.13c0,.06,0,.12,0,.17s-.06.23-.1.34l-.1-.19-.11-.19-.09-.16-.12-.22-.09-.15-.09-.15a1.09,1.09,0,0,0-.08-.15l-.09-.14-.09-.15L122,34l-.09-.14-.09-.15-.09-.14-.09-.14a.71.71,0,0,0-.1-.14l-.15-.23c-.1-.16-.21-.31-.31-.46a1.77,1.77,0,0,1-.16-.22l-.18-.24-.15-.2-.16-.22-.16-.21h0l-.17-.21a1.83,1.83,0,0,0-.13-.16l-.08-.1-.13-.16-.14-.16c-.1-.13-.21-.26-.32-.38l-.12-.13-.28-.32-.18-.2h0l-.18-.19-.15-.16,0,0-.18-.18a27.83,27.83,0,0,0-2-1.9,33.32,33.32,0,0,0-9.37-5.46,41.05,41.05,0,0,0-4.25-1.38l-.27-.07-.44-.11-.32-.08-.3-.07-.41-.1-.24-.05-.21,0-.6-.13-.52-.1-.13,0-.25,0-.52-.09-.23,0-.24,0-.41-.06-.31,0-.2,0h-.06l-.2,0-.3,0-.3,0-.55-.06-.32,0H95l-.16,0h-.16L94.09,19l.3-.32a.94.94,0,0,0,.1-.1l.1-.1,0,0,.13-.13.07-.06h0l.08-.07h0l0-.05,0,0,.1-.09h0l.09-.08.13-.12.19-.16.23,0,.24,0h.12l.13,0h.17l.25,0h.11l.23,0,.13,0,.27,0h.12l.28,0,.14,0,.28,0,.28,0,.29,0L99,18l.22,0,.15,0,.15,0,.29.05.15,0,.15,0,.31.05.3.06.31.06.16,0,.16,0,.13,0,.27.06.17,0,.38.08,1,.23.16.05.33.08.17.05.25.06.25.07.25.08.25.07.49.15.15,0,.64.21.12,0,.21.07.29.1.36.12.16.06.16.06c.47.17.93.36,1.4.55l.21.09.28.12.24.1h0l.25.11.24.11.5.23.23.12.31.15.18.09.17.08.25.13.15.08.18.1.33.17.32.18.16.1.33.18.14.09,0,0,.46.28h0l.15.09.33.21.15.1.16.1.13.09.36.24.12.08,0,0,.14.11.2.14h0l.21.15.43.33.13.09,0,0,.27.2a.52.52,0,0,1,.11.1q.22.16.45.36l.14.11.14.12.14.12.27.24.14.12.14.12.09.09.16.15.15.14a2.39,2.39,0,0,1,.23.22h0c0,.05.11.1.16.16l.16.16h0a1.37,1.37,0,0,0,.17.17l.17.18.13.14.12.12.14.15.13.14a1.07,1.07,0,0,1,.14.16l.11.12.13.14a.86.86,0,0,0,.13.14l.12.15.12.13.4.49.1.12.12.15.12.15.12.16.12.15.12.16.11.15h0c.07.11.15.21.23.32l.34.49.11.16.11.17c.12.17.23.35.35.53l.09.15Z" style="fill:#fdb714"/><path d="M118.93,30.89a17.19,17.19,0,0,1-9.39,15.32h0a33.57,33.57,0,0,1-8.75.21c-.56-.07-1.09-.16-1.61-.25a20.41,20.41,0,0,1-2.08-.51c.77,0,1.52-.14,2.26-.26.47-.08.93-.17,1.39-.27l.17,0,.13,0a23.5,23.5,0,0,0,17-14.72c.12-.34.24-.68.34-1l.15.16.18.19h0l.18.2Q118.93,30.37,118.93,30.89Z" style="fill:#ebc39f"/><path d="M94.71,19c-.11.09-.23.2-.34.31L94,19.1l.14-.15Z" style="fill:#b36a29"/><path d="M118.39,29.32c-.1.35-.22.69-.34,1A23.52,23.52,0,0,1,100.92,45.1h-.28l.11,0a25.46,25.46,0,0,1-3.65.53C87.16,42.69,85,33.6,84.47,29.77a.77.77,0,0,1,0-.15A2.05,2.05,0,0,0,86.13,28l.45-.08a5.36,5.36,0,0,0,2.2-1c1.34-1.1,3.13-4.76,5-7q.27-.3.54-.57c.11-.11.23-.22.34-.31h.16L95,19h.16l.32,0,.55.06.3,0,.3,0,.2,0h.06l.2,0,.31,0,.41.06.24,0,.23,0,.52.09.25,0,.13,0,.52.1.6.13.21,0,.24.05.41.1.3.07.32.08.44.11.27.07a9.53,9.53,0,0,1,1.64,1.94,9.87,9.87,0,0,1,2.61-.56,33.32,33.32,0,0,1,9.37,5.46,27.83,27.83,0,0,1,2,1.9l.18.18Z" style="fill:#f1d2b6"/><path d="M86.59,27.72c0,.06,0,.12,0,.18a2.06,2.06,0,0,1-2,1.87h-.06a1.86,1.86,0,0,1-.74-.16,1.58,1.58,0,0,0,.38,0,1.87,1.87,0,0,0,.34,0A2.05,2.05,0,0,0,86.13,28a1.67,1.67,0,0,0,0-.39,2.06,2.06,0,0,0-1.26-1.9A2.07,2.07,0,0,1,86.59,27.72Z" style="fill:#a66428"/><path d="M86.17,27.59a1.67,1.67,0,0,1,0,.39,2.05,2.05,0,0,1-1.68,1.64,1.87,1.87,0,0,1-.34,0,1.58,1.58,0,0,1-.38,0,2.06,2.06,0,0,1,.8-3.95,2.43,2.43,0,0,1,.38,0A2.06,2.06,0,0,1,86.17,27.59Z" style="fill:#b36a29"/><path d="M116.16,20.67a5.1,5.1,0,0,1-8.26-4V16.6A8.71,8.71,0,0,1,113,14.71l.37.15a11.54,11.54,0,0,1,1.79.91c.18.11.37.23.57.37A8.83,8.83,0,0,1,116.16,20.67Z" style="fill:#f7bd3f"/><ellipse cx="96.39" cy="20.64" rx="1.87" ry="1.4" transform="translate(-1.78 11.72) rotate(-6.9)" style="fill:#f2e0cf"/><path d="M114.72,35.55a1.59,1.59,0,0,1-1.79,1.06,1.49,1.49,0,0,0,1.49-1.06c.15-.76-.56-1.53-1.57-1.73l-.31,0a2.46,2.46,0,0,1,.6,0C114.16,34,114.86,34.79,114.72,35.55Z" style="fill:#f283b0"/><path d="M114.42,35.55a1.49,1.49,0,0,1-1.49,1.06,1.76,1.76,0,0,1-.31,0c-1-.19-1.72-1-1.57-1.72a1.51,1.51,0,0,1,1.49-1.07l.31,0C113.86,34,114.57,34.79,114.42,35.55Z" style="fill:#f49ab8"/><path d="M96.41,29A.71.71,0,0,1,96.1,29a.61.61,0,0,1-.21-.83,5,5,0,0,0,.36-.84,2.9,2.9,0,0,0,.12-1.54,1.46,1.46,0,0,0-.75-.91,1.16,1.16,0,0,0-1-.13c-1.11.35-2,2.09-2,2.11a.61.61,0,0,1-1.1-.52,7.75,7.75,0,0,1,.71-1.15,4.2,4.2,0,0,1,2-1.6,2.45,2.45,0,0,1,2,.24,2.64,2.64,0,0,1,1.32,1.65,5,5,0,0,1-.61,3.3A.6.6,0,0,1,96.41,29Z" style="fill:#262262"/><path d="M108.18,33.05a.68.68,0,0,1-.31-.08.61.61,0,0,1-.21-.83,4.56,4.56,0,0,0,.35-.84,2.8,2.8,0,0,0,.13-1.54,1.46,1.46,0,0,0-.75-.91,1.16,1.16,0,0,0-1-.13,4.38,4.38,0,0,0-2,2.11.61.61,0,1,1-1.1-.52,7.75,7.75,0,0,1,.71-1.15,4.11,4.11,0,0,1,2-1.59,2.41,2.41,0,0,1,2,.23,2.64,2.64,0,0,1,1.32,1.65,5,5,0,0,1-.61,3.3A.6.6,0,0,1,108.18,33.05Z" style="fill:#262262"/><path d="M105.67,38.1a4.43,4.43,0,0,1-.14.44,11,11,0,0,0-5,1c-.07,0-.13-.12-.2-.18a1.79,1.79,0,0,1-.54-1.53c.08-.52.41-1,1.43-.61,2,.72,3,0,3.27-.29S106.06,36.4,105.67,38.1Z" style="fill:#991b3d"/><path d="M105.53,38.54a4.63,4.63,0,0,1-.28.54A2.8,2.8,0,0,1,101,40a4.94,4.94,0,0,1-.54-.42A11,11,0,0,1,105.53,38.54Z" style="fill:#cc1f47"/></svg>