<svg xmlns="http://www.w3.org/2000/svg" viewBox="0 0 141.94 50.64"><title>title</title><path d="M23.79,32.78c-.61,0-1.07,0-1.36,0a9.3,9.3,0,0,1-2.69-.37,5.12,5.12,0,0,1-2.35-1.31,11.24,11.24,0,0,1-6,1.68,11.08,11.08,0,0,1-8-3.19A10.48,10.48,0,0,1,0,21.77a10.88,10.88,0,0,1,3.29-8,10.92,10.92,0,0,1,8-3.26,11.33,11.33,0,0,1,8,3.14,10.26,10.26,0,0,1,3.45,7.83A10.89,10.89,0,0,1,21,27.69a3.18,3.18,0,0,0,2.8.72ZM15.6,17.06a5.73,5.73,0,0,0-4.28-1.73A5.31,5.31,0,0,0,7.4,16.91a6.86,6.86,0,0,0-1.89,3.85A8.67,8.67,0,0,1,7,20.24,5.75,5.75,0,0,1,8.56,20,8.51,8.51,0,0,1,13,21.4a14.27,14.27,0,0,1,3.5,3.16,6.21,6.21,0,0,0,.73-3.16A6,6,0,0,0,15.6,17.06Zm-3,9.07A7.83,7.83,0,0,0,11.28,25a5.67,5.67,0,0,0-5.22-.65A5.33,5.33,0,0,0,11.29,28a5.16,5.16,0,0,0,2.5-.55C13.33,26.92,12.93,26.48,12.58,26.13Z" style="fill:#fff"/><path d="M42.48,23.89a13.82,13.82,0,0,1-.37,3.56,7,7,0,0,1-1.77,3,8,8,0,0,1-6,2.32A10.26,10.26,0,0,1,31,32.28a6.91,6.91,0,0,1-2.83-1.77,7.42,7.42,0,0,1-1.82-3.06,10.61,10.61,0,0,1-.28-1.66c0-.49-.06-1.12-.06-1.9v-13h5.49v13a10.33,10.33,0,0,0,.08,1.46A4.49,4.49,0,0,0,32,26.67,2.37,2.37,0,0,0,34.28,28,2.3,2.3,0,0,0,36.6,26.7a4.38,4.38,0,0,0,.34-1.31,14.81,14.81,0,0,0,.06-1.5v-13h5.48Z" style="fill:#fff"/><path d="M60.15,32.39l-1-3.1H51.65l-1.13,3.1h-5.9l8.62-21.48h4.32L66.1,32.39ZM57.72,9.88,50.55,6.75,52,3.34l7,3.72ZM55.45,17.6h-.09l-2.21,7.34h4.51Z" style="fill:#fff"/><path d="M78.4,25.35V18h7.52v7.4Z" style="fill:#fff"/><path d="M107.94,15.73V32.39h-5.48V15.73H98.22V10.91h13.93v4.82Z" style="fill:#fff"/><path d="M121.57,9l-1.33-1.68L118.91,9h-4.7l4.52-4.82h3.14L126.22,9Zm-7.22,23.36V10.91h11.93v4.82H119.6v3.34h6.48v4.82H119.6v3.69h6.68v4.81Zm11.18-25.8-1.36-2.85,7-3.74,1.55,3.43Z" style="fill:#fff"/><path d="M137.73,15.73V32.39h-5.49V15.73H128V10.91h13.93v4.82Z" style="fill:#fff"/><path d="M96.93,8.88a9.36,9.36,0,0,0-7.44,3.87,18.21,18.21,0,0,0-1.9-1.53,1.88,1.88,0,0,0-1.88-1.86,1.9,1.9,0,0,0-.67.13l-1-.65.37.8a13.86,13.86,0,0,0-2.28-.58c0-.15,0-.31,0-.47a8.31,8.31,0,0,0-4.66-7.43,8.25,8.25,0,0,0-11.08,4A9,9,0,0,0,66,6.24a8.45,8.45,0,0,0-.34,2.35c0,.18,0,.36,0,.55a8.19,8.19,0,0,0,2.76,5.62c.11.1.23.19.35.28-.44.61-.85,1.25-1.23,1.85A13,13,0,0,1,66,19.08a1.33,1.33,0,0,1-.19.14A2.59,2.59,0,0,0,64,18a2.65,2.65,0,0,0-1.53,5c.58,3.35,2.65,9.75,10.06,12,.54.16,1.09.3,1.66.41.4.07.83.14,1.26.19a20.78,20.78,0,0,0,2.66.16,30.15,30.15,0,0,0,4.13-.31,14.76,14.76,0,0,0,2.19-.49,13.82,13.82,0,0,0,8.23-7,8.84,8.84,0,0,0,4.51,1.23A9.61,9.61,0,0,0,105.92,23l0-.08a11.24,11.24,0,0,0,.57-3.56C106.52,13.58,102.22,8.88,96.93,8.88Z" style="fill:#fff"/><path d="M71.1,14.34a5.49,5.49,0,0,0-.4.43l-.28-.16a6.22,6.22,0,0,1-1-.7,7.1,7.1,0,0,1-2.37-4.85h0c0-.11,0-.22,0-.33a6.93,6.93,0,0,1,.15-1.45,8.3,8.3,0,0,0,0,.87A6.8,6.8,0,0,0,70.4,14a3.87,3.87,0,0,0,.37.24h0Z" style="fill:#a66428"/><path d="M70.4,14a6.8,6.8,0,0,1-3.24-5.81,8.3,8.3,0,0,1,0-.87,6.93,6.93,0,0,0-.15,1.45c0,.11,0,.22,0,.33,0-.15,0-.31,0-.47a7.24,7.24,0,0,1,.3-2,6.12,6.12,0,0,1,.35-.93,5.41,5.41,0,0,0-.24.81,6.74,6.74,0,0,0-.19,1.63A7.1,7.1,0,0,0,70.4,14Z" style="fill:#a66428"/><path d="M81.31,8.59A7.67,7.67,0,0,1,81.17,10l-.57,0H79.33l-.17,0H79l-.17,0h-.14l-.13,0h-.08l-.2,0-.12,0h0l-.13,0h-.06l-.11,0h0l-.1,0-.08,0-.17,0-.13,0h0l-.14,0h0l-.09,0-.09,0h0l-.13,0-.27.08-.09,0-.12,0-.08,0-.09,0h0l-.11,0-.26.1-.11,0h0l-.09,0h0l-.1,0,0,0-.1,0h0l-.11.05-.25.11-.07,0-.09,0h0l-.11.06,0,0-.08,0-.07,0-.25.13-.08,0-.1.05-.09.05-.06,0-.41.25-.1.07-.11.07-.07,0a.18.18,0,0,0-.07.05l-.06,0-.4.29-.09.06-.09.08-.09.07-.11.09-.21.17-.14.12-.1.09-.06.06h0l-.08.07,0,0,0,0h0l-.06,0h0l-.05,0-.1.1,0,0-.07.07-.08.08-.22.23-.1.12h0A3.87,3.87,0,0,1,70.4,14a7.1,7.1,0,0,1-3.13-5.9,6.74,6.74,0,0,1,.19-1.63,5.41,5.41,0,0,1,.24-.81,7.13,7.13,0,0,1,6.48-4.16,7,7,0,0,1,3.1.71A7.11,7.11,0,0,1,81.31,8.59Z" style="fill:#b36a29"/><path d="M105.67,19.36a10.3,10.3,0,0,1-.52,3.22A8.46,8.46,0,0,1,97.45,28a8,8,0,0,1-5-1.83,12.49,12.49,0,0,0,.41-2,12.12,12.12,0,0,0,.09-1.48,12.63,12.63,0,0,0-3-8.16A8.35,8.35,0,0,1,97.19,10C101.87,10,105.67,14.19,105.67,19.36Z" style="fill:#a66428"/><path d="M80.31,16.16a7.28,7.28,0,0,0-1.94.41,7,7,0,0,0-1.22-1.44A28.29,28.29,0,0,1,80.31,16.16Z" style="fill:#a66428"/><path d="M92.33,26.46c-.06.2-.13.39-.2.59a12.72,12.72,0,0,1-7.75,6.82,12.77,12.77,0,0,0,6.9-9.16C91.65,25.26,92,25.85,92.33,26.46Z" style="fill:#a96628"/><path d="M92.9,22.69a12.12,12.12,0,0,1-.09,1.48l0,.27-.16-.26-.07-.11-.26-.4-.08-.12a.57.57,0,0,1-.08-.13l-.26-.36c-.05-.08-.11-.15-.17-.23h0a.44.44,0,0,0-.08-.11l-.09-.12a.83.83,0,0,1-.08-.12l-.09-.11-.09-.11-.09-.12a.27.27,0,0,1-.07-.08l-.3-.37-.09-.1-.09-.1-.1-.11-.09-.11-.08-.09-.11-.11-.09-.1L90,20.84,90,20.75a.94.94,0,0,0-.1-.1c-.29-.31-.6-.61-.91-.89l-.08-.07-.1-.09-.1-.09-.2-.18-.11-.08-.1-.09-.1-.09-.34-.27-.08-.06-.2-.16,0,0-.09-.07-.32-.24-.16-.11h0L86.77,18l-.1-.07a2.25,2.25,0,0,1,.08-.24c.7-2.1.85-4.42.25-5.72a15.1,15.1,0,0,1,2.92,2.54,12.63,12.63,0,0,1,3,8.16Z" style="fill:#bc2426"/><path d="M85,10.92a6.51,6.51,0,0,0-3.81,1.41,15.19,15.19,0,0,0-2.2,2l-.19-.06-.18,0-.19-.05-.19-.05-.12,0L77.84,14l-.13,0L77,13.82l-.28-.07-.13,0-.2-.05-.1,0-.12,0-.11,0-.24,0-.22,0-.23,0-.11,0-.11,0-.22,0h-.11l-.11,0-.16,0-.16,0-.21,0-.21,0-.21,0h-.1l-.21,0h-.09l-.2,0h-.1l-.17,0H72.8l-.19,0h-.49l-.17,0,.21-.17.11-.09.09-.07.18-.14.09-.07h0l.09-.07.26-.18.06-.05.19-.12.07-.05.19-.12.08-.05.23-.14.07,0,.13-.07.07,0,.44-.23.1-.05c.2-.1.39-.19.59-.27l.09,0,.42-.16.26-.1.24-.08.08,0h0l.11,0h0l.09,0q.33-.11.66-.18l.1,0h0l.12,0,.5-.11h.27l.11,0,.14,0h.2l.17,0,.14,0h.19l.17,0h1.84c.24,0,.49,0,.73.08A12.53,12.53,0,0,1,85,10.92Z" style="fill:#bd2626"/><path d="M87.28,15.36a12.22,12.22,0,0,1-.39,1.91c0,.07,0,.14-.07.22l0,.1a.56.56,0,0,0,0,.12,2.25,2.25,0,0,0-.08.24l0,0-.09-.06-.26-.18-.1-.06-.11-.08L86,17.48l-.24-.16-.11-.07h0L85.26,17l0,0L85.12,17l-.24-.14-.12-.07-.24-.13-.24-.13-.14-.08L84,16.36l-.19-.1-.12-.06-.13-.07L83.36,16l-.18-.09-.37-.17-.18-.08-.18-.08h0l-.18-.08-.2-.09-.16-.06c-.35-.15-.7-.28-1-.41l-.12,0-.12-.05-.27-.09-.22-.07L80,14.65l-.09,0-.48-.16-.11,0L79,14.33a15.19,15.19,0,0,1,2.2-2v.05a3.79,3.79,0,0,0,3.79,3.79A3.75,3.75,0,0,0,87.28,15.36Z" style="fill:#fdb714"/><path d="M103.94,19.29a8.27,8.27,0,0,1-.4,2.56,6.74,6.74,0,0,1-6.12,4.33,6.4,6.4,0,0,1-4.61-2,12.12,12.12,0,0,0,.09-1.48,12.65,12.65,0,0,0-1.8-6.51,6.73,6.73,0,0,1,6.11-4.33C100.93,11.85,103.94,15.18,103.94,19.29Z" style="fill:#f1d2b6"/><path d="M86.73,11.24a.81.81,0,0,1-.16.48A7.91,7.91,0,0,0,85.24,11a.74.74,0,0,1,.73-.56A.76.76,0,0,1,86.73,11.24Z" style="fill:#bc2426"/><path d="M91.28,24.71a12.77,12.77,0,0,1-6.9,9.16,11.26,11.26,0,0,1-2,.45,12.75,12.75,0,0,0,7-11.38c0-.25,0-.5,0-.76l.21.24.08.1c.09.09.17.19.25.28a1.47,1.47,0,0,1,.1.13l.09.11.07.08.09.11.12.16h0l.12.16.12.16.11.15.13.18.12.16.23.34A1.63,1.63,0,0,1,91.28,24.71Z" style="fill:#c8813e"/><path d="M92.78,24.44a1.7,1.7,0,0,1,0,.22s0,.08,0,.11l0,.11h0a.43.43,0,0,0,0,.11l0,.08a.44.44,0,0,1,0,.1v.08s0,0,0,.07a1.42,1.42,0,0,1-.05.22l0,.08,0,.08,0,.12s0,.05,0,.07a.31.31,0,0,0,0,.08l0,.1,0,.13-.07.25c0-.05,0-.1-.08-.14l-.08-.15-.06-.11-.1-.17L92,25.78l-.06-.11a.41.41,0,0,1-.07-.11l-.06-.11a.61.61,0,0,1-.07-.1.41.41,0,0,0-.07-.11l-.06-.1L91.49,25l-.07-.11a.61.61,0,0,0-.07-.1l-.07-.11a1.63,1.63,0,0,0-.11-.17l-.23-.34L90.82,24l-.13-.18-.11-.15-.12-.16-.12-.16h0l-.12-.16-.09-.11L90.05,23,90,22.93a1.47,1.47,0,0,0-.1-.13c-.08-.09-.16-.19-.25-.28l-.08-.1-.21-.24a.86.86,0,0,1-.13-.14h0l-.14-.14-.11-.12,0,0-.13-.14c-.49-.5-1-1-1.52-1.41a24.69,24.69,0,0,0-7-4.05,28.29,28.29,0,0,0-3.16-1l-.2-.05L76.62,15l-.24-.05-.22-.06-.3-.07-.18,0-.15,0-.45-.09-.38-.08h-.11l-.18,0L74,14.45l-.18,0-.18,0-.3-.05-.23,0-.15,0h0l-.15,0-.22,0-.22,0L72,14.17l-.25,0h-.35l-.46,0,.22-.23.08-.08.07-.07,0,0,.1-.1.05,0h0l.06,0h0l0,0,0,0,.08-.07h0l.06-.06.1-.09.14-.12.17,0h.49l.19,0h.08l.17,0h.1l.2,0h.09l.21,0h.1l.21,0,.21,0,.21,0,.16,0,.16,0,.11,0h.11l.22,0,.11,0,.11,0,.23,0,.22,0,.24,0,.11,0,.12,0,.1,0,.2.05.13,0,.28.07.72.17.13,0,.24.07.12,0,.19.05.19.05.18,0,.19.06.36.11.11,0,.48.16.09,0,.15.06.22.07.27.09.12.05.12,0c.34.13.69.26,1,.41l.16.06.2.09.18.08h0l.18.08.18.08.37.17.18.09.23.11.13.07.12.06.19.1.11.05.14.08.24.13.24.13.12.07.24.14.11.06,0,0,.34.21h0l.11.07.24.16.12.07.11.08.1.06.26.18.09.06,0,0,.1.07.15.11h0l.16.11.32.24.09.07,0,0,.2.16.08.06.34.27.1.09.1.09.11.08.2.18.1.09.1.09.08.07.11.11.11.1.18.16v0l.12.11.12.12h0l.13.13.12.13a.94.94,0,0,1,.1.1l.09.09.11.12.09.1.11.11.08.1.09.1.1.11.09.1.09.11c.1.11.2.24.3.36a.27.27,0,0,0,.07.08l.09.12.09.11.09.12.08.11.09.12.08.11h0l.17.23.26.36a.57.57,0,0,0,.08.13l.08.12.26.4.07.11Z" style="fill:#fdb714"/><path d="M89.34,22.94a12.75,12.75,0,0,1-7,11.38h0a24.93,24.93,0,0,1-6.5.16c-.42,0-.81-.11-1.2-.19-.54-.1-1-.23-1.54-.37.57,0,1.13-.11,1.68-.2.34,0,.69-.12,1-.19l.13,0,.09,0A17.46,17.46,0,0,0,88.69,22.55c.09-.26.17-.51.25-.77l.11.12.14.14h0a.86.86,0,0,0,.13.14C89.33,22.44,89.34,22.69,89.34,22.94Z" style="fill:#ebc39f"/><path d="M71.35,14.11l-.25.23-.31-.15.1-.12Z" style="fill:#b36a29"/><path d="M88.94,21.78c-.08.26-.16.51-.25.77A17.47,17.47,0,0,1,76,33.5h-.21l.08,0a20.1,20.1,0,0,1-2.71.39c-7.39-2.21-9-9-9.39-11.8,0,0,0-.08,0-.12A1.52,1.52,0,0,0,65,20.79l.33-.07A3.86,3.86,0,0,0,66.94,20c1-.82,2.33-3.54,3.76-5.18a5.49,5.49,0,0,1,.4-.43l.25-.23h.35l.25,0,.41.05.22,0,.22,0,.15,0h0l.15,0,.23,0,.3.05.18,0,.18,0,.38.07.18,0h.11l.38.08.45.09.15,0,.18,0,.3.07.22.06.24.05.33.09.2.05a7,7,0,0,1,1.22,1.44,7.28,7.28,0,0,1,1.94-.41,24.69,24.69,0,0,1,7,4.05c.52.44,1,.91,1.52,1.41l.13.14Z" style="fill:#f1d2b6"/><path d="M65.32,20.59s0,.09,0,.13a1.53,1.53,0,0,1-1.52,1.4h0a1.69,1.69,0,0,1-.55-.12l.29,0a1.06,1.06,0,0,0,.25,0A1.53,1.53,0,0,0,65,20.49a1.55,1.55,0,0,0-.94-1.41A1.54,1.54,0,0,1,65.32,20.59Z" style="fill:#a66428"/><path d="M65,20.49A1.53,1.53,0,0,1,63.73,22a1.06,1.06,0,0,1-.25,0l-.29,0a1.53,1.53,0,0,1,.6-2.94l.28,0A1.55,1.55,0,0,1,65,20.49Z" style="fill:#b36a29"/><path d="M87.28,15.36a3.75,3.75,0,0,1-2.34.81,3.79,3.79,0,0,1-3.79-3.79v-.05A6.51,6.51,0,0,1,85,10.92l.28.12a7.91,7.91,0,0,1,1.33.68L87,12A6.61,6.61,0,0,1,87.28,15.36Z" style="fill:#f7bd3f"/><ellipse cx="72.6" cy="15.33" rx="1.39" ry="1.04" transform="translate(-1.32 8.83) rotate(-6.9)" style="fill:#f2e0cf"/><path d="M86.21,26.4a1.17,1.17,0,0,1-1.32.8,1.11,1.11,0,0,0,1.1-.8c.11-.56-.41-1.13-1.16-1.28l-.24,0a2.27,2.27,0,0,1,.45,0C85.8,25.27,86.32,25.84,86.21,26.4Z" style="fill:#f283b0"/><path d="M86,26.4a1.11,1.11,0,0,1-1.1.8l-.23,0c-.76-.15-1.28-.72-1.17-1.28a1.11,1.11,0,0,1,1.1-.8l.24,0C85.58,25.27,86.1,25.84,86,26.4Z" style="fill:#f49ab8"/><path d="M72.61,21.57a.46.46,0,0,1-.22-.06.45.45,0,0,1-.16-.62,3.3,3.3,0,0,0,.26-.62,2.05,2.05,0,0,0,.09-1.14,1.11,1.11,0,0,0-.55-.68.88.88,0,0,0-.75-.1c-.82.27-1.46,1.56-1.46,1.57a.45.45,0,1,1-.81-.38,4.38,4.38,0,0,1,.52-.86A3.06,3.06,0,0,1,71,17.5a1.75,1.75,0,0,1,1.46.17,2,2,0,0,1,1,1.23A3.65,3.65,0,0,1,73,21.35.44.44,0,0,1,72.61,21.57Z" style="fill:#262262"/><path d="M81.36,24.55a.46.46,0,0,1-.23-.06.45.45,0,0,1-.16-.62,3.3,3.3,0,0,0,.26-.62,2.06,2.06,0,0,0,.09-1.14,1.11,1.11,0,0,0-.55-.68.86.86,0,0,0-.74-.1,3.26,3.26,0,0,0-1.47,1.57.45.45,0,0,1-.81-.38,6,6,0,0,1,.52-.86,3.06,3.06,0,0,1,1.48-1.18,1.78,1.78,0,0,1,1.47.17,2,2,0,0,1,1,1.23,3.61,3.61,0,0,1-.45,2.45A.44.44,0,0,1,81.36,24.55Z" style="fill:#262262"/><path d="M79.49,28.3a1.42,1.42,0,0,1-.11.33,8,8,0,0,0-3.73.77l-.15-.14a1.35,1.35,0,0,1-.4-1.14c.07-.39.31-.73,1.07-.45a2.22,2.22,0,0,0,2.42-.22C78.76,27.26,79.78,27,79.49,28.3Z" style="fill:#991b3d"/><path d="M79.38,28.63a2.49,2.49,0,0,1-.2.4,2.09,2.09,0,0,1-3.13.68c-.13-.09-.26-.2-.4-.31A8,8,0,0,1,79.38,28.63Z" style="fill:#cc1f47"/><path d="M29.81,49.3a2.45,2.45,0,0,1-1.46-.39,2.18,2.18,0,0,1-.79-1.14A5.52,5.52,0,0,1,27.31,46V42.73a6.81,6.81,0,0,1,.22-1.82,2,2,0,0,1,.8-1.14,2.71,2.71,0,0,1,1.59-.4,3,3,0,0,1,1.47.31,1.77,1.77,0,0,1,.81.93,4.49,4.49,0,0,1,.25,1.59v.36H31.18v-.3a4.79,4.79,0,0,0-.09-1,.94.94,0,0,0-.34-.6,1.27,1.27,0,0,0-.81-.2,1.19,1.19,0,0,0-.87.27,1.37,1.37,0,0,0-.34.75,8.77,8.77,0,0,0-.06,1.08v3.6a5.44,5.44,0,0,0,.1,1.16,1.2,1.2,0,0,0,.39.7,1.29,1.29,0,0,0,.82.23,1.18,1.18,0,0,0,.81-.26,1.29,1.29,0,0,0,.4-.74A6,6,0,0,0,31.3,46v-.68H30.06v-1h2.46v4.82h-.85l-.13-1.12a2.07,2.07,0,0,1-.6.89A1.72,1.72,0,0,1,29.81,49.3Z" style="fill:#fff"/><path d="M33.89,41.21V39.86h1.28v1.35Zm0,8V42.24h1.28v6.94Z" style="fill:#fff"/><path d="M37.8,49.27a1.21,1.21,0,0,1-.72-.23,1.69,1.69,0,0,1-.49-.6,1.75,1.75,0,0,1-.18-.78,2.55,2.55,0,0,1,.21-1.09,2.43,2.43,0,0,1,.6-.75,4.11,4.11,0,0,1,.87-.53l1-.45v-.49a4.41,4.41,0,0,0,0-.69.75.75,0,0,0-.2-.42.65.65,0,0,0-.45-.14.71.71,0,0,0-.43.12.68.68,0,0,0-.23.35,1.6,1.6,0,0,0-.07.52v.35l-1.28,0a2.57,2.57,0,0,1,.53-1.7,2.05,2.05,0,0,1,1.56-.55,1.74,1.74,0,0,1,1.47.57,2.68,2.68,0,0,1,.43,1.63v3.17c0,.21,0,.42,0,.62s0,.39,0,.56l.06.49H39.37c0-.13,0-.29-.09-.49s-.06-.37-.08-.53a1.85,1.85,0,0,1-.46.76A1.27,1.27,0,0,1,37.8,49.27Zm.5-1.1a.66.66,0,0,0,.36-.11,1.05,1.05,0,0,0,.3-.25,1,1,0,0,0,.18-.22v-2l-.56.34a2.91,2.91,0,0,0-.46.35,1.52,1.52,0,0,0-.31.42,1.19,1.19,0,0,0-.12.54,1.15,1.15,0,0,0,.16.66A.5.5,0,0,0,38.3,48.17Zm-.1-6.51.7-2.37h1.29l-1.35,2.37Z" style="fill:#fff"/><path d="M46.31,49.27A2,2,0,0,1,45,48.93a1.64,1.64,0,0,1-.59-1,6.21,6.21,0,0,1-.15-1.45V44.92a6.43,6.43,0,0,1,.15-1.5,1.7,1.7,0,0,1,.6-1,2.1,2.1,0,0,1,1.28-.33,2.37,2.37,0,0,1,1.17.25,1.31,1.31,0,0,1,.57.73,4.2,4.2,0,0,1,.15,1.21v.41H47v-.42A3.32,3.32,0,0,0,47,43.6a.62.62,0,0,0-.22-.39.7.7,0,0,0-.44-.12.69.69,0,0,0-.48.15.72.72,0,0,0-.22.48,5.68,5.68,0,0,0-.06.93v2.19A2.76,2.76,0,0,0,45.73,48a.62.62,0,0,0,.6.3.63.63,0,0,0,.47-.15.75.75,0,0,0,.2-.42,5.73,5.73,0,0,0,0-.63v-.56H48.2V47a3.92,3.92,0,0,1-.16,1.2,1.41,1.41,0,0,1-.57.77A2.24,2.24,0,0,1,46.31,49.27Z" style="fill:#fff"/><path d="M49.38,49.18V39.46h1.28V43a4.39,4.39,0,0,1,.78-.58,2,2,0,0,1,1-.24.86.86,0,0,1,.63.22,1.13,1.13,0,0,1,.32.54,2.5,2.5,0,0,1,.09.66v5.62H52.15V43.93a1.11,1.11,0,0,0-.11-.57.45.45,0,0,0-.44-.21,1.08,1.08,0,0,0-.47.13,2.49,2.49,0,0,0-.47.33v5.57Z" style="fill:#fff"/><path d="M55.43,41.54,55,41.06a2.6,2.6,0,0,0,.56-.31.44.44,0,0,0,.22-.38.37.37,0,0,0-.21-.36,1.14,1.14,0,0,0-.52-.11l-.3,0a1.55,1.55,0,0,0-.31.06v-.64a3.85,3.85,0,0,1,1-.12,2,2,0,0,1,.67.1,1.07,1.07,0,0,1,.48.35.92.92,0,0,1,.18.59,1,1,0,0,1-.17.59,1.47,1.47,0,0,1-.48.4A3.86,3.86,0,0,1,55.43,41.54Zm-.66,7.64V42.24h1.28v6.94Z" style="fill:#fff"/><path d="M62,49.27a1.7,1.7,0,0,1-.87-.2,1.19,1.19,0,0,1-.48-.58,2.33,2.33,0,0,1-.15-.87V43.09h-.74v-.85h.74v-2h1.28v2h1.12v.85H61.75v4.44a1,1,0,0,0,.13.58.6.6,0,0,0,.51.18h.22l.24,0v1l-.44,0A3.1,3.1,0,0,1,62,49.27Z" style="fill:#fff"/><path d="M64.81,49.27a.89.89,0,0,1-.63-.21,1.15,1.15,0,0,1-.32-.54,2.5,2.5,0,0,1-.09-.66V42.24h1.28v5.23a1.3,1.3,0,0,0,.11.58.45.45,0,0,0,.44.21,1,1,0,0,0,.45-.12,2.77,2.77,0,0,0,.45-.31V42.24h1.29v6.94H66.5v-.69a3.21,3.21,0,0,1-.76.55A1.83,1.83,0,0,1,64.81,49.27Zm.7-7.61-1.33-2.37h1.28l.68,2.37Zm1.17,1.25v-.67h.12a.56.56,0,0,0,.51-.22,1.31,1.31,0,0,0,.14-.67h1A1.52,1.52,0,0,1,68,42.52a1.7,1.7,0,0,1-1.2.39Z" style="fill:#fff"/><path d="M73.25,49.18v-8l-.27.07-.59.12-.57.11-.27,0v-1a4.44,4.44,0,0,0,.48-.13c.18-.06.36-.12.55-.2a2.86,2.86,0,0,0,.54-.3,2,2,0,0,0,.44-.42h1v9.72Z" style="fill:#fff"/><path d="M76.44,49.18v-.92l2.47-3.85.51-.8a3.83,3.83,0,0,0,.38-.79,2.75,2.75,0,0,0,.15-1,2.24,2.24,0,0,0-.21-1.06.81.81,0,0,0-.76-.38,1,1,0,0,0-.71.25,1.39,1.39,0,0,0-.34.66,3.49,3.49,0,0,0-.1.88v.32H76.55V42.2a4.22,4.22,0,0,1,.23-1.5,2,2,0,0,1,.76-1,2.47,2.47,0,0,1,1.38-.35,2.16,2.16,0,0,1,1.75.67,2.69,2.69,0,0,1,.58,1.84A3.54,3.54,0,0,1,81.1,43a4.36,4.36,0,0,1-.39.88c-.16.27-.34.55-.53.84L78,48.1H81v1.08Z" style="fill:#fff"/><path d="M84.62,49.28A2.73,2.73,0,0,1,83.33,49a1.94,1.94,0,0,1-.81-.82,3.05,3.05,0,0,1-.29-1.31v-.11h1.29a2,2,0,0,0,.23,1.08,1,1,0,0,0,.89.38.82.82,0,0,0,.59-.23,1.33,1.33,0,0,0,.36-.68,4.29,4.29,0,0,0,.13-1.17V44.66a1.35,1.35,0,0,1-.54.49,1.94,1.94,0,0,1-.88.19A2,2,0,0,1,83,45a1.78,1.78,0,0,1-.64-1,5.61,5.61,0,0,1,0-3.07,2.39,2.39,0,0,1,.77-1.14,2.22,2.22,0,0,1,1.4-.42A2.08,2.08,0,0,1,86,39.8a2.39,2.39,0,0,1,.77,1.14A4.81,4.81,0,0,1,87,42.55v3.27a6.64,6.64,0,0,1-.21,1.72,2.63,2.63,0,0,1-.74,1.27A2,2,0,0,1,84.62,49.28Zm0-4.92a1.09,1.09,0,0,0,.69-.21,1.76,1.76,0,0,0,.41-.46V42.25a4.4,4.4,0,0,0-.1-.92,1.48,1.48,0,0,0-.34-.66.89.89,0,0,0-.66-.24.86.86,0,0,0-.66.25,1.41,1.41,0,0,0-.35.65,3.57,3.57,0,0,0-.1.89,8.77,8.77,0,0,0,0,1.06,1.52,1.52,0,0,0,.29.79A.92.92,0,0,0,84.62,44.36Z" style="fill:#fff"/><path d="M88.29,49.18V47.75h1.29v1.43Z" style="fill:#fff"/><path d="M93.07,49.28a2.3,2.3,0,0,1-1.36-.37,2.18,2.18,0,0,1-.79-1,3.78,3.78,0,0,1-.26-1.47V42.23a4.07,4.07,0,0,1,.25-1.5,2.13,2.13,0,0,1,.79-1,2.79,2.79,0,0,1,2.74,0,2.17,2.17,0,0,1,.78,1,4.07,4.07,0,0,1,.25,1.5v4.19a4,4,0,0,1-.26,1.48,2.17,2.17,0,0,1-.78,1A2.39,2.39,0,0,1,93.07,49.28Zm0-1.05a.87.87,0,0,0,.69-.27,1.4,1.4,0,0,0,.32-.67,4.12,4.12,0,0,0,.09-.86V42.22a4.21,4.21,0,0,0-.08-.89,1.36,1.36,0,0,0-.32-.66.89.89,0,0,0-.7-.25.93.93,0,0,0-.71.25,1.28,1.28,0,0,0-.32.66,4.19,4.19,0,0,0-.09.89v4.21a4.12,4.12,0,0,0,.09.86,1.42,1.42,0,0,0,.34.67A.87.87,0,0,0,93.07,48.23Z" style="fill:#fff"/><path d="M99.27,49.28a2.32,2.32,0,0,1-1.36-.37,2.24,2.24,0,0,1-.79-1,4,4,0,0,1-.26-1.47V42.23a4.28,4.28,0,0,1,.25-1.5,2.13,2.13,0,0,1,.79-1,2.79,2.79,0,0,1,2.74,0,2.17,2.17,0,0,1,.78,1,4.07,4.07,0,0,1,.25,1.5v4.19a4,4,0,0,1-.25,1.48,2.26,2.26,0,0,1-.79,1A2.35,2.35,0,0,1,99.27,49.28Zm0-1.05A.85.85,0,0,0,100,48a1.41,1.41,0,0,0,.33-.67,4.12,4.12,0,0,0,.09-.86V42.22a4.19,4.19,0,0,0-.09-.89,1.35,1.35,0,0,0-.31-.66,1.12,1.12,0,0,0-1.41,0,1.38,1.38,0,0,0-.33.66,5,5,0,0,0-.08.89v4.21a4.12,4.12,0,0,0,.09.86,1.41,1.41,0,0,0,.33.67A.9.9,0,0,0,99.27,48.23Z" style="fill:#fff"/><path d="M105.48,49.28a2.3,2.3,0,0,1-1.36-.37,2.26,2.26,0,0,1-.8-1,4,4,0,0,1-.25-1.47V42.23a4.07,4.07,0,0,1,.25-1.5,2.17,2.17,0,0,1,.78-1,2.44,2.44,0,0,1,1.38-.36,2.41,2.41,0,0,1,1.37.36,2.17,2.17,0,0,1,.78,1,4.28,4.28,0,0,1,.25,1.5v4.19a4,4,0,0,1-.26,1.48,2.13,2.13,0,0,1-.79,1A2.34,2.34,0,0,1,105.48,49.28Zm0-1.05a.87.87,0,0,0,.69-.27,1.5,1.5,0,0,0,.32-.67,4.12,4.12,0,0,0,.09-.86V42.22a5,5,0,0,0-.08-.89,1.36,1.36,0,0,0-.32-.66.91.91,0,0,0-.7-.25.93.93,0,0,0-.71.25,1.28,1.28,0,0,0-.32.66,4.19,4.19,0,0,0-.09.89v4.21a4.12,4.12,0,0,0,.09.86,1.34,1.34,0,0,0,.34.67A.87.87,0,0,0,105.48,48.23Z" style="fill:#fff"/><path d="M110.83,49.27a1.47,1.47,0,0,1-1.31-.64,4.06,4.06,0,0,1-.43-2.18V45.11a7.52,7.52,0,0,1,.13-1.47,2.3,2.3,0,0,1,.5-1.09,1.36,1.36,0,0,1,1.07-.41,1.35,1.35,0,0,1,.64.16,2.39,2.39,0,0,1,.52.38V41H110.6v-.71H112v-.86h1.28v.86h.71V41h-.71v8.15H112v-.45a2.26,2.26,0,0,1-.5.39A1.26,1.26,0,0,1,110.83,49.27Zm-1.54,1.37v-.77h3.95v.77Zm1.86-2.38a1.43,1.43,0,0,0,.39-.06A2.2,2.2,0,0,0,112,48V43.45a2.32,2.32,0,0,0-.38-.21,1,1,0,0,0-.44-.09.58.58,0,0,0-.6.43,3,3,0,0,0-.16,1v2a5.75,5.75,0,0,0,.06.87,1.26,1.26,0,0,0,.22.61A.58.58,0,0,0,111.15,48.26Z" style="fill:#fff"/></svg>