<svg xmlns="http://www.w3.org/2000/svg" xmlns:xlink="http://www.w3.org/1999/xlink" viewBox="0 0 444.62 423.43"><defs><linearGradient id="b" x2="395.21" y1="174.25" y2="174.25" gradientTransform="matrix(1 0 0 -1 0 400.09)" gradientUnits="userSpaceOnUse"><stop offset="0" stop-color="#dfbda2"/><stop offset=".62" stop-color="#e2b694"/><stop offset="1" stop-color="#e4b089"/></linearGradient><linearGradient id="a" x1="304.98" x2="309.09" y1="235.6" y2="235.6" gradientUnits="userSpaceOnUse"><stop offset="0" stop-color="#ae7952"/><stop offset=".13" stop-color="#ab744d"/><stop offset=".61" stop-color="#a16940"/><stop offset="1" stop-color="#9d653c"/></linearGradient><linearGradient id="c" x1="301.18" x2="312.97" y1="235.62" y2="235.62" xlink:href="#a"/><linearGradient id="d" x1="135.92" x2="252.05" y1="163.25" y2="163.25" xlink:href="#a"/><linearGradient id="e" x1="92.19" x2="295.78" y1="249.72" y2="249.72" xlink:href="#a"/><linearGradient id="f" x1="155.31" x2="239.89" y1="58.37" y2="58.37" xlink:href="#a"/><linearGradient id="g" x2="444.4" y1="385.97" y2="385.97" gradientTransform="matrix(1 0 0 -1 0 400.09)" gradientUnits="userSpaceOnUse"><stop offset="0" stop-color="#f1d9cc"/><stop offset=".02" stop-color="#eed5c6"/><stop offset=".07" stop-color="#e9ccb9"/><stop offset=".15" stop-color="#e6c7b1"/><stop offset=".29" stop-color="#e5c6af"/><stop offset="1" stop-color="#dfbda2"/></linearGradient><linearGradient id="h" x1="395.21" x2="444.62" y1="188.37" y2="188.37" gradientTransform="matrix(1 0 0 -1 0 400.09)" gradientUnits="userSpaceOnUse"><stop offset="0" stop-color="#c58f68"/><stop offset=".47" stop-color="#d19c74"/><stop offset="1" stop-color="#e4b089"/></linearGradient></defs><path fill="url(#b)" d="M0 28.24h395.21v395.19H0z"/><g opacity=".8"><path fill="url(#a)" d="M305.74 238.66H305v-6.12h1.88a2.24 2.24 0 0 1 1.07.27 1.44 1.44 0 0 1 .54.58 1.72 1.72 0 0 1 .17.8 1.62 1.62 0 0 1-.13.72 2.31 2.31 0 0 1-.4.58 2.25 2.25 0 0 1-.76.45 1.1 1.1 0 0 1 .31.22 2.26 2.26 0 0 1 .23.31l.22.4.94 1.79h-.9l-.8-1.61a3.66 3.66 0 0 0-.8-1h-.76zm0-3.22h.81a1.36 1.36 0 0 0 .71-.17 1.08 1.08 0 0 0 .45-.45 1.37 1.37 0 0 0 .13-.63 1.05 1.05 0 0 0-.13-.49 1 1 0 0 0-.32-.4 1.31 1.31 0 0 0-.76-.13h-.89z"/><path fill="url(#c)" d="M307.17 229.73a5.9 5.9 0 1 0 5.8 6 5.94 5.94 0 0 0-5.8-6zm-.14 11a5 5 0 1 1 5.09-5 5 5 0 0 1-5.09 5z"/><path fill="url(#d)" fill-rule="evenodd" d="M252.05 142.85a30.45 30.45 0 0 1-20.32 28.72l-2.24.72c-7.81 2.23-17.55 3.48-29.61 3.12l-6 17c-2.59 7.23 3.84 10 7.68 3.17l6.48 4.69c-2.95 6.25-7.68 10.72-13.44 12.73-8.49 2.9-17.69.44-18.36-9.61-.36-5 4.64-18.17 8.31-28.4l-12.11-.45 3.35-9.42 12.06.35 4.6-12.86.14-.45 2.45-6.83.14-.45.22-.58h15.5l-5.3 14.7v.09l-2.46 6.79a30.06 30.06 0 0 0 24.66-11.3 18.84 18.84 0 0 0 4.46-16 18.93 18.93 0 0 0-20.63-15.41 27.25 27.25 0 0 0-3.49.31 32.52 32.52 0 0 0-4.46 1.07 39.07 39.07 0 0 0-9.16 4.29l-.58.4-2 1.34a64.36 64.36 0 0 0-11.84 11.48 115.47 115.47 0 0 0-9.51 13.53 97.38 97.38 0 0 0-12.64 34.71 94.68 94.68 0 0 0-1.65 14.25c-.18 2.41-.33 4.83-.45 7.28a111.38 111.38 0 0 0-19.92-7.55l31.45-88.71 17.19.54-6.65 18.76c12.06-14.43 25.46-20.77 37.92-22.16a50.28 50.28 0 0 1 5.76-.31 12.53 12.53 0 0 1 1.83.09 30.38 30.38 0 0 1 28.63 30.37z"/><path fill="url(#e)" d="M101.8 234.82q4.29 0 6.16 2.37a9.27 9.27 0 0 1 1.83 6.07 9.62 9.62 0 0 1-1.83 6.07q-1.83 2.37-6.16 2.37h-3.58v8.76h-6v-25.64zm-1.12 14.6q3.16 0 3.17-6.16t-3.21-6.16h-2.42v12.32zm30.86 11h-6.07v-11.3h-7v11.3h-6.07v-25.6h6v11.34h7v-11.34h6.08zm8.46-7.02l-2 7.06h-3.35l7.45-25.64h7l7.6 25.68h-5.81l-2.06-7.1zm4.45-15.4l-3.57 12.46h7.06zm-1.56-6.39l4.55-7.51 3.44 4.07-6.83 4.82zm32.16 6.3h-6.34v22.6h-6v-22.6h-6.39v-3H175zm26.66 0h-6.25v22.6h-6v-22.6h-6.38v-3h18.62zm21.49 22.6h-6.12v-11.3h-7v11.3h-6v-25.69h6v11.34h7v-11.34h6.12zm8.44-7.06l-2.06 7.06h-3.35l7.46-25.64h7l7.59 25.68h-5.8l-2.06-7.1zm.18-25.28l3.44-4 4.46 7.41-1.11 1.34zm4.24 9.83l-3.57 12.46h7zm35.11 22.51h-6.26l-10.27-19v19h-3.57v-25.69h6.25l10.27 19.07v-19.07h3.58zm24.61 0h-6.08v-11.3h-7v11.3h-6v-25.69h6v11.34h7v-11.34h6.08zm-201 14.65a4 4 0 0 1-1.43-.76 3.33 3.33 0 0 1-.89-1.3 4 4 0 0 1-.23-1.38 3.29 3.29 0 0 1 0-.54 3.9 3.9 0 0 1 .18-.67 2.76 2.76 0 0 1 .85-1.29 3.26 3.26 0 0 1 1.2-.72 5.45 5.45 0 0 1 1.7-.27h.71l.63.09.22.05.45.09h.22a.15.15 0 0 1 .14.13v.41a1.22 1.22 0 0 0 0 .27v.76a.16.16 0 0 1-.14.18s-.09-.05-.09-.18a1.23 1.23 0 0 0-.35-.85 3 3 0 0 0-3.58 0 2.41 2.41 0 0 0-.67 1.07 4.74 4.74 0 0 0-.18 1.3 3.9 3.9 0 0 0 .28 1.45 3.31 3.31 0 0 0 .72 1 2.69 2.69 0 0 0 1.83.85 2.29 2.29 0 0 0 1.65-.49 1.29 1.29 0 0 0 .31-.63.16.16 0 0 1 .14-.18s.09 0 .09.14l-.09.53a5 5 0 0 1-.14.67.4.4 0 0 1-.22.27 3.36 3.36 0 0 1-.76.18 6.61 6.61 0 0 1-.89 0 6.06 6.06 0 0 1-1.7-.22zm8.75-.09a3.2 3.2 0 0 1-1.11-.85 3.38 3.38 0 0 1-.67-1.16 3.84 3.84 0 0 1 0-2.46 3.29 3.29 0 0 1 .67-1.16 3.37 3.37 0 0 1 1.16-.89 4.37 4.37 0 0 1 1.79-.32 3.86 3.86 0 0 1 2.68.9 3.24 3.24 0 0 1 1 2.5 3.62 3.62 0 0 1-3.48 3.75h-.32a4.14 4.14 0 0 1-1.76-.38zm2.68-.23a1.65 1.65 0 0 0 .72-.4 2.22 2.22 0 0 0 .58-.89 4.37 4.37 0 0 0 .22-1.56 3.7 3.7 0 0 0-.76-2.42 2.47 2.47 0 0 0-2.68-.76 2 2 0 0 0-.71.45 2.27 2.27 0 0 0-.54.89 4.66 4.66 0 0 0-.18 1.39 3.79 3.79 0 0 0 .72 2.41 2.45 2.45 0 0 0 2 1 1.89 1.89 0 0 0 .58-.14zm7.46-1.6v.53l.05.81c0 .31.13.44.36.49a3.13 3.13 0 0 0 .44 0c.09 0 .18 0 .18.09s-.09.09-.22.09H112c-.18 0-.22 0-.22-.09s0 0 .13 0a1.54 1.54 0 0 0 .31-.05c.14 0 .23-.18.27-.49V269a.48.48 0 0 0-.36-.53 1 1 0 0 0-.35 0c-.09 0-.14-.05-.14-.09s0-.09.18-.09h4.25v.31a.76.76 0 0 0-.09.18v.71c0 .09 0 .14-.09.14s0 0-.09-.14a.14.14 0 0 0 0-.09.41.41 0 0 0 0-.22.39.39 0 0 0-.22-.18.87.87 0 0 0-.45-.09h-1.34c-.09 0-.09 0-.09.09v2.36h1.61a.53.53 0 0 0 .45-.13v-.09h.09v.63l-.05.67q0 .18-.09.18s-.09-.05-.09-.14a.84.84 0 0 0 0-.27.39.39 0 0 0-.18-.22.61.61 0 0 0-.31-.13h-1.34v.09zm7.91 0v1.34c0 .31.18.44.36.49a3.42 3.42 0 0 0 .45 0c.13 0 .18 0 .18.09s-.09.09-.23.09h-2.5c-.18 0-.22 0-.22-.09s0 0 .13 0a1.77 1.77 0 0 0 .32-.05c.13 0 .22-.18.26-.49V269a.49.49 0 0 0-.4-.53 1.09 1.09 0 0 0-.36 0c-.09 0-.14-.05-.14-.09s0-.09.23-.09h4.2v.31a1.16 1.16 0 0 0 0 .18v.71c0 .09 0 .14-.09.14s-.09 0-.09-.14v-.13a.42.42 0 0 0 0-.22.39.39 0 0 0-.22-.18.93.93 0 0 0-.4-.09h-1.39c-.09 0-.09 0-.09.09v2.36h1.61a.45.45 0 0 0 .35-.13l.09-.09c.09 0 .09 0 .09.09v1.21q0 .18-.09.18s-.09-.05-.09-.14a.84.84 0 0 0 0-.27.36.36 0 0 0-.13-.22.64.64 0 0 0-.32-.13h-1.38v.09zm6.79-3.58V269a.49.49 0 0 0-.4-.53 1.09 1.09 0 0 0-.36 0c-.09 0-.14 0-.14-.09s0-.09.18-.09h4l.14-.05v.4a1.22 1.22 0 0 0 0 .27l-.05.45a.54.54 0 0 1 0 .18h-.05c-.09 0-.09 0-.09-.09a.29.29 0 0 0 0-.13 1.16 1.16 0 0 0 0-.18.43.43 0 0 0-.18-.22 1.18 1.18 0 0 0-.45-.14h-1.29l-.05.09v2.33l.05.08h1.47a.66.66 0 0 0 .45-.13l.13-.09.05.05v.4l-.05.27v.62c0 .14 0 .18-.09.18a.09.09 0 0 1-.09-.09v-.13a.54.54 0 0 0 0-.18.5.5 0 0 0-.54-.36h-1.29l-.05.09v2.14c0 .32.09.5.23.58a1.61 1.61 0 0 0 .89.18h.4a1.13 1.13 0 0 0 .45-.09.79.79 0 0 0 .45-.67c0-.13 0-.17.09-.17s0 .08 0 .17a4.44 4.44 0 0 1-.09 1c0 .13-.22.22-.49.22h-3.71l-.18-.09s0-.08.14-.08a2 2 0 0 0 .35-.05c.14 0 .23-.18.27-.49v-1.34zm8 0V269a.48.48 0 0 0-.4-.53 1.09 1.09 0 0 0-.36 0c-.09 0-.13 0-.13-.09s0-.09.18-.09h4.06l.14-.05v.4a1.22 1.22 0 0 0 0 .27l-.09.45a.54.54 0 0 1 0 .18l-.05.05v-.27a.76.76 0 0 0-.09-.18.38.38 0 0 0-.13-.22 1.18 1.18 0 0 0-.45-.14h-1.29l-.05.09v2.33l.05.08h1.47a.72.72 0 0 0 .45-.13l.13-.09.09.05v.67l-.09.62c0 .14 0 .18-.09.18a.11.11 0 0 1 0-.09v-.13a.58.58 0 0 0 0-.18c0-.23-.22-.36-.54-.36h-1.29v2.23a.73.73 0 0 0 .18.58 1.61 1.61 0 0 0 .89.18h.04a1.13 1.13 0 0 0 .45-.09.79.79 0 0 0 .45-.67c0-.13 0-.17.09-.17s0 .08 0 .17a4.44 4.44 0 0 1-.09 1c0 .13-.22.22-.49.22h-3.71l-.18-.09s.05-.08.14-.08a2.23 2.23 0 0 0 .36-.05c.13 0 .22-.18.26-.49v-5.05zm12.55 0V269a.48.48 0 0 0-.44-.53h-.32c-.08 0-.13 0-.13-.09s.05-.09.18-.09h2.55a4.46 4.46 0 0 1 .89 0 2.3 2.3 0 0 1 .76.31 1.45 1.45 0 0 1 .44.45 1.63 1.63 0 0 1 .18.81 2 2 0 0 1-.22 1 3.71 3.71 0 0 1-1 1.07l1.11 1.34.9 1.07a2.44 2.44 0 0 0 .62.49l.14.05h.49c.09 0 .13 0 .13.09s0 .09-.18.09h-.89a2.19 2.19 0 0 1-1-.18 2.51 2.51 0 0 1-.58-.49l-.67-.9-.9-1.2a.21.21 0 0 0-.18-.09h-.8s-.09 0-.09.09v2.05c.09.31.17.45.4.54h.44c.09 0 .09 0 .09.09s0 .09-.17.09h-2.46l-.18-.05s0-.09.13-.09h.36c.14 0 .22-.22.27-.53v-1.34zm1.08 2.1a.18.18 0 0 0 .09.18 2.46 2.46 0 0 0 .67.09 1.15 1.15 0 0 0 .67-.18 1.12 1.12 0 0 0 .35-.45 2 2 0 0 0 .18-.89 2 2 0 0 0-.13-.85 1.33 1.33 0 0 0-.36-.49 1.39 1.39 0 0 0-.89-.36H150a.14.14 0 0 0-.1.17zm8.84 3.31a3.15 3.15 0 0 1-1.16-.85A3.29 3.29 0 0 1 157 273a3.71 3.71 0 0 1 0-2.46 3.29 3.29 0 0 1 .67-1.16 3.39 3.39 0 0 1 1.2-.89 4.38 4.38 0 0 1 1.75-.32 3.86 3.86 0 0 1 2.68.9 3.24 3.24 0 0 1 1 2.5 3.61 3.61 0 0 1-3.48 3.75h-.32a4.07 4.07 0 0 1-1.71-.32zm2.68-.23a1.76 1.76 0 0 0 .67-.4 2.22 2.22 0 0 0 .58-.89 4.6 4.6 0 0 0 .22-1.56 3.65 3.65 0 0 0-.76-2.42 2.34 2.34 0 0 0-1.87-.89 2.45 2.45 0 0 0-.81.13 2 2 0 0 0-.71.45 2.27 2.27 0 0 0-.54.89 4.7 4.7 0 0 0-.22 1.39 3.73 3.73 0 0 0 .76 2.41 2.45 2.45 0 0 0 2.05 1 1.89 1.89 0 0 0 .58-.14zm6.65-2l-.08.09-.5 1.34a1.65 1.65 0 0 0-.13.53c0 .18.13.27.36.27h.13c.09 0 .14 0 .14.09s0 .09-.14.09h-2.05c-.14 0-.18-.09-.18-.13l.13-.09h.27a.73.73 0 0 0 .45-.27 2.05 2.05 0 0 0 .31-.54l2.32-5.71c.09-.27.18-.36.27-.36s.13.09.22.27a6 6 0 0 0 .36.89l1.34 3.35.58 1.34a2.54 2.54 0 0 0 .45.8.77.77 0 0 0 .18.18h.53c.09 0 .14 0 .14.13s-.14.09-.45.09h-2v-.09l.13-.09a.1.1 0 0 0 .05 0 .17.17 0 0 0 0-.14l-.72-1.92a.09.09 0 0 0-.09-.09zm1.88-.45l-.8-2.28V270a.09.09 0 0 0-.09.09l-.85 2.24zm5.85 2.73a.32.32 0 0 1-.13-.32v-1.16c0-.18 0-.22.13-.22s.09 0 .09.13a1.63 1.63 0 0 0 .09.45 1.16 1.16 0 0 0 .49.71 1.37 1.37 0 0 0 .81.23 1.29 1.29 0 0 0 .89-.32 1 1 0 0 0 .31-.71 1.41 1.41 0 0 0-.13-.67 2.77 2.77 0 0 0-.76-.8l-.45-.32a4.37 4.37 0 0 1-1-1.11 2 2 0 0 1-.26-1.07 1.56 1.56 0 0 1 .53-1.26 2.31 2.31 0 0 1 1.57-.44 4.21 4.21 0 0 1 .71 0l.27.09h.22a.13.13 0 0 1 .14.14v1.07c0 .18 0 .27-.09.27s-.09 0-.09-.18v-.09a.78.78 0 0 0 0-.14 1.06 1.06 0 0 0-.18-.35l-.13-.14a1.24 1.24 0 0 0-.22-.18 1.41 1.41 0 0 0-.67-.13c-.72 0-1.08.31-1.08.89a1.08 1.08 0 0 0 .18.63 3.23 3.23 0 0 0 .81.71l.22.23a3 3 0 0 1 1.52 2.32 1.85 1.85 0 0 1-.85 1.56 2.14 2.14 0 0 1-.71.31 2.47 2.47 0 0 1-.76.09 3.24 3.24 0 0 1-1.34-.26zm9.29-6.26h-1.39a1.16 1.16 0 0 0-.89.27 1.09 1.09 0 0 0-.18.31c0 .09 0 .14-.09.14s-.09-.05-.09-.14v-.22l.09-.36.09-.44.13-.23h.14a.2.2 0 0 0 .09.09h.13c.3 0 .6.05.89.05h4.16l.36-.05s.09.05.09.18v1.07a.13.13 0 0 1-.14.14s-.09-.05-.09-.18v-.09a.45.45 0 0 0-.22-.36 1.78 1.78 0 0 0-.85-.18h-1.16v5.68a.43.43 0 0 0 .36.49 3.42 3.42 0 0 0 .45 0c.09 0 .13 0 .13.09s0 .09-.18.09h-2.77c0-.05.05-.09.18-.09a1.54 1.54 0 0 0 .31-.05c.14 0 .23-.18.27-.49v-1.34zm7.51.76V269a.49.49 0 0 0-.41-.53 1 1 0 0 0-.35 0c-.09 0-.14 0-.14-.09s.05-.09.18-.09h4l.13-.05v1.12a.54.54 0 0 1 0 .18v.05l-.05-.05s-.09 0-.09-.09a.29.29 0 0 0 0-.13 1.16 1.16 0 0 0 0-.18.49.49 0 0 0-.18-.22 1.18 1.18 0 0 0-.45-.14h-1.44l-.05.09v2.33l.05.08h1.47a.72.72 0 0 0 .45-.13l.13-.09.05.05v.4l-.05.27v.62c0 .14 0 .18-.09.18a.09.09 0 0 1-.09-.09v-.31a.54.54 0 0 0-.54-.36h-1.33l-.05.09v2.14c0 .32.05.5.18.58a1.62 1.62 0 0 0 .89.18h.45a1.2 1.2 0 0 0 .45-.09.8.8 0 0 0 .4-.67c0-.13 0-.17.09-.17s.09.08.09.17a3.94 3.94 0 0 1-.14 1c0 .13-.22.22-.49.22h-3.66c-.13 0-.18 0-.18-.09l.13-.08a1.77 1.77 0 0 0 .32-.05c.13 0 .22-.18.27-.49v-5.05zm8 0l-.05-.58a.49.49 0 0 0-.4-.53 1.09 1.09 0 0 0-.36 0c-.09 0-.13 0-.13-.09s0-.09.18-.09h2.54a4.52 4.52 0 0 1 .9 0 2.38 2.38 0 0 1 .8.31 1.56 1.56 0 0 1 .4.45 1.61 1.61 0 0 1 .22.81 2 2 0 0 1-.26 1 3.7 3.7 0 0 1-.94 1.07l1.07 1.34.89 1.07a2.46 2.46 0 0 0 .67.45l.09.09h.54s.09 0 .09.14-.05.09-.18.09h-.89a2.13 2.13 0 0 1-.94-.18 2.51 2.51 0 0 1-.58-.49 4.58 4.58 0 0 1-.67-.9l-.9-1.2a.2.2 0 0 0-.17-.09h-.81V274.43a.6.6 0 0 0 .4.54h.45s.09 0 .09.09 0 .09-.18.09h-2.46l-.18-.05s.05-.09.14-.09h.35c.14 0 .23-.22.27-.53v-1.34zm1.07 2.1a.18.18 0 0 0 .09.18 2.46 2.46 0 0 0 .67.09 1.15 1.15 0 0 0 .67-.18 1.19 1.19 0 0 0 .35-.45 2 2 0 0 0 .18-.89 2 2 0 0 0-.13-.85 1.25 1.25 0 0 0-.36-.49 1.39 1.39 0 0 0-.89-.36h-.45a.14.14 0 0 0-.14.13.07.07 0 0 0 0 .05zm7.55 3.4a.31.31 0 0 1-.18-.32v-1.16c0-.18 0-.22.13-.22s.09 0 .09.13a1.63 1.63 0 0 0 .09.45 1.16 1.16 0 0 0 .49.71 1.36 1.36 0 0 0 .8.23 1.29 1.29 0 0 0 .9-.32.92.92 0 0 0 .31-.71 1.41 1.41 0 0 0-.13-.67 2.77 2.77 0 0 0-.76-.8l-.45-.32a4.54 4.54 0 0 1-1-1.11 2 2 0 0 1-.26-1.07 1.54 1.54 0 0 1 .58-1.26 2.26 2.26 0 0 1 1.51-.44 4.33 4.33 0 0 1 .72 0l.27.09h.22c.09 0 .13.05.13.14v1.07c0 .18 0 .27-.08.27s-.09 0-.09-.18v-.09a.78.78 0 0 0 0-.14 1.06 1.06 0 0 0-.18-.35l-.13-.14a1.24 1.24 0 0 0-.22-.18 1.41 1.41 0 0 0-.67-.13c-.72 0-1.08.31-1.08.89a1.08 1.08 0 0 0 .18.63 3.23 3.23 0 0 0 .81.71l.22.23a3 3 0 0 1 1.52 2.32 1.85 1.85 0 0 1-.85 1.56 2.1 2.1 0 0 1-.72.31 3.14 3.14 0 0 1-.75.09 3.24 3.24 0 0 1-1.34-.26zm12.06 0a.31.31 0 0 1-.18-.32v-1.16c0-.18.09-.22.13-.22s.09 0 .09.13a1.63 1.63 0 0 0 .09.45 1.17 1.17 0 0 0 .54.71 1.33 1.33 0 0 0 .75.23 1.29 1.29 0 0 0 .9-.32 1 1 0 0 0 .35-.71 1.45 1.45 0 0 0-.17-.67 2.9 2.9 0 0 0-.72-.8l-.44-.32a4.18 4.18 0 0 1-1-1.11 2 2 0 0 1-.31-1.07 1.54 1.54 0 0 1 .58-1.26 2.26 2.26 0 0 1 1.51-.44 4.82 4.82 0 0 1 .76 0l.23.09h.22c.09 0 .13.05.13.14v1.07c0 .18 0 .27-.09.27s-.08 0-.08-.18v-.09a.78.78 0 0 0 0-.14 1.06 1.06 0 0 0-.18-.35l-.13-.14a2.31 2.31 0 0 0-.23-.18 1.36 1.36 0 0 0-.67-.13c-.71 0-1.07.31-1.07.89a1 1 0 0 0 .23.63 3.43 3.43 0 0 0 .76.71l.26.23a3 3 0 0 1 1.48 2.32 1.85 1.85 0 0 1-.9 1.56 2 2 0 0 1-.67.31 3.14 3.14 0 0 1-.75.09 3.2 3.2 0 0 1-1.43-.23zm8-5.5V269c0-.31-.13-.44-.31-.49a1.06 1.06 0 0 0-.31 0q-.18 0-.18-.09c0-.05.09-.09.22-.09h2.33c.13 0 .18 0 .18.09s0 .09-.14.09a1.26 1.26 0 0 0-.27 0c-.22 0-.31.22-.35.54v5.54c0 .26.17.44.4.44h.44c.09 0 .14 0 .14.09s-.05.09-.18.09H228.63c0-.05 0-.09.13-.09h.31a.55.55 0 0 0 .27-.45v-1.38zm6.88 4.34c0 .67.14 1 .32 1.07a1.6 1.6 0 0 0 .44 0c.14 0 .18 0 .18.09s0 .09-.22.09h-2.1c-.18 0-.18 0-.18-.09s0-.09.13-.09a1.71 1.71 0 0 0 .45 0c.13 0 .22-.45.22-1.12l.09-5.4c0-.23 0-.32.14-.32a.21.21 0 0 1 .13.05l.09.09 1.07 1.16 3 3.13.18.17a.26.26 0 0 1 .09.09l.53.58h.05l-.09-4.11c0-.44-.09-.75-.31-.84H240c-.08 0-.13-.05-.13-.09s.09-.09.22-.09h2.06c.13 0 .22 0 .22.09s0 0-.18 0a1.09 1.09 0 0 0-.26.05c-.23 0-.32.31-.32.76l-.13 5.8c0 .18 0 .27-.09.27s-.18-.09-.31-.22l-.54-.5-2.19-2.14-.76-.76-1.43-1.56zm11.93 1.16a4.1 4.1 0 0 1-1.39-.76 3.33 3.33 0 0 1-.89-1.3 4 4 0 0 1-.22-1.38 2.44 2.44 0 0 1 0-.54 3.9 3.9 0 0 1 .18-.67 2.9 2.9 0 0 1 .31-.67 3.1 3.1 0 0 1 .58-.62 3.33 3.33 0 0 1 1.16-.72 5.45 5.45 0 0 1 1.7-.27h.71l.63.09.22.05.45.09h.22a.15.15 0 0 1 .14.13v1.52a.16.16 0 0 1-.14.18s-.09-.05-.09-.18a1.24 1.24 0 0 0-.36-.85 2.41 2.41 0 0 0-1.87-.58 2.45 2.45 0 0 0-1.7.58 2.5 2.5 0 0 0-.67 1.07 4.74 4.74 0 0 0-.18 1.3 3.53 3.53 0 0 0 .27 1.43 3.15 3.15 0 0 0 .72 1 2.67 2.67 0 0 0 1.92.85 2.08 2.08 0 0 0 1.65-.54 1.26 1.26 0 0 0 .31-.58c0-.13 0-.18.14-.18s0 0 0 .14v.53a5 5 0 0 1-.14.67.4.4 0 0 1-.22.27 3.27 3.27 0 0 1-.76.13 6.88 6.88 0 0 1-.89.09 5.71 5.71 0 0 1-1.79-.26zm8-5.5V269a.48.48 0 0 0-.4-.53 1.09 1.09 0 0 0-.36 0c-.08 0-.13 0-.13-.09s.05-.09.18-.09h4l.13-.05c.05 0 .09 0 .09.09v.31a2.56 2.56 0 0 0-.05.27v.45a.54.54 0 0 1 0 .18l-.05.05v-.05c-.05 0-.09 0-.09-.09v-.31a.43.43 0 0 0-.18-.22 1.18 1.18 0 0 0-.45-.14h-1.38c-.05 0-.09 0-.09.09v2.33c0 .08 0 .08.09.08h1.5a.72.72 0 0 0 .45-.13l.13-.09.05.05v.4l-.05.27v.62c0 .14 0 .18-.09.18a.09.09 0 0 1-.09-.09v-.13a.54.54 0 0 0 0-.18c0-.23-.22-.36-.54-.36h-1.36l-.05.09v2.14a.74.74 0 0 0 .23.58 1.61 1.61 0 0 0 .89.18h.4a1.13 1.13 0 0 0 .45-.09.79.79 0 0 0 .45-.67c0-.13 0-.17.09-.17s0 .08 0 .17a4.44 4.44 0 0 1-.09 1c0 .13-.22.22-.49.22h-3.71l-.18-.09s.05-.08.18-.08a1.77 1.77 0 0 0 .32-.05c.13 0 .22-.18.26-.49v-1.34zm13.36.18c0-.22 0-.31-.14-.31h-.17l-.32.14-.18.09h-.08l-.36.18h-.09a.2.2 0 0 1-.05-.09.16.16 0 0 1 .09-.14l1.66-1.07.53-.4a.41.41 0 0 1 .18-.05c.05 0 .09.05.09.18v6.12a.44.44 0 0 0 .39.49h.59l.09.14s-.05.09-.14.09h-3.08l-.13-.05v-.09h.36a2.71 2.71 0 0 0 .4 0 .45.45 0 0 0 .36-.49v-4.74zm9.82-.89a2.63 2.63 0 0 1 .59 1.78 4.39 4.39 0 0 1-.36 1.75 5.25 5.25 0 0 1-.9 1.34 6.72 6.72 0 0 1-1.11 1 6.17 6.17 0 0 1-1 .58h-.13a.08.08 0 0 1-.09 0 .14.14 0 0 1 0-.09l.09-.09a4.19 4.19 0 0 0 .8-.58 5.86 5.86 0 0 0 .76-.89 5.26 5.26 0 0 0 .58-1.25 4.66 4.66 0 0 0 .22-1.48 3.08 3.08 0 0 0-.4-1.78 1.12 1.12 0 0 0-1-.58 1 1 0 0 0-.76.4 1.46 1.46 0 0 0-.31 1 2.23 2.23 0 0 0 .13.85 1.77 1.77 0 0 0 .36.53 1.09 1.09 0 0 0 .4.27.84.84 0 0 0 .31.05h.45l.13-.05h.09l.13-.09h.14a.16.16 0 0 1-.05.14 1.58 1.58 0 0 1-1.2.44 1.77 1.77 0 0 1-1.43-.62 1.72 1.72 0 0 1-.45-1.16 2 2 0 0 1 .63-1.52 2.4 2.4 0 0 1 1.69-.63 2.12 2.12 0 0 1 1.7.67zm4.29 5.94a1.57 1.57 0 0 1-.62-1.34 1.77 1.77 0 0 1 .49-1.21 2.85 2.85 0 0 1 1.16-.8 3.26 3.26 0 0 1-.89-.67 1.46 1.46 0 0 1 .07-2.08 1.9 1.9 0 0 1 .67-.4 2.94 2.94 0 0 1 1-.14 2.28 2.28 0 0 1 1.34.36 1.21 1.21 0 0 1 .53 1 1.53 1.53 0 0 1-.44 1.11 2.22 2.22 0 0 1-.45.36 2.38 2.38 0 0 1-.45.23l.27.13.27.18a4.51 4.51 0 0 1 .54.44 2.27 2.27 0 0 1 .44.54 1.66 1.66 0 0 1 .14.76 1.78 1.78 0 0 1-.63 1.38 2.58 2.58 0 0 1-1.78.63 2.64 2.64 0 0 1-1.66-.45zm.81-.31a1.3 1.3 0 0 0 1.83 0 1.42 1.42 0 0 0 .4-1 1.49 1.49 0 0 0-.45-1.07 4.1 4.1 0 0 0-.53-.36l-.27-.17-.31-.18a2.14 2.14 0 0 0-.72.62 2 2 0 0 0-.36 1.12 1.48 1.48 0 0 0 .41 1zm1.69-5.68a.94.94 0 0 0-.71-.26 1 1 0 0 0-1.11.93.61.61 0 0 0 0 .14c0 .49.45.94 1.21 1.43l.13-.09.14-.05a1.31 1.31 0 0 0 .31-.27 1.42 1.42 0 0 0 .36-1 1.17 1.17 0 0 0-.32-.81zm5.23 6a1.58 1.58 0 0 1-.63-1.34 1.83 1.83 0 0 1 .5-1.21 2.85 2.85 0 0 1 1.16-.8 3.11 3.11 0 0 1-.94-.67 1.42 1.42 0 0 1-.36-1 1.51 1.51 0 0 1 .45-1.08 2 2 0 0 1 .71-.44 3 3 0 0 1 1-.14 2.28 2.28 0 0 1 1.34.36 1.21 1.21 0 0 1 .53 1.07 1.53 1.53 0 0 1-.49 1.12 2 2 0 0 1-.45.36 3.38 3.38 0 0 1-.44.18l.26.13.27.18a2.77 2.77 0 0 1 .58.44 2.14 2.14 0 0 1 .41.54 1.83 1.83 0 0 1 .17.76 1.75 1.75 0 0 1-.62 1.43 2.55 2.55 0 0 1-1.79.62 2.63 2.63 0 0 1-1.65-.49zm.76-.31a1.3 1.3 0 0 0 1.83 0 1.34 1.34 0 0 0 .36-1 1.48 1.48 0 0 0-.44-1.07 3.94 3.94 0 0 0-.45-.36l-.31-.17-.32-.18a2.11 2.11 0 0 0-.71.62 2 2 0 0 0-.36 1.12 1.46 1.46 0 0 0 .36 1zm1.74-5.68a.94.94 0 0 0-.71-.26 1 1 0 0 0-1.12.93v.14c0 .49.4.94 1.21 1.43l.13-.09.13-.05a1.35 1.35 0 0 0 .32-.27 1.43 1.43 0 0 0 .31-1 1.14 1.14 0 0 0-.27-.81z"/></g><path fill="url(#f)" d="M239.69 98.56l-13.79-6.01-15.46 6.01-16.85-6.01-14.4 6.01-11.59-6.01-12.29 6.01V18.19l84.59-.01-.21 80.38z" opacity=".8"/><path fill="url(#g)" d="M444.4.17l-49.19 28.07H0L156.93 0 444.4.17z"/><path fill="url(#h)" d="M444.62 257.52l-49.41 165.91V28.24L444.4 0v.17l.22 257.35z"/><path fill="#c58f68" d="M330.36 0l-90.33 28.24h-84.72L268.68 0h61.68z" opacity=".8"/></svg>