<svg xmlns="http://www.w3.org/2000/svg" viewBox="0 0 494.3 364.9"><defs><style>.cls-1{fill:#4e2f14}</style></defs><path class="cls-1" d="M478.1 282.7h-1.7l.1-13.7h4.2a4.9 4.9 0 0 1 2.4.6 3.2 3.2 0 0 1 1.2 1.3 4 4 0 0 1 .4 1.8 3.9 3.9 0 0 1-.3 1.6 4.8 4.8 0 0 1-.9 1.3 5 5 0 0 1-1.7 1 2.8 2.8 0 0 1 .7.5 4.5 4.5 0 0 1 .5.7l.5.9 2.1 4h-2l-1.8-3.6a8 8 0 0 0-1.8-2.3h-1.7zm.1-7.2h1.8a3.2 3.2 0 0 0 1.6-.4 2.3 2.3 0 0 0 1-1 3 3 0 0 0 .3-1.4 2.4 2.4 0 0 0-.3-1.1 2.3 2.3 0 0 0-.7-.9 3.1 3.1 0 0 0-1.7-.3h-2z"/><path class="cls-1" d="M481.3 262.7a13.2 13.2 0 1 0 13 13.3 13.3 13.3 0 0 0-13-13.3zm-.3 24.6a11.3 11.3 0 1 1 11.4-11.3 11.3 11.3 0 0 1-11.4 11.2z"/><path d="M357.9 68.2a68.2 68.2 0 0 1-45.5 64.3l-5 1.6c-17.5 5-39.3 7.8-66.3 7l-13.5 38c-5.8 16.2 8.6 22.3 17.2 7.1l14.5 10.5c-6.6 14-17.2 24-30.1 28.5-19 6.5-39.6 1-41.1-21.5-.8-11.2 10.4-40.7 18.6-63.6l-27.1-1 7.5-21.1 27 .8L224.4 90l.3-1 5.5-15.3.3-1 .5-1.3h34.7l-11.8 33v.2l-5.5 15.2a67.3 67.3 0 0 0 55.2-25.3 42.2 42.2 0 0 0 10-35.8v-.1a42.4 42.4 0 0 0-46.2-34.5 64.8 64.8 0 0 0-7.8.7 72.5 72.5 0 0 0-10 2.4 87.3 87.3 0 0 0-20.5 9.6l-1.3.9-4.5 3a142.7 142.7 0 0 0-26.5 25.7 255.8 255.8 0 0 0-21.3 30.3 218 218 0 0 0-28.3 77.7 214.3 214.3 0 0 0-3.7 31.9q-.6 8.1-1 16.3a251 251 0 0 0-44.6-16.9L168.3 7.1l38.5 1.2-14.9 42c27-32.3 57-46.5 84.9-49.6a108.6 108.6 0 0 1 12.9-.7c1.4 0 2.7 0 4.1.2a67.6 67.6 0 0 1 22.3 5 68.3 68.3 0 0 1 15.3 9 69.1 69.1 0 0 1 11.5 11.3 68 68 0 0 1 15 42.7z" fill="#fdb913"/><path class="cls-1" d="M21.5 274.1q9.6 0 13.8 5.3t4.1 13.6q0 8.3-4.1 13.6t-13.8 5.3h-8v19.6H0v-57.4zM19 306.8q7.1 0 7.1-13.8t-7.2-13.8h-5.4v27.6zm69.1 24.7H74.5v-25.3H58.9v25.3H45.3v-57.4h13.5v25.4h15.6v-25.4H88zm18.9-15.8l-4.5 15.8H95l16.7-57.4h15.6l17 57.5h-13l-4.6-15.9zm10-34.6l-8 27.9h15.8zm-3.5-14.3l10.2-16.8 7.7 9.1-15.3 10.8zm72 14.1h-14.2v50.6h-13.4v-50.6h-14.3v-6.8h41.8zm59.7 0h-14v50.6h-13.4v-50.6h-14.3v-6.8h41.7zm48.1 50.6h-13.7v-25.3H264v25.3h-13.5v-57.4H264v25.4h15.6v-25.4h13.7zm18.9-15.8l-4.6 15.8h-7.5l16.7-57.4h15.6l17 57.5h-13l-4.6-15.9zm.4-56.6l7.7-9 10 16.6-2.5 3zm9.5 22l-8 27.9h15.8zm78.6 50.4h-14l-23-42.6v42.6h-8v-57.4h14l23 42.7v-42.7h8zm55.1 0h-13.6v-25.3h-15.6v25.3h-13.5v-57.4h13.5v25.4h15.6v-25.4h13.6zM5.7 364.3a8.8 8.8 0 0 1-3.2-1.7 7.3 7.3 0 0 1-2-2.9 9.1 9.1 0 0 1-.5-3.1 7.1 7.1 0 0 1 .1-1.2 10.8 10.8 0 0 1 .4-1.5 6.9 6.9 0 0 1 .7-1.5 6.7 6.7 0 0 1 1.2-1.4 7.6 7.6 0 0 1 2.7-1.6 11.6 11.6 0 0 1 3.8-.6h1.6l1.4.2.5.1 1 .2h.5c.2 0 .3.2.3.3v1.1a4.6 4.6 0 0 0 0 .6v1.2a4.3 4.3 0 0 1 0 .5c0 .3-.2.4-.3.4s-.2-.1-.2-.4a2.8 2.8 0 0 0-.8-1.9c-.8-.9-2.2-1.3-4.2-1.3a5.5 5.5 0 0 0-3.8 1.3 5.3 5.3 0 0 0-1.5 2.4 9.6 9.6 0 0 0-.4 2.9 8.2 8.2 0 0 0 .6 3.2 7.2 7.2 0 0 0 1.6 2.2 6 6 0 0 0 4.1 1.9c1.8 0 3-.4 3.7-1.1a3 3 0 0 0 .7-1.4c0-.3.2-.4.3-.4s.2.1.2.3l-.2 1.2a11.3 11.3 0 0 1-.3 1.5 1 1 0 0 1-.5.6 7.8 7.8 0 0 1-1.7.4 16.3 16.3 0 0 1-2 0 13.3 13.3 0 0 1-3.8-.5zm19.6-.2a7.2 7.2 0 0 1-2.5-1.9 7.6 7.6 0 0 1-1.5-2.6 8.6 8.6 0 0 1 0-5.5 7.9 7.9 0 0 1 1.5-2.6 7.6 7.6 0 0 1 2.6-2 9.6 9.6 0 0 1 4-.7 8.5 8.5 0 0 1 6 2 7.2 7.2 0 0 1 2.2 5.6 8.1 8.1 0 0 1-8.5 8.4 9.1 9.1 0 0 1-3.8-.7zm6-.5a4 4 0 0 0 1.6-.9 5 5 0 0 0 1.3-2 10 10 0 0 0 .5-3.5 8.3 8.3 0 0 0-1.7-5.4 5.5 5.5 0 0 0-6-1.7 4.2 4.2 0 0 0-1.6 1 5 5 0 0 0-1.2 2 9.8 9.8 0 0 0-.4 3.1 8.4 8.4 0 0 0 1.6 5.4 5.5 5.5 0 0 0 4.6 2.3 4.8 4.8 0 0 0 1.3-.3zM48 360v1.2l.1 1.8c0 .7.3 1 .8 1.1a8 8 0 0 0 1 .1c.2 0 .4 0 .4.2s-.2.2-.5.2h-5.5c-.4 0-.5 0-.5-.2s0-.1.3-.1a3.6 3.6 0 0 0 .7-.1c.3 0 .5-.4.6-1.1v-12.4a1.1 1.1 0 0 0-.8-1.2 3.9 3.9 0 0 0-.8 0c-.2 0-.3-.1-.3-.2s.1-.2.4-.2h8.9a1.3 1.3 0 0 0 .3 0h.1a.5.5 0 0 1 .2 0l.1.2v.5a2 2 0 0 0-.2.4v.8a2.5 2.5 0 0 1 0 .3 1.7 1.7 0 0 1 0 .2 2.2 2.2 0 0 1 0 .3c0 .2 0 .3-.2.3s-.1 0-.2-.3v-.1a.7.7 0 0 0 0-.2 1 1 0 0 0 0-.5 1 1 0 0 0-.5-.4 2.3 2.3 0 0 0-1-.2h-3c-.2 0-.2 0-.2.2v5.3h3.2a2.7 2.7 0 0 0 .4 0 1.2 1.2 0 0 0 1-.3v-.2a.2.2 0 0 1 .2 0l.1.2v.4a.9.9 0 0 0 0 .2l-.1.6-.1 1.5q0 .4-.2.4c-.1 0-.2-.1-.2-.3a2 2 0 0 0-.1-.6.8.8 0 0 0-.4-.5 1.5 1.5 0 0 0-.7-.3h-3l-.1.2zm17.7 0v1.2l.1 1.8c.1.7.4 1 .8 1.1a8 8 0 0 0 1 .1c.3 0 .4 0 .4.2s-.2.2-.5.2h-5.6c-.4 0-.5 0-.5-.2s.1-.1.3-.1a3.6 3.6 0 0 0 .7-.1c.3 0 .5-.4.6-1.1l.1-1.8v-10.6a1.1 1.1 0 0 0-.9-1.2 3.7 3.7 0 0 0-.8 0c-.2 0-.3-.1-.3-.2s.1-.2.5-.2h8.8a1.4 1.4 0 0 0 .3 0h.1a.5.5 0 0 1 .2 0l.1.2v.5a2 2 0 0 0-.1.4v.8a2.5 2.5 0 0 1 0 .3 1.7 1.7 0 0 1 0 .2 2.2 2.2 0 0 1 0 .3c0 .2-.1.3-.2.3s-.2 0-.2-.3v-.1a1.3 1.3 0 0 0 0-.2 1 1 0 0 0-.1-.5 1 1 0 0 0-.5-.4 2.3 2.3 0 0 0-.9-.2H66c-.2 0-.2 0-.2.2v5.1l.1.2H69a2.7 2.7 0 0 0 .5 0 1.2 1.2 0 0 0 .8-.3l.2-.2c.2 0 .2 0 .2.2v.4a.9.9 0 0 0 0 .2l-.1.6-.1 1.5q0 .4-.2.4c-.1 0-.2-.1-.2-.3a2 2 0 0 0-.1-.6.8.8 0 0 0-.3-.5 1.5 1.5 0 0 0-.7-.3h-3.1l-.1.2zm15.2-8v-1.3a1.1 1.1 0 0 0-.9-1.2 3.7 3.7 0 0 0-.8 0c-.2 0-.3 0-.3-.2s.1-.2.4-.2h8.1a5.5 5.5 0 0 0 .8 0h.1l.3-.1.1.2-.1.7a4.7 4.7 0 0 0 0 .6l-.1 1a1 1 0 0 1 0 .4.3.3 0 0 1-.1.1.1.1 0 0 1-.1 0c-.2 0-.2 0-.2-.2a1.8 1.8 0 0 0 0-.3 2.6 2.6 0 0 0-.1-.4 1 1 0 0 0-.4-.5 2.6 2.6 0 0 0-1-.3 5.3 5.3 0 0 0-.5 0h-2.4l-.1.2v5.2l.1.2h2.6a4.4 4.4 0 0 0 .7 0 1.5 1.5 0 0 0 1-.3l.3-.2.1.1v.9l-.1.6-.1 1.4c0 .3 0 .4-.2.4a.2.2 0 0 1-.2-.2v-.3a1.8 1.8 0 0 0 0-.4c-.2-.5-.5-.8-1.2-.8h-2.9l-.1.2v4.8c0 .7.2 1.1.5 1.3a3.8 3.8 0 0 0 2 .4h.9a2.7 2.7 0 0 0 1-.2 1.8 1.8 0 0 0 1-1.5c0-.3 0-.4.2-.4s.1.2.1.4a9.7 9.7 0 0 1-.2 2.3c-.1.3-.5.5-1.1.5h-8.3l-.4-.2c0-.1.1-.2.3-.2a3.6 3.6 0 0 0 .8-.1c.3 0 .5-.4.6-1.1v-3zm17.9 0v-1.3a1.1 1.1 0 0 0-.9-1.2 3.7 3.7 0 0 0-.8 0c-.2 0-.3 0-.3-.2s.1-.2.4-.2h8.2a5.7 5.7 0 0 0 .8 0h.1l.3-.1v.9a4.7 4.7 0 0 0 0 .6l-.2 1a1 1 0 0 1 0 .4.3.3 0 0 1 0 .1.1.1 0 0 1-.2 0l-.1-.2v-.3a2.6 2.6 0 0 0-.2-.4 1 1 0 0 0-.3-.5 2.6 2.6 0 0 0-1-.3 5.3 5.3 0 0 0-.6 0h-2.3l-.1.2v5.2l.1.2h2.6a4.4 4.4 0 0 0 .7 0 1.6 1.6 0 0 0 1-.3l.3-.2.2.1-.1.9v.6l-.2 1.4c0 .3 0 .4-.2.4a.2.2 0 0 1-.1-.2v-.3a1.8 1.8 0 0 0-.1-.4c-.1-.5-.5-.8-1.2-.8h-2.9v5a1.7 1.7 0 0 0 .4 1.3 3.8 3.8 0 0 0 2 .4h.7a2.7 2.7 0 0 0 1-.2 1.8 1.8 0 0 0 1-1.5c0-.3 0-.4.2-.4s.1.2.1.4a9.7 9.7 0 0 1-.2 2.3c-.1.3-.5.5-1.1.5h-8.3l-.4-.2c0-.1.1-.2.3-.2a3.6 3.6 0 0 0 .8-.1c.3 0 .5-.4.6-1.1v-3zm28.1 0v-1.3a1.1 1.1 0 0 0-1-1.2 3.7 3.7 0 0 0-.7 0c-.2 0-.3 0-.3-.2s.1-.2.4-.2h5.7a9.8 9.8 0 0 1 2 .1 5 5 0 0 1 1.7.7 3.2 3.2 0 0 1 1 1 3.6 3.6 0 0 1 .4 1.8 4.5 4.5 0 0 1-.5 2.2 8.4 8.4 0 0 1-2.2 2.4l2.5 3 2 2.4a5.5 5.5 0 0 0 1.4 1.1l.3.1a.8.8 0 0 0 .2 0l.2.1h.2a3.5 3.5 0 0 0 .5.1c.2 0 .3 0 .3.2s-.1.2-.4.2h-2a4.7 4.7 0 0 1-2.2-.4 5.4 5.4 0 0 1-1.3-1.1l-1.5-2-2-2.7a.5.5 0 0 0-.4-.2h-1.7c-.1 0-.2 0-.2.2v4.6c.2.7.4 1 .9 1.2a8.6 8.6 0 0 0 1 0c.2 0 .2 0 .2.2s-.1.2-.4.2h-5.5l-.4-.1c0-.1.1-.2.3-.2a3.6 3.6 0 0 0 .8 0c.3-.1.5-.5.6-1.2v-3zm2.4 4.7q0 .3.2.4a4.9 4.9 0 0 0 1.5.2 2.5 2.5 0 0 0 1.5-.4 2.5 2.5 0 0 0 .8-1 4.8 4.8 0 0 0 .4-2 4.6 4.6 0 0 0-.3-1.9 3 3 0 0 0-.8-1.1 3 3 0 0 0-2-.8 4.8 4.8 0 0 0-1.1 0 .3.3 0 0 0-.2.4zm19.8 7.4a7.1 7.1 0 0 1-2.6-1.9 7.5 7.5 0 0 1-1.5-2.6 8.4 8.4 0 0 1 0-5.5 7.7 7.7 0 0 1 1.5-2.6 7.6 7.6 0 0 1 2.7-2 9.6 9.6 0 0 1 3.9-.7 8.5 8.5 0 0 1 6 2 7.3 7.3 0 0 1 2.2 5.6 8.1 8.1 0 0 1-8.5 8.4 9 9 0 0 1-3.7-.7zm6-.5a4 4 0 0 0 1.5-.9 5 5 0 0 0 1.3-2 10.3 10.3 0 0 0 .5-3.5 8.2 8.2 0 0 0-1.7-5.4 5.3 5.3 0 0 0-4.2-2 5.4 5.4 0 0 0-1.8.3 4.3 4.3 0 0 0-1.6 1 4.9 4.9 0 0 0-1.2 2 9.8 9.8 0 0 0-.5 3.1 8.4 8.4 0 0 0 1.7 5.4 5.5 5.5 0 0 0 4.6 2.3 4.8 4.8 0 0 0 1.3-.3zm14.9-4.4l-.2.2-1.1 3a3.6 3.6 0 0 0-.3 1.2c0 .4.3.6.8.6h.3c.2 0 .3 0 .3.2s0 .2-.3.2H167a.3.3 0 0 1-.1 0h-2c-.3 0-.4-.2-.4-.3l.3-.2h.6a1.6 1.6 0 0 0 1-.6 4.6 4.6 0 0 0 .7-1.2l5.2-12.8c.2-.6.4-.8.6-.8s.3.2.5.6c0 .3.4 1 .8 2l3 7.5 1.3 3a5.8 5.8 0 0 0 1 1.8 1.7 1.7 0 0 0 .4.4 1.4 1.4 0 0 0 .3.1 4.8 4.8 0 0 0 .9 0c.2 0 .3 0 .3.3s-.3.2-1 .2H176l-.1-.2.3-.2a.3.3 0 0 0 .1-.1.4.4 0 0 0 0-.3l-1.6-4.3a.2.2 0 0 0-.2-.2zm4.2-1l-1.8-5.1v-.2s-.2 0-.2.2l-1.9 5 .1.1zm13.1 6.1a.7.7 0 0 1-.3-.7V361c0-.4.1-.5.3-.5s.2 0 .2.3a3.7 3.7 0 0 0 .2 1 2.7 2.7 0 0 0 1.1 1.6 3.1 3.1 0 0 0 1.8.5 2.8 2.8 0 0 0 2-.7 2.2 2.2 0 0 0 .7-1.6 3.1 3.1 0 0 0-.3-1.5 6 6 0 0 0-1.7-1.8l-1-.7a9.6 9.6 0 0 1-2.3-2.5 4.5 4.5 0 0 1-.6-2.4 3.5 3.5 0 0 1 1.2-2.8 5.2 5.2 0 0 1 3.5-1 10.9 10.9 0 0 1 1.6 0l.6.2.5.1c.2 0 .3.1.3.3v2.4c0 .4 0 .6-.2.6s-.2-.1-.2-.4v-.2a1.5 1.5 0 0 0-.1-.3 2.5 2.5 0 0 0-.4-.8l-.3-.3a2.6 2.6 0 0 0-.5-.4 3 3 0 0 0-1.5-.3c-1.6 0-2.4.7-2.4 2a2.3 2.3 0 0 0 .4 1.4 8 8 0 0 0 1.8 1.6l.5.5q3.4 2.5 3.4 5.2a4.3 4.3 0 0 1-.4 1.8 4.2 4.2 0 0 1-1.5 1.7 5.3 5.3 0 0 1-1.6.7 7.1 7.1 0 0 1-1.7.2 7.5 7.5 0 0 1-3-.6zm20.8-14h-3c-1.1 0-1.8.3-2 .6a2.6 2.6 0 0 0-.4.7c0 .2-.1.3-.2.3s-.2-.1-.2-.3a3.7 3.7 0 0 1 0-.5l.2-.8.2-1 .3-.5a.4.4 0 0 1 .1 0h.2a.7.7 0 0 0 .2.2 2 2 0 0 0 .3 0 19 19 0 0 0 2 .1h8.1a7.6 7.6 0 0 0 .9 0h.3l.8-.1c.1 0 .2.1.2.4v2.4q0 .3-.3.3c-.1 0-.2-.1-.2-.4v-.2a1 1 0 0 0-.5-.8 3.8 3.8 0 0 0-1.9-.4h-2.6v10.9l.1 1.8c0 .7.3 1 .8 1.1a8 8 0 0 0 1 .1c.2 0 .3 0 .3.2s-.1.2-.4.2h-5.8l-.4-.1c0-.1.1-.2.4-.2a3.8 3.8 0 0 0 .7-.1c.3 0 .5-.4.6-1.1v-3zm16.8 1.7v-1.3a1.1 1.1 0 0 0-.9-1.2 3.9 3.9 0 0 0-.8 0c-.2 0-.3 0-.3-.2s.1-.2.4-.2h8.1a5.5 5.5 0 0 0 .9 0l.3-.1.1.2v.7l-.1.6-.1 1a1 1 0 0 1 0 .4.3.3 0 0 1 0 .1.1.1 0 0 1-.2 0c-.1 0-.2 0-.2-.2a1.8 1.8 0 0 0 0-.3 2.6 2.6 0 0 0-.1-.4 1 1 0 0 0-.4-.5 2.6 2.6 0 0 0-1-.3 5.4 5.4 0 0 0-.5 0h-2.4l-.1.2v5.2l.1.2h2.6a4.6 4.6 0 0 0 .7 0 1.6 1.6 0 0 0 1-.3l.3-.2.1.1v.9l-.1.6-.1 1.4c0 .3 0 .4-.2.4a.2.2 0 0 1-.2-.2v-.7c-.2-.5-.6-.8-1.2-.8h-2.9l-.1.2v4.8c0 .7.1 1.1.4 1.3a3.8 3.8 0 0 0 2 .4h1a2.7 2.7 0 0 0 1-.2 1.8 1.8 0 0 0 .9-1.5c0-.3 0-.4.2-.4s.2.2.2.4a9.2 9.2 0 0 1-.3 2.3c-.1.3-.5.5-1.1.5h-8.2c-.3 0-.4-.1-.4-.2l.3-.2a3.8 3.8 0 0 0 .7-.1c.3 0 .5-.4.6-1.1v-3zm18 0l-.1-1.3a1.1 1.1 0 0 0-.9-1.2 3.9 3.9 0 0 0-.8 0c-.2 0-.3 0-.3-.2s.1-.2.4-.2h5.7a10 10 0 0 1 2 .1 5 5 0 0 1 1.8.7 3.2 3.2 0 0 1 .9 1 3.6 3.6 0 0 1 .5 1.8 4.5 4.5 0 0 1-.6 2.2 8.4 8.4 0 0 1-2.1 2.4l2.4 3 2 2.4a5.5 5.5 0 0 0 1.5 1l.2.2a.8.8 0 0 0 .3 0l.2.1h.1a3.7 3.7 0 0 0 .6 0c.1 0 .2 0 .2.3s-.1.2-.4.2h-2a4.8 4.8 0 0 1-2.1-.4 5.4 5.4 0 0 1-1.3-1.1c-.4-.4-.9-1-1.5-2l-2-2.7a.5.5 0 0 0-.4-.2h-1.8l-.1.2v4.6c.1.7.4 1 .9 1.2a8.8 8.8 0 0 0 1 0c.1 0 .2 0 .2.2s-.1.2-.4.2h-5.5l-.4-.1c0-.1.1-.2.3-.2a3.8 3.8 0 0 0 .8 0c.3-.1.5-.5.6-1.2v-3zm2.4 4.7q0 .3.2.4a4.9 4.9 0 0 0 1.5.2 2.5 2.5 0 0 0 1.5-.4 2.6 2.6 0 0 0 .8-1 4.8 4.8 0 0 0 .4-2 4.6 4.6 0 0 0-.3-1.9 2.9 2.9 0 0 0-.8-1.1 3 3 0 0 0-2-.8 4.8 4.8 0 0 0-1 0 .3.3 0 0 0-.3.4zm16.9 7.6a.7.7 0 0 1-.4-.7V361c0-.4.1-.5.3-.5s.2 0 .2.3a4 4 0 0 0 .2 1 2.7 2.7 0 0 0 1.1 1.6 3.1 3.1 0 0 0 1.8.5 2.8 2.8 0 0 0 2-.7 2.1 2.1 0 0 0 .7-1.6 3.1 3.1 0 0 0-.3-1.5 6.1 6.1 0 0 0-1.7-1.8l-1-.7a9.8 9.8 0 0 1-2.3-2.5 4.5 4.5 0 0 1-.6-2.4 3.5 3.5 0 0 1 1.3-2.8 5.2 5.2 0 0 1 3.4-1 10.9 10.9 0 0 1 1.6 0l.6.2.5.1c.2 0 .3.1.3.3v2.4c0 .4 0 .6-.2.6s-.2-.1-.2-.4v-.2a1.5 1.5 0 0 0-.1-.3 2.5 2.5 0 0 0-.4-.8l-.3-.3a2.6 2.6 0 0 0-.5-.4 3 3 0 0 0-1.5-.3c-1.6 0-2.4.7-2.4 2a2.3 2.3 0 0 0 .4 1.4 7.9 7.9 0 0 0 1.8 1.6l.5.5q3.4 2.5 3.4 5.2a4.3 4.3 0 0 1-.4 1.8 4.2 4.2 0 0 1-1.5 1.7 5.3 5.3 0 0 1-1.6.7 7.2 7.2 0 0 1-1.7.2 7.5 7.5 0 0 1-3-.6zm27 0a.7.7 0 0 1-.4-.7V361c0-.4.2-.5.3-.5s.2 0 .2.3a4 4 0 0 0 .2 1 2.7 2.7 0 0 0 1.2 1.6 3.1 3.1 0 0 0 1.7.5 2.8 2.8 0 0 0 2-.7 2.2 2.2 0 0 0 .8-1.6 3.2 3.2 0 0 0-.4-1.5 6.2 6.2 0 0 0-1.6-1.8l-1-.7a10 10 0 0 1-2.3-2.5 4.5 4.5 0 0 1-.7-2.4 3.5 3.5 0 0 1 1.3-2.8 5.2 5.2 0 0 1 3.4-1 10.8 10.8 0 0 1 1.7 0l.5.2.5.1c.2 0 .3.1.3.3v2.4c0 .4 0 .6-.2.6s-.2-.1-.2-.4v-.2a1.5 1.5 0 0 0-.1-.3 2.5 2.5 0 0 0-.4-.8l-.3-.3a3 3 0 0 0-.5-.4 3 3 0 0 0-1.5-.3c-1.6 0-2.4.7-2.4 2a2.3 2.3 0 0 0 .5 1.4 8.1 8.1 0 0 0 1.7 1.6l.6.5q3.3 2.5 3.3 5.2a4.2 4.2 0 0 1-2 3.5 5.4 5.4 0 0 1-1.5.7 7.2 7.2 0 0 1-1.7.2 7.5 7.5 0 0 1-3-.6zm18-12.3v-1.3c0-.7-.3-1-.7-1.1a3 3 0 0 0-.7-.1q-.4 0-.4-.2c0-.1.2-.2.5-.2h5.2c.3 0 .4.1.4.2s0 .2-.3.2a3.9 3.9 0 0 0-.6.1c-.5 0-.7.5-.8 1.2v12.4c.1.6.4 1 .9 1a8.2 8.2 0 0 0 1 0c.2 0 .3 0 .3.2s-.1.2-.4.2h-5.7l-.4-.1c0-.1 0-.2.3-.2a3.6 3.6 0 0 0 .7 0c.3-.1.5-.5.6-1V360.2zm15.4 9.7c0 1.5.3 2.2.7 2.4a3.4 3.4 0 0 0 1 .1c.3 0 .4 0 .4.2s-.1.2-.5.2h-4.7c-.4 0-.4-.1-.4-.2s0-.2.3-.2a3.7 3.7 0 0 0 1-.1c.3-.1.5-1 .5-2.5l.2-12.1c0-.5.1-.7.3-.7a.5.5 0 0 1 .3.1l.2.2 2.4 2.6 6.8 7 .4.4a.5.5 0 0 1 .2.2l1.2 1.3h.1l-.2-9.2c0-1-.2-1.7-.7-1.9a1.9 1.9 0 0 0-.5 0h-.6c-.2 0-.3-.1-.3-.2s.2-.2.5-.2h4.6c.3 0 .5 0 .5.2s-.1.1-.4.1a2.6 2.6 0 0 0-.6.1c-.5.1-.7.7-.7 1.7l-.3 13c0 .4 0 .6-.2.6s-.4-.2-.7-.5l-1.2-1.1-4.9-4.8-1.7-1.7-3.2-3.5zm26.7 2.6a8.9 8.9 0 0 1-3.1-1.7 7.3 7.3 0 0 1-2-2.9 9.1 9.1 0 0 1-.5-3.1 7.1 7.1 0 0 1 0-1.2 10.8 10.8 0 0 1 .4-1.5 6.9 6.9 0 0 1 .7-1.5 6.7 6.7 0 0 1 1.3-1.4 7.6 7.6 0 0 1 2.6-1.6 11.6 11.6 0 0 1 3.8-.6h1.6l1.4.2.5.1 1 .2h.5c.2 0 .3.2.3.3v2.9a4.3 4.3 0 0 1 0 .5c0 .3-.2.4-.3.4s-.2-.1-.2-.4a2.8 2.8 0 0 0-.8-1.9c-.8-.9-2.2-1.3-4.2-1.3a5.5 5.5 0 0 0-3.8 1.3 5.4 5.4 0 0 0-1.5 2.4 9.6 9.6 0 0 0-.4 2.9 8 8 0 0 0 .6 3.2 7 7 0 0 0 1.6 2.2 6 6 0 0 0 4.3 1.9c1.8 0 3-.4 3.7-1.2a3 3 0 0 0 .7-1.3c0-.3.1-.4.3-.4s.1 0 .1.3l-.1 1.2a11.3 11.3 0 0 1-.3 1.5 1 1 0 0 1-.5.6 7.8 7.8 0 0 1-1.7.3 16.3 16.3 0 0 1-2 .2 13.3 13.3 0 0 1-4-.6zm17.9-12.3v-1.3a1.1 1.1 0 0 0-.9-1.2 3.7 3.7 0 0 0-.8 0c-.2 0-.3 0-.3-.2s.1-.2.4-.2h8.2a5.7 5.7 0 0 0 .8 0l.3-.1c.1 0 .2 0 .2.2l-.1.7a4.7 4.7 0 0 0-.1.6v1a1 1 0 0 1 0 .4.3.3 0 0 1-.1.1.1.1 0 0 1-.2 0c-.1 0-.2 0-.2-.2v-.3a2.6 2.6 0 0 0 0-.4 1 1 0 0 0-.4-.5 2.6 2.6 0 0 0-1-.3 5.3 5.3 0 0 0-.6 0h-2.3c-.1 0-.2 0-.2.2v5.2c0 .2 0 .2.2.2h2.6a4.4 4.4 0 0 0 .7 0 1.6 1.6 0 0 0 1-.3l.3-.2.1.1v.9l-.1.6-.1 1.4c0 .3 0 .4-.2.4a.2.2 0 0 1-.2-.2v-.3a1.8 1.8 0 0 0 0-.4c-.1-.5-.5-.8-1.2-.8h-2.9l-.1.2v4.8a1.7 1.7 0 0 0 .5 1.3 3.8 3.8 0 0 0 2 .4h.9a2.7 2.7 0 0 0 1-.2 1.8 1.8 0 0 0 1-1.5c0-.3 0-.4.2-.4s.1.2.1.4a9.7 9.7 0 0 1-.2 2.3c-.1.3-.5.5-1.1.5h-8.3l-.4-.2c0-.1.1-.2.4-.2a3.6 3.6 0 0 0 .7-.1c.3 0 .5-.4.6-1.1v-3zm29.9.4c0-.5 0-.7-.3-.7a1.5 1.5 0 0 0-.4.1 6.7 6.7 0 0 0-.7.3l-.4.2h-.2l-.8.4h-.1a.2.2 0 0 1-.1 0 .3.3 0 0 1-.1-.2.3.3 0 0 1 .2-.3l3.7-2.4 1.2-.9a.7.7 0 0 1 .4-.1c.1 0 .2.1.2.4l-.1 3.2v10.5a1 1 0 0 0 .9 1.1h1.3l.2.3c0 .1-.1.2-.3.2h-6.9l-.3-.1.1-.2h.8a6.2 6.2 0 0 0 .9-.1 1 1 0 0 0 .8-1.1v-4.6zm22-2a5.8 5.8 0 0 1 1.3 4 9.5 9.5 0 0 1-.8 3.9 11.8 11.8 0 0 1-2 3 16 16 0 0 1-2.5 2.3 15 15 0 0 1-2.3 1.3.8.8 0 0 1-.3 0 .2.2 0 0 1-.2-.1.3.3 0 0 1 0-.2l.2-.2a10 10 0 0 0 1.8-1.3 12.8 12.8 0 0 0 1.7-2 11.4 11.4 0 0 0 1.3-2.8 10.6 10.6 0 0 0 .5-3.3 7 7 0 0 0-.9-4 2.6 2.6 0 0 0-2.2-1.3 2.2 2.2 0 0 0-1.7.9 3.4 3.4 0 0 0-.7 2.2 5.2 5.2 0 0 0 .3 1.9 3.8 3.8 0 0 0 .8 1.2 2.6 2.6 0 0 0 .9.6 1.9 1.9 0 0 0 .7.1 3.7 3.7 0 0 0 .9 0 1.1 1.1 0 0 0 .3-.1l.2-.1.3-.2a.3.3 0 0 1 .1 0l.2.1a.3.3 0 0 1-.1.3 3.5 3.5 0 0 1-2.7 1 4 4 0 0 1-3.2-1.4 3.9 3.9 0 0 1-1-2.6 4.4 4.4 0 0 1 1.4-3.4 5.4 5.4 0 0 1 3.8-1.4 4.8 4.8 0 0 1 3.9 1.6zm9.6 13.3a3.5 3.5 0 0 1-1.4-3 4 4 0 0 1 1.1-2.7 6.5 6.5 0 0 1 2.6-1.8 7.3 7.3 0 0 1-2-1.5 3.3 3.3 0 0 1 .2-4.7 4.5 4.5 0 0 1 1.5-.9 6.7 6.7 0 0 1 2.2-.3 5 5 0 0 1 3 .8 2.7 2.7 0 0 1 1.2 2.3 3.5 3.5 0 0 1-1 2.5 4.9 4.9 0 0 1-1 .8 4.8 4.8 0 0 1-1 .5l.6.3.6.4a7.3 7.3 0 0 1 1.2 1 4.6 4.6 0 0 1 1 1.2 3.8 3.8 0 0 1 .3 1.7 4 4 0 0 1-1.4 3.1 5.8 5.8 0 0 1-4 1.4 6 6 0 0 1-3.7-1zm1.8-.7a2.9 2.9 0 0 0 4.1 0 3.1 3.1 0 0 0 .9-2.2 3.3 3.3 0 0 0-1-2.4 8 8 0 0 0-1.2-.8 6.3 6.3 0 0 0-.6-.4l-.7-.4a5 5 0 0 0-1.6 1.4 4.3 4.3 0 0 0-.8 2.5 3.2 3.2 0 0 0 .9 2.3zm3.8-12.7a2.1 2.1 0 0 0-1.6-.6 2.3 2.3 0 0 0-2.5 2.4c0 1.1 1 2.1 2.7 3.2l.3-.2.3-.1a4.1 4.1 0 0 0 .7-.6 3.2 3.2 0 0 0 .8-2.3 2.5 2.5 0 0 0-.7-1.8zm11.7 13.4a3.5 3.5 0 0 1-1.4-3 4 4 0 0 1 1.1-2.7 6.5 6.5 0 0 1 2.6-1.8 7 7 0 0 1-2.1-1.5 3.2 3.2 0 0 1-.8-2.2 3.3 3.3 0 0 1 1-2.4 4.5 4.5 0 0 1 1.6-1 6.7 6.7 0 0 1 2.2-.3 5 5 0 0 1 3 .8 2.7 2.7 0 0 1 1.2 2.4 3.5 3.5 0 0 1-1.1 2.5 5 5 0 0 1-1 .8 5.2 5.2 0 0 1-1 .4l.6.3.6.4a7.3 7.3 0 0 1 1.3 1 4.6 4.6 0 0 1 .9 1.2 3.8 3.8 0 0 1 .4 1.7 4 4 0 0 1-1.4 3.2 5.8 5.8 0 0 1-4 1.4 6 6 0 0 1-3.7-1.1zm1.7-.7a2.9 2.9 0 0 0 4.2 0 3 3 0 0 0 .8-2.2 3.3 3.3 0 0 0-1-2.4 8 8 0 0 0-1-.8 6.3 6.3 0 0 0-.7-.4l-.7-.4a5 5 0 0 0-1.6 1.4 4.3 4.3 0 0 0-.8 2.5 3.2 3.2 0 0 0 .8 2.3zm3.9-12.7a2.1 2.1 0 0 0-1.6-.6 2.3 2.3 0 0 0-2.5 2.4c0 1.1.9 2.1 2.7 3.2l.3-.2.3-.1a4.1 4.1 0 0 0 .7-.6 3.2 3.2 0 0 0 .7-2.3 2.5 2.5 0 0 0-.6-1.8z"/></svg>
