<svg xmlns="http://www.w3.org/2000/svg" viewBox="0 0 260 227.75"><title>logo-icon</title><path d="M260,68.2a68.19,68.19,0,0,1-45.5,64.3l-5,1.6c-17.5,5-39.3,7.8-66.3,7l-13.5,38c-5.8,16.2,8.6,22.3,17.2,7.1l14.5,10.5c-6.6,14-17.2,24-30.1,28.5-19,6.5-39.6,1-41.1-21.5-.8-11.2,10.4-40.7,18.6-63.6l-27.1-1L89.2,118l27,.8L126.5,90l.3-1,5.5-15.3.3-1,.5-1.3h34.7l-11.8,33v.2l-5.5,15.2a67.27,67.27,0,0,0,55.2-25.3,42.22,42.22,0,0,0,10-35.8v-.1a42.41,42.41,0,0,0-46.2-34.5,65.7,65.7,0,0,0-7.8.7,72.77,72.77,0,0,0-10,2.4,87.74,87.74,0,0,0-20.5,9.6l-1.3.9-4.5,3A142.39,142.39,0,0,0,98.9,66.4,256.25,256.25,0,0,0,77.6,96.7a218.09,218.09,0,0,0-28.3,77.7,213.81,213.81,0,0,0-3.7,31.9q-.6,8.1-1,16.3A252,252,0,0,0,0,205.7L70.4,7.1l38.5,1.2L94,50.3C121,18,151,3.8,178.9.7A109,109,0,0,1,191.8,0a28.15,28.15,0,0,1,4.1.2,67.67,67.67,0,0,1,22.3,5,68.41,68.41,0,0,1,15.3,9A69.46,69.46,0,0,1,245,25.5,68,68,0,0,1,260,68.2Z" style="fill:#fdb913;fill-rule:evenodd"/></svg>
