<svg xmlns="http://www.w3.org/2000/svg" viewBox="0 0 14.33 16.14"><title>espresso</title><path d="M11.69,16.14H1a1,1,0,0,1-1-1V1A1,1,0,0,1,1,0H11.69a1,1,0,0,1,1,1V2.53a.2.2,0,0,1,0,.11l-1,1.24A.17.17,0,0,1,11.5,4h-8A.47.47,0,0,0,3,4.41v9a.46.46,0,0,0,.46.45h9a.18.18,0,0,1,.18.18v1.18a1,1,0,0,1-1,1ZM.36,2.59V15.18a.6.6,0,0,0,.6.6H11.69a.59.59,0,0,0,.59-.6v-1H3.46a.82.82,0,0,1-.82-.81v-9a.82.82,0,0,1,.82-.82h8l.78-1Zm0-.36H12.28V1a.59.59,0,0,0-.59-.6H1a.6.6,0,0,0-.6.6V2.23ZM11.44,13.15a1,1,0,0,0,1-1v-.73h1a1,1,0,0,0,.95-1V7.79a1,1,0,0,0-.95-1h-1V5.61a.18.18,0,0,0-.18-.18H4.07a.21.21,0,0,0-.17.1.19.19,0,0,0,0,.19L4.71,6.8v5.39a1,1,0,0,0,1,1Zm-7-7.36L5,6.63a.2.2,0,0,1,0,.11v5.45a.59.59,0,0,0,.59.59h5.78a.59.59,0,0,0,.6-.59V5.79Zm8,5.31h1a.59.59,0,0,0,.59-.6V7.79a.59.59,0,0,0-.59-.59h-1v3.9Zm-1,.76h0a.18.18,0,0,0,.19-.18.18.18,0,0,0-.18-.18H8.14a.18.18,0,0,0,0,.36Zm0-1.17h0a.18.18,0,0,0,.19-.18.18.18,0,0,0-.18-.18H8.14a.18.18,0,0,0,0,.36Zm0-1.16h0a.18.18,0,0,0,.19-.18.18.18,0,0,0-.18-.18H8.14a.18.18,0,0,0,0,.36Zm0-1.17h0a.18.18,0,0,0,.19-.18A.18.18,0,0,0,11.38,8H8.14a.18.18,0,1,0,0,.36Zm0-1.16h0A.18.18,0,0,0,11.56,7a.18.18,0,0,0-.18-.18H8.14a.18.18,0,0,0,0,.36Zm.38-5.87a.3.3,0,1,0-.6,0,.3.3,0,0,0,.6,0Z" style="fill:#000001;fill-rule:evenodd"/></svg>