<svg xmlns="http://www.w3.org/2000/svg" viewBox="0 0 11.85 20.55"><title>french-press</title><path d="M5.09,10.74H1.94v3.89a.78.78,0,0,1,.67-.81H5.09V10.74Zm1.23,0H9.6v3.91c0-.42-.18-.83-.55-.83H6.32V10.74ZM9,20.55H2.52a.94.94,0,0,1-.94-.94V9.71L0,7.45a.17.17,0,0,1,0-.18.17.17,0,0,1,.16-.09h9.6a.18.18,0,0,1,.17.17V9.74h1a.93.93,0,0,1,.93.93v4.44a.94.94,0,0,1-.93.94H10v3.58a.82.82,0,0,1-.93.92Zm-8.5-13H9.6v12.1c0,.48-.2.57-.58.57H2.52a.59.59,0,0,1-.58-.59v-10a.21.21,0,0,0,0-.1l-1.38-2ZM10,15.7h1a.59.59,0,0,0,.58-.59V10.68a.58.58,0,0,0-.58-.59H10V15.7ZM3.09,18.6h0a.38.38,0,1,0-.38.38.38.38,0,0,0,.38-.38Zm1.53,0h0a.37.37,0,0,0-.37-.37.38.38,0,1,0,0,.75.37.37,0,0,0,.37-.38Zm1.54,0h0a.38.38,0,1,0-.38.38.38.38,0,0,0,.38-.38Zm1.53,0h0a.38.38,0,1,0-.38.38.38.38,0,0,0,.38-.38Zm-3.83,1h0a.38.38,0,1,0-.38.38.38.38,0,0,0,.38-.38Zm1.53,0h0A.38.38,0,0,0,5,19.18a.38.38,0,0,0,0,.76.38.38,0,0,0,.38-.38Zm1.53,0h0a.38.38,0,1,0-.38.38.38.38,0,0,0,.38-.38Zm1.54,0h0a.38.38,0,1,0-.38.38.38.38,0,0,0,.38-.38Zm.76-1h0a.38.38,0,1,0-.38.38.38.38,0,0,0,.38-.38ZM3.09,16.45a.38.38,0,1,1-.38-.38.38.38,0,0,1,.38.38Zm1.53,0a.37.37,0,0,1-.37.37.38.38,0,1,1,0-.75.37.37,0,0,1,.37.38Zm1.54,0h0a.38.38,0,1,0-.38.37.38.38,0,0,0,.38-.37Zm1.53,0h0a.38.38,0,1,0-.38.37.38.38,0,0,0,.38-.37Zm-3.83.95h0a.38.38,0,1,0-.38.38.38.38,0,0,0,.38-.38Zm1.53,0h0A.38.38,0,0,0,5,17a.38.38,0,0,0,0,.76.38.38,0,0,0,.38-.38Zm1.53,0h0a.38.38,0,1,0-.38.38.38.38,0,0,0,.38-.38Zm1.54,0h0a.38.38,0,1,0-.38.38.38.38,0,0,0,.38-.38Zm.76-.95a.38.38,0,1,0-.75,0,.38.38,0,0,0,.75,0Z" style="fill:#000001;fill-rule:evenodd"/><path d="M5.75,14.6a.18.18,0,0,1-.18-.18V6.48a.18.18,0,0,1,.36,0v7.94a.18.18,0,0,1-.18.18Z" style="fill:#000001;fill-rule:evenodd"/><path d="M5.75,5.36a.18.18,0,0,1-.18-.18V2.06a.18.18,0,0,1,.36,0V5.18a.18.18,0,0,1-.18.18Z" style="fill:#000001;fill-rule:evenodd"/><path d="M5.75,2.18A1.09,1.09,0,1,0,4.66,1.09,1.09,1.09,0,0,0,5.75,2.18Zm0-1.82A.73.73,0,1,1,5,1.09.73.73,0,0,1,5.75.36Z" style="fill:#000001;fill-rule:evenodd"/><path d="M9.22,15.63a.18.18,0,0,0,.18-.18v-.26a.9.9,0,0,0-.85-.94H3a.9.9,0,0,0-.84.94v.26a.18.18,0,0,0,.18.18Zm-6.76-.35H9v-.1a.54.54,0,0,0-.49-.58H3a.54.54,0,0,0-.49.58v.1Z" style="fill:#000001;fill-rule:evenodd"/><path d="M9.78,6.66h0A.18.18,0,0,0,10,6.48V5.94A1,1,0,0,0,9,5H2.52a.94.94,0,0,0-.94.94v.54a.18.18,0,0,0,.18.18ZM1.94,6.31H9.6V5.94A.58.58,0,0,0,9,5.36H2.52a.58.58,0,0,0-.58.58v.37Z" style="fill:#000001;fill-rule:evenodd"/></svg>