<svg xmlns="http://www.w3.org/2000/svg" viewBox="0 0 9.53 18.63"><title>phin</title><path d="M6.69,18.63H1.89A.94.94,0,0,1,1,17.69V11.22A.18.18,0,0,1,1.13,11H7.45a.18.18,0,0,1,.18.18v1.21h1a.94.94,0,0,1,.94.94V16a.94.94,0,0,1-.94.94h-1v.72a.94.94,0,0,1-.94.94ZM1.31,11.4v6.29a.58.58,0,0,0,.58.58h4.8a.58.58,0,0,0,.58-.58V11.4Zm6.32,5.22h1A.59.59,0,0,0,9.17,16V13.37a.59.59,0,0,0-.58-.59h-1v3.84Zm.77-6.13H.18A.18.18,0,0,1,0,10.31V9a.18.18,0,0,1,.18-.17h1L0,3.63a.16.16,0,0,1,0-.15.15.15,0,0,1,.14-.07H8.4a.17.17,0,0,1,.14.07.19.19,0,0,1,0,.15L7.42,8.84h1A.18.18,0,0,1,8.58,9v1.3a.18.18,0,0,1-.18.18Zm-8-.36H8.22V9.19H.36v.94ZM1.5,8.84H7.05L8.18,3.77H.4L1.5,8.84Zm3-6.74a.78.78,0,0,1-.78-.78A.81.81,0,0,1,3.79,1L4.36.09A.16.16,0,0,1,4.51,0h0a.16.16,0,0,1,.15.09L5.21,1s0,0,0,0a.88.88,0,0,1,.07.32.78.78,0,0,1-.78.78Zm0-1.58-.4.66a.46.46,0,0,0,0,.14.42.42,0,0,0,.42.42.42.42,0,0,0,.42-.42.41.41,0,0,0,0-.16Z" style="fill:#000001;fill-rule:evenodd"/><path d="M1.15,16.83s0,1.13,0,1.21a.89.89,0,0,0,.52.3c.19,0,4.92,0,5,0s.54-.11.62-.28a6.14,6.14,0,0,0,0-1.22Z" style="fill:#000001;fill-rule:evenodd"/></svg>