<svg xmlns="http://www.w3.org/2000/svg" viewBox="0 0 45.65 15.45"><title>dc-title</title><path d="M14.07.15a1.43,1.43,0,0,1,1.25.51l.21.08V1h0l-.13,0V1h.09a.38.38,0,0,0,.16.29v.08h.13l-.05-.2V1.12h.09l.08.29,0,.05a1,1,0,0,0,.29.63l0,.05v0l0,.05,0,.21,0,.18,0,0v0l0,0a5.71,5.71,0,0,1-.5,2.19l0,0h-.05l.05,0v0l-.17.43h.09l.2-.22h.05v.12c-.09,0-.13,0-.13.1h.08v0L16,5.44l0,0h0l.62,0,.05.12,0,0h.05l0,0v.05l-.72.16V5.69h-.08l.05,0v0l-.05,0H16l-.09-.09c-.48.11-.71.22-.71.34s-.17.08-.17.22l-.13,0V6.4l.05,0v0c-.09,0-.13.07-.13.21l-.16.09,0,0v0c0,.06-.05.09-.16.09s-.11.3-.33.5l0,0c-.61.73-1,1.09-1.17,1.09l0,.13-.41.38c0,.08,0,.12-.13.12l0,0v0l0,0c-.2.06-.3.16-.3.29l-.45.16,0,0v.05c0,.05-.06.08-.17.08l0,0v0l0,0-.29.22h.13v0l-.09.08-.13,0c0,.06.06.09.17.09v0l0,0q0,.09-.21.09c0,.19-.19.29-.5.29l0,0v-.08h.08v0h0l-.21,0v.08h.08l0,.17.12,0v.08l-.51.13.06,0v0l0,0h.08v.09l-.5.17,0,0h0l-.12,0v-.09h.12v-.12l-.37.18,0,.12,0,0h0l0,.16,0,0L8.77,12l0,0v.08H8.72l0-.21h0c.09,0,.14,0,.14-.08v0L8.14,12l0,0v0c0,.06-.06.09-.17.09v.08l-.25-.17,0,0H7.59l-.2-.21.05,0v0l-.22-.56,0,0v0l0,0v0l0-.12a1,1,0,0,0-.47-.3v-.09H6.56v0l0,0v0c-.12,0-.35-.2-.71-.59-.08,0-.18-.14-.3-.43q-.07,0-.33-.51l0,0v0l-.12,0,0,0v0L5.1,8.52l0-.13,0-.12h0l0-.17-1,.17,0,0v0l-2.55.62h0c0-.07-.08-.12-.25-.17v0l0,0H1.13L.75,8.23l0,0c-.2,0-.44-.4-.71-1.2V6.7L0,6.45l.08-.56,0,0a.41.41,0,0,1,.38-.24l0-.05.37.08L1,5.56l.38.08.16-.12.42.09,0-.05H2l0,.05.5-.09.25.12,0,0h0l.17,0,0,0h0l.17,0,0,0h0l0,0h.05l.13,0,.16,0,0,0,.29,0h.54l.17,0,.12,0,0,0,.21,0,.41,0v0c.45-.06.67-.23.67-.5a3.79,3.79,0,0,0,.64-.76c.55-.57.83-.92.83-1.06L7.68,3.2c.4-.49.64-.73.72-.73l0,0h0l0,0,.2,0h.09a18.35,18.35,0,0,1,3.39-2A6.29,6.29,0,0,1,14.07.15ZM5.3,8.23v.33l.08.17h.13V8.64h0l0-.29V8.19L5.43,8.1Zm.8,0,0,0v0a1.12,1.12,0,0,0-.08.46V8.9h0q.08,0,.21-.63l0,0V8.05C6.18,8.07,6.1,8.12,6.1,8.19Zm0,.87h0L6.18,9h0Zm.34-3.62v.17h0c.06,0,.18-.13.37-.39l.1.08-.06.06H6.9L7,5.22l0,0c.14,0,.2,0,.2-.13l0-.13h0l.26-.09-.05,0v0c.34-.35.51-.59.51-.71l0-.25H7.77c-.09,0-.21.18-.33.45-.11,0-.24.1-.38.31-.11,0-.31.27-.59.81ZM7.9,7.68C7.9,7.9,7.61,8,7,8L7,8v0c-.29,0-.44.1-.46.3H6.43v0l0,0v0l0,.12,0,0-.08.08v.13l0,.17,0,.16v.09a.12.12,0,0,1,.13.13H6.6V9.11L6.52,9V8.73l.12-.13h.05l-.05.21.05.13L6.64,9V9l.16.46,0,0v0c.24.29.41.43.5.43A1.49,1.49,0,0,0,8,9.66v0l0,0v0l.09-.3,0,0v0l0,0v0l0-.2,0-.13,0-.05v0l0,0v0l0-.12,0-.25V8.1l0-.22L8.1,7.8C8,7.8,8,7.76,8,7.68ZM7.59,5.3l.06.14q-.18.06-.18.12l0,.05h.13a.7.7,0,0,0,.41-.43L8,5l0,0H7.93Zm-.07-1h.13l-.09.09h0Zm4.42,1.94v0l0,0h0l-.38,0-1.68.43V6.7l.33,0,.42.08L11,6.66l0,0v0c0,.07-.34.2-1,.38,0,.13-.31.26-.91.39a1.18,1.18,0,0,0-.21.8l0,.16L8.9,9v.08l-.09.08,0,0v.09l0,0v0H8.9a11.61,11.61,0,0,1,1.38-.84s.13-.13.41-.25c0-.12.17-.22.43-.3a9.55,9.55,0,0,0,1.75-1.82v0l-.34.08-.25-.08ZM13.32.4c0,.12-.07.17-.21.17L13,.49H13c0,.07-.06.11-.18.13L12.66.57V.7h-.05l-.12,0v0c0,.08-.14.13-.42.17,0,0-.17.1-.51.17q0,.16-.78.42c0,.1-.14.2-.42.29V1.8l0-.05H10.2c0,.17-.1.25-.3.25l0,.06H9.77a.18.18,0,0,1-.21.2l-.29.13c0,.15-.08.22-.25.22v.16l.09.09h.08l.16-.13,0,0h0l.42-.13-.09-.13.37-.12,0-.05V2.26c.07,0,.11-.06.11-.17l.06.05h.08l.08-.08h-.08V2l.16,0,.17,0h0l.42-.28c-.17,0-.26,0-.26-.09l.06,0h0l0,0h0l.12,0,.08.08h.09a2.86,2.86,0,0,1,.84-.34c0-.08.05-.12.16-.12l0-.13,0,0h0C12.82,1.05,13,1,13,1h.34V.87h.34V.82A.28.28,0,0,1,13.44.7l-.37.09h0l.41-.22,0-.17ZM13.2,1.46l-.13-.08h0l0,0v.05a.78.78,0,0,1-.46.13l0,0c0,.08-.11.12-.25.12V1.59h-.09c0,.14-.18.25-.53.33l0,0V2a.66.66,0,0,0-.34.3c-.25.07-.37.15-.37.25h0V2.47h-.1l.06,0v0l-.51.22,0,0v.08h-.12V2.81h0c0,.14-.1.22-.3.25,0,.15-.1.22-.29.22v0l0,0v0a.29.29,0,0,0-.21.3q-.12,0-.12.09v0h0l.47-.38h.2c0-.14.14-.28.42-.43l.17,0,0,0V3l0,0h0l.08.17c-.2.08-.3.17-.3.25a1.32,1.32,0,0,0-.58.29h.09l-.3.22-.5.47a2.78,2.78,0,0,0-.21.71l0,.13,0,0v0l0,0v.06l0,.16.63,0h.59l.16,0,.17,0H11l0,.05,0-.05h0l.54.05.59-.05,0,.05,0-.05h.49l.06,0h0l.08.09L13,5.52l.21,0c.2,0,.43-.22.66-.67A3.83,3.83,0,0,0,14.62,4L15,3.49,15.21,3l.16-.63,0-.13.09-.09a.65.65,0,0,0-.29-.5l-.34.08c0-.11,0-.16-.08-.16l-.8.21V1.67h-.08v.05l0,0V1.8h-.13V1.72h-.25V1.67l0,0v0l0-.18h-.05l-.2.05c0-.07,0-.11.17-.13v0h-.13S13.2,1.35,13.2,1.46ZM9.06,10.17c0,.06,0,.08.13.08l.25-.08v-.09h0Zm.55,1.52v.08l-.17,0v-.08Zm.08-1.9c0,.06,0,.08-.13.08l0,.05v0h.08l.2-.09v0ZM9.9,9.7l0,0v0H10Zm0-.25,0,0v0l0,0v0h.17l.09-.09v0h-.06l0,0h0L10,9.4l0,0Zm.13,1.69v.08h.13l.12-.12h0Zm.25-1.77h.16V9.23Zm.12-.26v.08h.08l.13-.08h.08v.08c-.11,0-.17,0-.17.09h0l.2,0,0-.2,0,0h-.08Zm.37-.21h.08l.14,0v0h-.14Zm1-6.64.08.25c-.31.08-.46.16-.46.26l0,0h-.13l.05,0v.09l-.2.08h-.23v0a.36.36,0,0,1,.34-.25C11.23,2.5,11.43,2.37,11.82,2.26Zm-.7,6.34.07.08,0,0v0Zm.15-.08V8.6h.05l.17-.13h-.05Zm.29-.25v.08h0l.09-.08Zm.09.88v0h0l.12,0v0h0Zm.58-7.09s0,.08.13.08l0,0v.05l-.2.08-.09-.13Zm1-.51h0v.08l0,0,0,.05v0a.58.58,0,0,1-.58.39c0-.15.12-.32.37-.51Zm-.37,5.57v0h0L13,7V7Zm.37-.5v0h.12l0,0v0h0Zm.54-6,0,.13h.12V.57Zm0,.76,0,0v0h.12Zm.13-.59V.79l.16,0,0,0V.74Zm.2-.17A.12.12,0,0,1,14.2.7l0,0h0l0-.17.08.09,0,0,0,0q.11,0,.21-.21l-.29,0h-.17Zm.17,7.06h.09v0l-.13.2h-.09C14.14,7.72,14.19,7.63,14.24,7.63Zm.17-6.25v0l.21,0v0l-.08.14h.16l0-.26-.12,0C14.48,1.28,14.41,1.32,14.41,1.38Zm.45.17v.12L15,1.55Z"/><path d="M15.87,7a4.27,4.27,0,0,1,.69.17c.41,0,.67.1.78.29a1.14,1.14,0,0,1,.08.4,2.08,2.08,0,0,1-.3.74,3.89,3.89,0,0,1-.24.6,2.58,2.58,0,0,0-.2.78l0,.15c0,.2,0,.3-.07.3s-.07-.06-.08-.17a.14.14,0,0,1-.08-.11l0,0V10l0,0,0,0a1.29,1.29,0,0,0,.17.62c0,.1.15.19.46.27h.09a.92.92,0,0,0,.68-.38c.15-.38.28-.57.38-.57l.06-.05c.13,0,.21.1.25.28v.1c0,.08-.09.21-.27.41s-.53.41-.67.53a1.81,1.81,0,0,1-.74.27.78.78,0,0,1-.57-.23v0s0,0,0,0a.92.92,0,0,0,.3.11h.27c.19,0,.29-.08.29-.12v-.05s0,0-.05,0l-.18,0a1.24,1.24,0,0,1-.75-.24c-.1,0-.17-.07-.23-.2l-.11-.5a3.31,3.31,0,0,0-.58,1,4.49,4.49,0,0,1-.68.83l-.48.35a.56.56,0,0,1-.27.08c-.24,0-.42-.25-.56-.74a2.32,2.32,0,0,1-.06-.57v-.06a3.53,3.53,0,0,1,.28-1.27,5.13,5.13,0,0,1,1.12-2c.59-.63,1-1,1.15-1Zm-1.34,4.73v0l0,0c.06,0,.19-.14.37-.43a8.41,8.41,0,0,0,1-1.74l0-.24h0c-.08,0-.27.21-.58.62a6.51,6.51,0,0,0-.53,1.11A2.53,2.53,0,0,0,14.53,11.68Zm1.07.54,0,0v0a.8.8,0,0,0-.05.22h0l.11-.07h0a.61.61,0,0,1,0,.17v0s0,0,.06.09,0,.09,0,.09h0l.06,0,0,0v.08c0,.05,0,.08.13.1a.41.41,0,0,1,.06.19.73.73,0,0,0,.13.17c0,.07.05.11.09.11s.05.07.05.2v.08l0,.16h0s0,.06-.12.09l-.12.21a.17.17,0,0,0-.08.13v.1c0,.07-.05.11-.13.14l-.16,0h-.06s-.13-.06-.26-.19l-.15,0h-.16a1.87,1.87,0,0,1-.36-.23s-.05-.06-.09-.17-.1-.06-.1-.1v-.15l0-.12.06-.06v-.15a.11.11,0,0,1,.09-.11,1.47,1.47,0,0,0,.42-.4.93.93,0,0,0,.22-.31s0,0,.06-.12a.45.45,0,0,0,.11-.15l.05-.1Zm.75-1.76v.08a.47.47,0,0,0,.24.42A1.46,1.46,0,0,0,17,11l.11,0,0,0h-.23a2.22,2.22,0,0,1-.3-.24l-.14-.29h0Zm.32,0h0l0,0v.06h0l0,0Zm.66.72v0h0l0,0,0,0h0Z"/><path d="M18.94,8h.11a.56.56,0,0,1,.23.06h.16l.12.1.22.07a.42.42,0,0,1,.22.2.6.6,0,0,1,.17.21l0,.13a1.86,1.86,0,0,1-.13.52l-.14.19s-.05.08-.08.22a.86.86,0,0,0-.16.36q-.21.17-.21.24a.21.21,0,0,1-.07.14,2.26,2.26,0,0,1-.07.34l0,.11,0,.09,0,.07a.23.23,0,0,0,0,.09h0a.13.13,0,0,1,0,.08s0,.05-.06.09h0l0,.1,0,.08v.2s0,0,0,.09v.06l0,0a0,0,0,0,0,0,0h0l0,.1s0,0,0,0,0,0,0-.14v-.07l0-.19v0l0,0s0,0,0,.07l-.05,0h0v0h0s0,0,0-.09h0s-.06-.06-.08-.06v.08a.15.15,0,0,0,0,.09l0,.3v0c0,.05,0,.07-.06.07l0-.05h0v.25l-.13,0h0v-.08a1,1,0,0,0,0-.2V12h0s0,.06-.06.17a.48.48,0,0,0-.05.22s0,0,0,.05l0,.08v.11l0,.07,0,0h0s0,0,0-.08v0l0,0a0,0,0,0,1-.05,0s0,0,0,0,0-.05,0-.05a.74.74,0,0,1,0-.25v0l0-.11h0v.29l0,0,0,0h0s0,0,0,0v-.18a.48.48,0,0,0-.09-.19.67.67,0,0,0-.07-.34h0l-.06,0s-.06,0-.06,0v0l.06,0v0a.51.51,0,0,0-.07-.14v-.17a3.74,3.74,0,0,0-.05-.45c0-.3,0-.48-.06-.52V10.2l-.07-.44A1.2,1.2,0,0,1,18,9.33s0-.05,0-.17,0-.05-.07-.05a1.74,1.74,0,0,0-.22.26h0V9a.41.41,0,0,0,.07-.12l0-.07a1.48,1.48,0,0,1,.26-.3c0-.06,0-.12.13-.18s0-.09.1-.1a.33.33,0,0,1,.24-.1h.17Zm.26-2.55c.81.09,1.21.59,1.21,1.49a.88.88,0,0,1-1.21.62l-.09-.24H18.7V7.12a2.07,2.07,0,0,1-.81-.72l.14.1a2.51,2.51,0,0,0,.5-.48l.35-.29.23-.15Zm-.79,6.27a.06.06,0,0,1,0,.06.14.14,0,0,1-.09,0v0A.14.14,0,0,1,18.41,11.76Zm0,.26h0v0l0,0h0v0Zm0,.2h0s0,0,0,.13v.05a.31.31,0,0,0,0,.12h0l-.06,0a.09.09,0,0,1,0-.07.41.41,0,0,1,0-.16S18.39,12.22,18.41,12.22Zm.08.39h0l0,0h0l0,0,0,0Zm0,.12,0,0c0,.07,0,.11,0,.11h0l0,0,0,0v-.07Zm0,.17h0v0h0Zm0,.32,0,0v0h0v0A0,0,0,0,1,18.54,13.22Zm.07-.49c.07,0,.1.06.1.11V13h0v-.09c0-.05,0-.08-.05-.08h0v0l0,0a.11.11,0,0,1-.05-.09A.1.1,0,0,1,18.61,12.73Zm0,.62h0v0l0,0v0Zm0,.17h0l0,0s0,.07,0,.07h0v-.06Zm0,.31h0v0l0,0h0v-.06Zm.07-.89h0v0s0,0,0,0h0S18.62,12.94,18.64,12.94Zm0,.14h0v0h0v0Zm.09.23h0a.21.21,0,0,1,0,.11v.14h0s-.05,0-.06-.09,0-.18.06-.18Zm0-.26h0s0,0,0,.14,0,.06,0,.06a.05.05,0,0,1,0,0Zm0,.86h0l0,0v0s0,0,0,0l0,0v0Zm0,.12h0l0,0,0,0Zm0-1.64h0v0h0v0Zm0,.15h0l0,0v0h0l0,0v0Zm.06,1.25h0l0,0h0Zm0-1.27h0v.09h0s0,0,.06,0h0v0s0,.06-.06.06,0,0-.06-.05v-.07Zm0,.58v0h0v0h0Zm0,.28h0s0,0,0,0h0v0h0s0,0,0,0,0,0-.05,0v0Zm0-.46,0,0V13h0v-.05Zm0,.09v0c0,.08,0,.12,0,.12l0-.14h0Zm0,.23h0v0l0,0h0v-.07Zm.06-.49h0v0c0,.05,0,.08-.06.08h0v0C18.88,12.78,18.9,12.75,18.94,12.75Zm0,.79h0s0,.06,0,.06h0l0,0v0Zm0-1.11h0l0,0v0l0,0h0l0,0v0Zm0,.57h0v0l0,0h0l0,0v0Zm0,.93h0v0h0Zm0-.18h0l0,0h0Zm0-.48h0l0,0a.09.09,0,0,1,0,.06v-.06Zm0,.27h0l0,0v0h0v0Zm0-1.15v0l0,0Zm0,1.27v0h0l0,0h0Zm0-1.38h0v0h0v0h0Zm.17.11h0v0l0,0h0Z"/><path d="M32.74,3.47l-.31-.17a1.59,1.59,0,0,1-.43.13,3.2,3.2,0,0,0-.53.09c-.41.23-.66.36-.75.4a1.58,1.58,0,0,1-.46.12,4.73,4.73,0,0,0-.62.14,2.63,2.63,0,0,0-.37.19l-.41.12a1,1,0,0,0-.38.2l-.72.56a1.89,1.89,0,0,0-.59.63C27.06,5.92,27,6,27,6l.06,0s0,0,0,.05a1.09,1.09,0,0,0-.6.63s0,0,0,.15l-.11.05a.24.24,0,0,0-.09.2l0,.06v0a3.93,3.93,0,0,0-.52,1.44,3.15,3.15,0,0,0-.06.37,11.31,11.31,0,0,0,.17,1.17s.06.13.17.35a1.49,1.49,0,0,0,.7.68,3.53,3.53,0,0,0,.62.28,6.58,6.58,0,0,0,2.67.31,13.9,13.9,0,0,0,2.85-.61,11.67,11.67,0,0,0,1.28-.58,10.45,10.45,0,0,1,1.06-.49c.34-.05.5,0,.47,0a11.49,11.49,0,0,1-2.78,1.71l.09,0-.5.16a5.12,5.12,0,0,1-.58.18,2.9,2.9,0,0,0-.6.17l-.54.12-.64,0-.49,0-.89,0a1.87,1.87,0,0,1-.64-.08,1.57,1.57,0,0,0-.45-.11l-.1,0a.92.92,0,0,1-.32-.19L27.1,12s0,0,0,.07,0,0,0,0v0L26.85,12l-.61-.31a2.44,2.44,0,0,1-.55-.54l-.18-.19v-.09s-.07-.08-.13-.2l-.06,0A2.46,2.46,0,0,1,25,9.42l0,0h0l0,0a1.82,1.82,0,0,0,.18,1,3.29,3.29,0,0,0,.59.89,3.84,3.84,0,0,0,.48.44l.24.12s.05.05,0,.05a.2.2,0,0,1-.13,0,2.17,2.17,0,0,1-.7-.52,2.16,2.16,0,0,1-.52-.64L24.8,10a2.24,2.24,0,0,1,0-.34,1.73,1.73,0,0,1,0-.32s0,0,0-.07a7.87,7.87,0,0,1,0-.82,10.76,10.76,0,0,1,.39-1.53,1,1,0,0,1,.17-.35l.15,0,0,0,1.18-1.68L27,4.53l-.06,0v0l0,0a.18.18,0,0,1,.08,0h0a1.93,1.93,0,0,1,.39-.33,1.63,1.63,0,0,0,.35-.36l0,0h-.07s0,0,0-.07A.44.44,0,0,1,28,3.53l.22-.07,0,0c0-.07.09-.17.17-.31a1.32,1.32,0,0,1,.32-.24L29,2.74l.19-.22,1.09-.8c.15-.12.3-.24.46-.35l0,0a.14.14,0,0,0,.21.1L32.31.88c.21-.08.32-.15.34-.22a.11.11,0,0,0,0-.08l0,0q1.39-.61,1.71-.48A.22.22,0,0,0,34.44,0c.08,0,.18,0,.31.14A.84.84,0,0,1,35,.79a2.25,2.25,0,0,0-.06.36l.32.89c0,.11,0,.27.08.48a.57.57,0,0,1,0,.22,1.05,1.05,0,0,0,0,.18,5.63,5.63,0,0,1-.08.76.56.56,0,0,1-.17.26l-.22.18a.28.28,0,0,1-.24.06L34.11,4s0-.09,0-.22,0-.19,0-.2a.84.84,0,0,0-.2-.11L33,3.58l-.3.16-.48,0c-.3,0-.45,0-.44,0a1.55,1.55,0,0,1,.49-.13C32.6,3.55,32.76,3.5,32.74,3.47Zm-7.23,6.78h0v0a.06.06,0,0,0,0-.07h-.06a.17.17,0,0,0,0,.1Zm1.34-4.92V5.26l0,0h0l.29-.36v0a.3.3,0,0,0-.08-.07l-.07.06a12.57,12.57,0,0,0-1.33,1.83,1,1,0,0,0-.08.23.08.08,0,0,0,0,.09,0,0,0,0,0,.07,0,.68.68,0,0,0,0-.13A4.24,4.24,0,0,0,26,6.43c0-.09.28-.43.71-1A.23.23,0,0,0,26.85,5.33Zm-.69,6h.06v0a.09.09,0,0,0,0-.06l-.05,0,0,0v0Zm.16,0h0l0,0v0l0,0h-.06C26.26,11.21,26.27,11.24,26.32,11.27Zm.22.21a.21.21,0,0,0-.11-.21c-.05,0-.07,0-.07,0a.23.23,0,0,0,.15.2S26.53,11.5,26.54,11.48Zm.13.56h0l-.08,0v0s0,0,.08,0h.05V12Zm0-.54s.05,0,.05-.05a0,0,0,0,0,0,0,.06.06,0,0,0-.08,0,0,0,0,0,0,0,.06l0,0Zm.09-4.93s0,.08-.05.08a.12.12,0,0,1-.07,0v0s0,0,.08,0Zm.06-.11a.05.05,0,0,1,0,.06h0v0l.06,0h0ZM27,11.67l0,0a.11.11,0,0,0,0-.08s-.05,0-.08,0,0,0,0,.07S27,11.67,27,11.67Zm.32-7.54v0l.05,0h0s0,0,0,.06Zm6.15-.48s.06,0,.18-.06a.84.84,0,0,1,.2,0s0,0,0,.06l-.2.06-.2,0,0,0Z"/><path d="M37.24,7a4.27,4.27,0,0,1,.69.17c.41,0,.68.1.79.29a1.12,1.12,0,0,1,.07.4,2.08,2.08,0,0,1-.3.74,4.49,4.49,0,0,1-.23.6,2.31,2.31,0,0,0-.2.78v.15q0,.3-.06.3s-.07-.06-.09-.17a.13.13,0,0,1-.07-.11l0,0V10l0,0,0,0a1.42,1.42,0,0,0,.17.62c0,.1.15.19.46.27h.1a.9.9,0,0,0,.67-.38c.15-.38.28-.57.38-.57l.07-.05c.13,0,.21.1.24.28v.1c0,.08-.09.21-.26.41s-.54.41-.68.53a1.78,1.78,0,0,1-.73.27.75.75,0,0,1-.57-.23v0s0,0,.05,0a.85.85,0,0,0,.3.11h.26q.3-.06.3-.12v-.05s0,0,0,0l-.19,0a1.29,1.29,0,0,1-.75-.24c-.09,0-.17-.07-.23-.2l-.11-.5a3.56,3.56,0,0,0-.58,1,4.49,4.49,0,0,1-.68.83l-.47.35a.57.57,0,0,1-.28.08c-.23,0-.42-.25-.55-.74a2.32,2.32,0,0,1-.06-.57v-.06a3.72,3.72,0,0,1,.27-1.27A5.17,5.17,0,0,1,36,7.9c.59-.63,1-1,1.15-1Zm-1.57-.28a2.22,2.22,0,0,1,.18-1.47,1.15,1.15,0,0,1,.51.08.29.29,0,0,1,.2-.15l.18.22a.3.3,0,0,0,0-.21l.13.16V5.2A.4.4,0,0,0,37.26,5l.28,0,.21-.12V4.64l.07.16.1-.21.07.1a3,3,0,0,1,.7-.45l-.05-.14.07.1L38.87,4c.15,0,.23,0,.24-.16s.06,0,.09.06a5.3,5.3,0,0,1,.64-.44L40,3.42l.1-.12.2,0c-.05-.11.13-.26.55-.45a2.88,2.88,0,0,0,.6-.31l.19-.06.26-.11-.17.25a1.2,1.2,0,0,0-.58.41L41,3a2.38,2.38,0,0,1-.69.51l-.16.08-.27.19-.1,0a.26.26,0,0,1-.2.14l-.46.38-.2.28q.21-.51-.36.18a.55.55,0,0,1-.45.25v.13l-1.45.93-.3.21a2.72,2.72,0,0,1-.43.36l-.17,0Zm.24,5v0l0,0c.06,0,.18-.14.36-.43a8.78,8.78,0,0,0,1-1.74l0-.24h0c-.08,0-.28.21-.59.62a6.69,6.69,0,0,0-.52,1.11A2.17,2.17,0,0,0,35.91,11.68Zm1.81-1.22v.08A.46.46,0,0,0,38,11a1.46,1.46,0,0,0,.4.07l.1,0v0h-.23a1.87,1.87,0,0,1-.31-.24l-.14-.29h0Zm.32,0h0l0,0v.06h0l0,0Zm.66.72v0h0l0,0,0,0h0Zm3.21-8.62c.13-.31.2-.34.22-.09Z"/><path d="M40.28,3.66a2,2,0,0,1,.59,1.08,9.55,9.55,0,0,0-.12,1.64c0,.1.09.18.24.26,2.15.08,3.65.19,4.49.3h.17v.11l-2,.22.26,0a.27.27,0,0,1,.25.2c0,.09-.21.17-.63.27,0,.17-.32.29-1,.35a2.34,2.34,0,0,1-1.43.51.54.54,0,0,0-.43.21l0,2.05v1.69a7.71,7.71,0,0,0,.17,1.79v.36c-.19.52-.35.77-.46.77s-.22-.19-.31-.56l0-3V11.2l0-1.13h0a5.3,5.3,0,0,0-.51,1l-.34.16V11.2l.38-.88A6.37,6.37,0,0,0,40,9l-.42-.56-.13-.77c0-.54.11-.82.34-.82a1.73,1.73,0,0,0,.47-1.38,6.29,6.29,0,0,0-.18-1.29A.61.61,0,0,1,40.28,3.66Z"/></svg>