<svg xmlns="http://www.w3.org/2000/svg" viewBox="0 0 44.99 25.16"><title>lp-title</title><path d="M2.41,0c.09,0,.24.1.48.3A4,4,0,0,1,3.4,1a.57.57,0,0,1,.25.33c.05,0,.08.07.1.21s.07.11.09.33l0,0a1.47,1.47,0,0,1-.41.78c0,.08-.07.16-.22.21S3.19,3,3.08,3l0,0v0s0,.05-.12.05l0,.09,0,.13q-.11,0-.45.9a2.63,2.63,0,0,0-.41,1,4.9,4.9,0,0,0-.25,1c-.09,0-.13,0-.13.09l.06.06q-.08,0-.09.15h0c.06,0,.1,0,.1.06s-.17.1-.17.24l0,.12,0,.09,0,.18-.07.06v.13h.1s0,.08-.13.08V8c-.08,0-.13.06-.13.17l.1-.05,0,0-.07.18,0,0V8.5l0,0,0,0v.07H1.52V8.16h0l-.06.39,0,.13,0,0,0,0L1.39,9l0,0v0l0,.19h.07l.06-.06,0,0,0,0h.07l0,.15v.31l0,.11,0,.16h0l0-.27h0l0,0V9.28h0s-.07.05-.09.15l.06.06,0,.13h0L1.3,9.55V9.31l0-.33,0-1.06h0V8.5h0l0,0c0,.32-.08.5-.13.53l.07.1v.57l0,.21h0l0,0v.09l0,.12,0,.12.1,0v-.13l0-.12,0-.12,0-.18.09-.06h0v.19l0,0,0,0v0l0,0,.07.45,0,0h0q-.12-.06-.12-.12h0v.15c.06,0,.1,0,.1.06l-.07.08v.22a1.36,1.36,0,0,0,.07.54l0,0,.07.57h0l.15.61,0,.09.06.05,0,0,.16.73h0l.58,2.26h.06l-.26-1v0c.07,0,.17.37.32,1.11l0,0h0l0,0,.5,1.73s.06.07.1.21h.06l-.06-.21h.06A1.37,1.37,0,0,1,3,18s-.06,0-.06-.08H2.89v0L3.3,19h.07v0l-.07-.08v-.13h.07l.19.54,0,0h.06l-.06.06,0,0v.09l-.09,0A28.83,28.83,0,0,0,5.88,24l.51.64,0,0h.06l0,0h0l.1-.09,0-.1h0s.07,0,.1-.17H6.8v.09l0,0h.06v.06h0a1.93,1.93,0,0,1,.12-.57l0,0v0l.16-.45h.06v0l0,0v0l0,0v0l0,.12q0,.27.06.27h0l0,.33v0h0v-.08h.06v0a.47.47,0,0,0-.13.24l0,0h0l-.26.6H7c0,.05-.07.1-.22.15v0l-.16,0h-.1V25l-.12,0A.56.56,0,0,0,6.06,25v0l0,0v0c-.11,0-.16,0-.16-.06l0-.12H6l.18.18,0,0h.09l0,0h0l0-.09h.06c0-.05,0-.07.09-.07l0,0v0H6.51l0,0h0c-.19,0-.49-.37-.9-1l0,0v0l0,0h0l-.07-.06,0-.09-.29-.42v0l0,0,0-.12L5.05,23,5,22.78h.06l0,0v0l0,0H5l-.13-.19v0h.06c0-.05,0-.08-.13-.09v0h0l0-.15,0,0,0,0,0,0H4.61l-.29-.55,0-.12,0,0h0v-.05l-.13-.22h0v.06c-.07,0-.15-.15-.25-.45a12.2,12.2,0,0,1-.86-1.77h0a2.68,2.68,0,0,0,.29.75v0l0,0c0,.06,0,.09.1.09l0,0v0c.12.3.21.46.28.48v0l0,0v0l0,0h0l0,.09s-.07-.06-.09-.18h0l0,.15,0,.12.06.06h.13v0c-.09,0-.13,0-.13-.06l.06-.06.19.12,0,.1.16.32.06.06,0,0v0a4.27,4.27,0,0,1,.71,1.24,10.13,10.13,0,0,1-.84-1.36H3.81v0l0-.09-.09-.06,0,0c.29.59.61,1.17.95,1.75l0,0s.08,0,.08.06l0,0v0c0,.12.12.18.2.18l0,0v0a8.52,8.52,0,0,0,.76,1.06v0H5.62a10.75,10.75,0,0,1-1.33-1.95,9.21,9.21,0,0,1-.67-1.17L3.49,21h0v-.18H3.37l.5,1.06H3.78v-.1H3.72v.1h.06v0l0,0v0l.09,0V22h.07l.09.09,0,0H3.91l0,0h0v.1h0l-.25-.36h0v0c0-.05,0-.07.12-.07l-.06-.12,0-.08L3.27,21l0,0H3.15v0l.06-.07,0,0,0,0-.06-.12,0,0h0l.1,0,0,0v0s-.06,0-.06-.09l-.16,0v0c0-.06,0-.09-.1-.09A.66.66,0,0,1,3,20.22l0,0H2.92v0l0,0h0l-.07-.06s.07,0,.07-.09c-.1-.25-.17-.38-.22-.39l0,0-.1.09-.06-.13v0l.06-.06.07.06,0-.08,0-.09H2.45v.06h0L2.16,19l.07-.06q0,.12.06.12h0l0-.14,0,0h0l-.06.06,0,0V18.8q.09,0,.09-.06h0l-.1.06H2.1a1.8,1.8,0,0,1-.22-.66h.05l-.05-.06,0,0-.2-.54,0,0h0l.13.27.08,0a.66.66,0,0,1-.08-.34l-.07.07,0,0H1.68v.06H1.62v-.06c.06-.1.11-.15.16-.15-.05-.19-.1-.28-.16-.28l0-.15-.06-.09v-.15l-.13,0v.06l.16.45v0H1.55l.07.24H1.55L1.43,17,1.49,17c-.07,0-.13-.13-.19-.4l0,0h0l.09.07.06-.13-.13-.27h0v0l0,0v0s-.1-.1-.12-.31h0l-.09-.11,0-.16v0l-.13-.06v0l.06.27,0,.09c.07,0,.1,0,.1.06v0l0,.12v0h0V16s.09.15.15.45H1.27l-.19-.72h0l0,0v0l0,0-.06-.13,0,0c-.05,0-.08,0-.1-.12l0-.15,0,0H1a3.41,3.41,0,0,1-.2-.75h0l0,0v0l.1-.1.12.57H1v-.06l0-.21h.07v0L1,14.53H1v0L1,14.4l0,0H1l0-.09,0,0h0l0,0v0l0,0H1c0-.17,0-.25-.07-.25l0-.09,0-.09h0v.09s-.09-.08-.1-.24H.83v.09h0v-.06l0-.3,0,0-.07-.06,0,0-.07-.15h0l-.06-.27,0,0c-.07,0-.12-.27-.16-.82.07,0,.1,0,.1-.06s-.14-.16-.16-.48H.6v.12h0l0-.21h0l-.09,0v-.15l-.09-.34,0,0v0l0-.12h0l0,0v0l0-.11a2.54,2.54,0,0,1-.1-.7l0,0v0l0-.12V9.55l.07-.09v0l0,0v0l0,0S.36,9.17.32,8.83l0-.09,0,0H.25l.07-.09V8.59L.25,8.5V8h0q0,.6-.12.6l0,0v.07c.09,0,.13,0,.13.06l0,.15,0,.09,0,0V9l0,.08H.13S.1,9,0,8.92l0-.27,0-.12,0,0v0l.1-.24L0,8.13V7.78c0-.11,0-.16.1-.16V7.56l0,0H0V7H.06V6.9L0,6.84l.06-.3,0,0v0l0,0,0,0,.1-.7,0,0,.12-.9,0,0v0l0-.12,0-.12.06-.06,0,0A4.88,4.88,0,0,0,.48,3.25L.7,2.41l0,0v0l.22-.72,0,0v0l.22-.43,0,0V1.05A1.26,1.26,0,0,0,1.39.36.66.66,0,0,0,1.78.12l.07.06h0C2,.18,2,.14,2,.06L2,0H2l.2,0ZM0,9.1l.19.06,0,.09.06.51,0,0,0,.15v.24l0,0v0l0,0h0l0,0v.07l0,0v0l-.07.07.07.06v.21l-.07.06-.06-.09v-.1H.22a.37.37,0,0,0-.09-.21l0-.08L.1,10.28v-.13s0-.05.09-.05v0H.13l0,0L0,9.31h.1V9.22H0ZM.16,7.62l0,.21h0V7.62Zm0,2.56v.12h0v-.12Zm.06.67.1.12c0,.06,0,.09-.1.09v0H.29l0,0,0,0,0,0,.06.48,0,0h0l-.07-.06.07-.06a.87.87,0,0,1-.13-.45v-.13l0,0v0l0,0Zm0-3.77v.15h0l0-.15ZM.29,9.52H.35v.15H.29Zm.16,2.62v.09l0,0a.82.82,0,0,1,.13.37l-.06.06s.07.09.09.27l-.12-.09h0a2.12,2.12,0,0,1-.16-.7l0,0Zm-.1-1.48H.41v.1H.35Zm0,1.21H.41l0,.18H.38ZM.54,13v0l0,0v0c.06,0,.09,0,.09.07v0l-.06.06-.06-.06V13Zm0,.27c.07,0,.15.35.26,1l0,0,0,0,0,0H.73v-.09l0,0v0c-.07,0-.14-.24-.19-.7l0-.15v0h0v.09l-.06-.06v-.09Zm0-3.74,0,0H.63V9.31S.57,9.37.54,9.49ZM.57,9v.18h0V9Zm0,.78L.6,10h0V9.73l0,0Zm0,.7v.12H.67v-.06Zm0,.15v.05l0,.22H.73C.71,10.7.68,10.61.63,10.61Zm0,.32.07.13,0,.18v.06l.06.06h0c0-.28-.05-.43-.09-.43Zm0,.7v.09l.07-.06,0,0Zm.45.06,0,0h0l0,0v0a.15.15,0,0,1-.12.12l0-.24h0l0,0v0l0,0v0s-.07,0-.07-.09l-.12.06v.06q.12,0,.12.09H1l0,0h0v.06H.79v-.06H.73c0,.32.05.48.1.48h0v0l0,0c0-.14,0-.21.13-.21l0,0v0H1v.09H.92V12H1V11.9H1v.15H1v.07h.09v.14H1a.16.16,0,0,0,.16.18l.07-.08v0c-.07,0-.1,0-.1-.06l.1,0A.71.71,0,0,0,1.05,12v0a.08.08,0,0,0,.09-.09h.07V12l.13.64h0v0l-.16-1,0,0v0l0-.18C1.15,11.3,1.11,11.43,1.08,11.69Zm-.35.7v.08l.1,0h0v0c-.07,0-.1,0-.1-.08Zm.32-3.68c0,.14-.06.21-.19.21l0,0v.11l0,.13-.07.3.07.27,0,0v0l.09.46H1v0s-.07,0-.07.16h0l0,0v.27l-.06.09v0H.92v0c-.06,0-.09,0-.09.07v.09l.06.09,0,.12H1l0-.15H1l0,0h0V11h0l.06.24h0v-.15q0-.36-.09-.36h0l0,.21H1l0,0v0H1v-.1l0,0v0H1v-.19s.05-.08.15-.08v-.06c-.15,0-.22,0-.22-.09l0,0H1l0,0,.07-.07.09.1v-.34s0-.05-.09-.05L1.14,10l0,0V9.86h0l-.06-.7,0,0v0l0-.39ZM.79,12.17v0H.86v-.08Zm.1-3.7,0,.15v.17l.1,0V8.62l0-.15Zm0,.9H.92l0,0,0,0v.09H.86Zm.1.42,0,0,0,0h.07v.09h0l-.16,0Zm.09.49,0,0v.07h0L1,10.3l0,0ZM1,8.59v.09h.07V8.53ZM1.08,15,1,15.1l0,.09h.06l0,0,0-.15v0Zm0-2.45,0,0v0l0,0,0,0h0l0,0v0l0,.15.12-.13V12.6Zm0,.34,0,0V13H1.08v0s0,0,.09,0l0,0v0l-.07.15h0l.26-.06,0,0,0-.33h0l0,.24-.1,0v-.1h.07l0,0v0l0,0,0-.15h0v.06H1.21v-.06Zm0,2.35v.18h0v-.06h0l0-.12Zm.06-2.75v0l.1,0v-.06Zm.13,1-.06.12v.06l.06-.06,0,0h.07l0-.15Zm0-.12,0,0h0v-.09Zm.06.33q0,.18.09.18c0-.1,0-.15.07-.15v-.06H1.37l0,0Zm0,.24.07.09v0l-.07.09,0,.12h0v0l0-.1h0L1.43,14l0,0Zm0-1.32v0l0,.21h0v-.13l0-.11Zm.09-2.14,0,0v0l0,0H1.37v0Zm0,.17,0,0v.07l-.07.06,0,0v-.06Zm-.06.22h.06l0,.27Q1.38,11.15,1.37,10.88Zm.12.3v0l-.06.06,0,0v0l0,0Zm0,.12.06.06,0,0h-.1v0Zm0,2,.19.81h0V14l-.16-.75,0,0Zm0,.87,0,.24h0q0-.15.06-.15h0v0Zm0-2.47.06.06,0,0,.06.15,0,0H1.46Zm.09-1.5,0,.17H1.52l0-.14,0,0ZM1.49,12l.1.07,0,.17H1.49Zm0-4.3v.11h0V7.72Zm0,1h.07l0,.18h0Zm0,1.2h0l.07.06-.07.07h0Zm0,4.61v.16l.07,0v0l0-.16Zm0,1.52,0,.08h.07v0l-.07,0Zm0-3.6h.07l.06.4H1.62Zm0-.69h.06l0,.09h0Zm0,2.35.06.27h0v-.06l0-.21Zm0-1.2h0l0,.15v0H1.65Zm.07-.33.06.06v0l-.06-.06Zm0,1.84v0l0,.24h0v-.13l0-.14Zm0,2.31v.12h0v-.12ZM1.85,14h0s.06.09.09.27H1.9Zm0,3.83V18l.09.1H2v-.12Zm0-1.77v0c.17.59.28.88.33.88v0a1.67,1.67,0,0,1-.16-.6l-.1,0,0,0v0l-.07-.17ZM2,18.38v0l0,0v0l.1,0v0l0,0v0Zm.07-2.53V16l0,0h0l0-.18Zm.06,2.62v.12h.1ZM2.2,16.3v.12h0V16.3Zm.12-.39h.06a1.67,1.67,0,0,0,.13.46v.05H2.45l-.07-.18h0ZM2.38,19l0,0,0,.1h.07v-.06Zm0,.18v0l0,.1.06-.07v-.06Zm.1-2.68h.07a.48.48,0,0,0,.09.27v.09h0l-.06,0,0,0v0C2.54,16.77,2.51,16.69,2.51,16.54Zm0,.76v0l.07.21h0v0l-.07-.21Zm0,1.62v0l0,.09h0V19l0,0Zm0,.79.1.06,0,.09-.07-.07Zm.07-1.66v.06l0,.09h0v0l0-.12Zm0,1.81h.06V20H2.61ZM2.67,17l.06.06,0,0h0Zm0,3h.06l0,.12,0,0h0l0,0Zm0-1.66v0l0,.12h.06l-.06-.15Zm.16,1.9h0l0,.21v.06l.1,0,0,0v0c0,.08,0,.12.16.12l-.07.09v0h.07v0l-.07.06-.29-.63ZM2.92,20v0H3v-.09Zm.07.09v0l.06.18.06-.06-.06-.15ZM3,18l.09.09v.06S3,18.12,3,18Zm.09.24h.07v.12l-.07-.06Zm0,1.53v0l0,.1h0v0l0-.1Zm0,.64v0l.06.06,0,0v-.06Zm0-2h.06l0,.12H3.21Zm0,2.62h0l.06.06,0,0h0l0,0Zm0-1.08v0l.06.06V20Zm0,.6v0l.06-.06v0Zm0-.36v0l0,.09h0v0l0-.09Zm.1,1s.07.06.09.18l0,0,.06.06v0h0l-.16-.24Zm0-.93v0l.09.21h.06Zm0,.18v0l.12.3h.07l-.16-.33Zm.12,1.14h.07v.09l-.07-.05Zm.16-2.08h.06l.16.46A1,1,0,0,1,3.62,19.49Zm0,2.24v.08l.06,0v0ZM3.84,20l.19.3s.1.07.16.21v.06l-.06.06h0l-.26-.54Zm0,.66v0l.07.06v0Zm0,1.57.13.15v.06l-.13-.15Zm.38.3.07,0,0,0v0c.09,0,.13,0,.13.12h0l-.13-.06q0,.12-.06.12l0,0v0l.06-.06c-.09,0-.13,0-.13-.06l0,0,0,0h0S4.22,22.59,4.22,22.51Zm-.12-.19h.06l.06.13v.06A.2.2,0,0,1,4.1,22.32Zm.09-1.53h0c.06,0,.1.08.13.24l-.16-.18Zm0,.57.06.06v.07l-.06-.07Zm0,1.45h.07q0,.07.12.15l0,.09-.16-.18ZM4.35,21l0,0h0l0,0,0,.09,0,.09-.1-.09Zm0,1.78h0l.07.06,0,0h0l0,0Zm0,.27h0s.09.05.1.15h.1v0l0-.08h0l.15.2v.06h0s-.06,0-.06-.09l0,0h0v.12C4.46,23.26,4.38,23.15,4.38,23.08Zm.07-1.87.06.07v0H4.45Zm.06.15h.07a.52.52,0,0,0,.15.3l0,0,.07.1-.07.06.1.15v0h0l-.32-.54ZM4.61,23v0l-.07.07,0,0v0l0,0Zm.06.45.06.06v0l-.06-.06Zm0-.78,0,.06v.06l0-.06Zm0,.87.1.09v0h0l-.06-.06Zm.06-.72a.35.35,0,0,1,.17.28l-.17-.22Zm.13-.72.07.06v0H4.92Zm.07.17h.06l.19.4H5.17Zm0,.85c.06,0,.1.08.1.18S5,23.24,5,23.14Zm.13.85,0,0v.06h0L5.05,24l0,0Zm0-.63.09.08v.06l-.09-.09Zm0,.72.16.15v0h0l-.13-.13Zm.07-.58.09.09v0h0l-.06-.06Zm.09-.63h0s.08.08.13.25H5.4Zm0,1.42h0l.19.17v0C5.46,24.49,5.38,24.42,5.3,24.29Zm.07-.54h.06l0,.12-.1-.09Zm.13.14.1.1v0H5.53Zm0-.66.07.06v0l-.07-.06Zm.09.15c.07,0,.1.08.1.18S5.62,23.48,5.62,23.38Zm.1,1.08h0l.16.19H5.85S5.76,24.59,5.72,24.46Zm.06.28h0l.07.06h-.1Zm0-1c.06,0,.12.09.2.28H5.94s-.05-.12-.13-.21ZM6.7,24h.07v0l-.07.06Zm.1.36-.06.08,0,0v0l0,0v0l.09.06.06-.24h0l0,0Zm.06-.91,0,0v0H6.8ZM6.8,24.86v0l.06-.06v0Zm.09-1.15v.12H6.83v0Zm0-.09h0l.06.06v0H7l-.07-.06Zm.42-.15h0l0,.09,0,0h0Z"/><path d="M4.59,10.22h.07a2.1,2.1,0,0,1,.61.09c.11,0,.3.13.57.38a1.67,1.67,0,0,1,.38.63,2.68,2.68,0,0,1,.22.8v.2a1.06,1.06,0,0,1,0,.21l-.07.06H6.26a.75.75,0,0,1-.3-.53,3.12,3.12,0,0,0-.09-.7,1.66,1.66,0,0,0-.39-.61,1.12,1.12,0,0,0-.7-.33.26.26,0,0,0-.14,0,1.64,1.64,0,0,0-.73.26,2.38,2.38,0,0,0-.85,1.14,3.27,3.27,0,0,0-.29.88v.44A.31.31,0,0,0,3.15,13c.1-.12.1-.05,0,.23a1.29,1.29,0,0,1,0,.38c0,.31-.06.47-.12.47a.26.26,0,0,1-.23.09c-.23,0-.38-.15-.44-.46a.78.78,0,0,1,0-.24v-.2a4.12,4.12,0,0,1,.4-1.51A3,3,0,0,1,4,10.37,2.31,2.31,0,0,1,4.59,10.22Zm.08,2.42.22,0,.11,0a2.59,2.59,0,0,1,.51.2.63.63,0,0,1,.17.36v.14l.14.56V14l0,1.32a6.77,6.77,0,0,1-.31,1.76,3.81,3.81,0,0,0-.2.52,1.88,1.88,0,0,1-.24.28H5s0,0,0-.13l0,0H5a2.43,2.43,0,0,0-.34.24l-.17,0c-.17,0-.37-.14-.59-.41a2.62,2.62,0,0,1-.26-.55A5.2,5.2,0,0,1,3.44,16l0-.51v0a6.11,6.11,0,0,1,.09-.78A5,5,0,0,1,4,13.46a5.36,5.36,0,0,1,.41-.57C4.47,12.73,4.57,12.64,4.67,12.64Zm.28,6c.19,0,.28,0,.28.14l.14.17a.93.93,0,0,1,.12.35c.12.15.18.24.18.28v.07c-.09.22-.16.33-.2.33H5.15l-.32-.08a2.22,2.22,0,0,1-.48-.78v0l.06-.17v0l0-.12a.52.52,0,0,1,.22-.09S4.72,18.66,5,18.66Zm-.54-.94h0v0s0,0,.1.05h.1v0ZM4.53,16a2.17,2.17,0,0,0,.33,1.3l0,0h0a3.16,3.16,0,0,0,.29-.73c0-.05,0-.07.11-.07l.06-.29-.05-.13A7.36,7.36,0,0,0,5.5,15v-.29a2,2,0,0,0-.12-.74h0c-.16,0-.35.25-.58.61a2.88,2.88,0,0,0-.24,1.32Zm.25,1.38v0s.07.08.1.08h0C4.89,17.45,4.85,17.41,4.78,17.4Z"/><path d="M8.92,12.74l0,0,.39,0,.21.13.19-.06.07.1a2.4,2.4,0,0,0,.22.24l.07.17v.17l0,.06c.14,0,.24.24.31.62l0,.06,0,.27v.12a1.57,1.57,0,0,1-.4.74q0,.3-.54.3a.54.54,0,0,1-.58-.38.81.81,0,0,1-.32-.17l.05-.24a.29.29,0,0,0-.24-.22,1.27,1.27,0,0,0-1.11.62c-.12.05-.27.34-.42.88l0,.2,0,.24a.14.14,0,0,1,0,.07.67.67,0,0,1,0,.16,1.16,1.16,0,0,0,.38.49,1.47,1.47,0,0,0,.89.39l0-.05.05.05,1.37-.29A12.61,12.61,0,0,0,12,15.86l.07.07a6.62,6.62,0,0,1-2.27,1.83V17.7l-.24.17,0-.05a.64.64,0,0,1-.37.16H9l-.06.08-.11,0h-.1l.11,0v.07H8.61l-.08-.07c0,.15-.21.22-.61.22H7.63l-.07.06H7.4a1.06,1.06,0,0,0-.59-.21,1.68,1.68,0,0,0-.44-.35l-.06-.08A2.37,2.37,0,0,1,6,16.46a4.27,4.27,0,0,1,1.61-3.07A2.4,2.4,0,0,1,8.92,12.74Zm.66,4.88v.08H9.39l-.12.12.12,0,.07,0a.13.13,0,0,1,.06-.07.35.35,0,0,1,.12-.05Z"/><path d="M22.74,5.22a5,5,0,0,1,.86,1.11l0,.14a2.44,2.44,0,0,0-.23.71v.44l0,.64,0,.37,0,.17h0l0,0v0l0,0,.1.57h0l0,0v.37l0,.14,0,.13,0,.14,0,0v0l0,0v0l0,0,0,.16v.21h.1l.63-.95a2.21,2.21,0,0,1,.59-.81c0-.16.48-.71,1.45-1.65A7.18,7.18,0,0,1,27.86,6.1c.13,0,.26-.1.39-.31l.13,0,.24-.11,0,0c0-.07.18-.1.53-.1l0,0,.13,0,.17,0h.33l.13,0a1.56,1.56,0,0,0,.5.3,1.53,1.53,0,0,0,.43.65l.1.23,0,.1c.06,0,.11.09.14.27h0l.13.34,0,.31v0l0,.31,0,0v0l0,0-.07.44,0,.23a6.24,6.24,0,0,1-1.29,2.81l-.43.57A17.82,17.82,0,0,0,28,14.1s-.13.12-.26.34a5.15,5.15,0,0,1-1.23,1.19l-.1,0c0,.08-.22.3-.65.68a2.45,2.45,0,0,1-.87.47c-.39.35-.59.59-.59.71.13,1.65.24,2.73.33,3.25h0l0,0v.34l.07.08,0,.16a.58.58,0,0,0,.13.34v.07l0,0,0,0v.07l-.23.24-.4-.24c-.06,0-.16-.06-.3-.2a3.81,3.81,0,0,1-1.06-.81l-.62-.68-.33-.74a2.92,2.92,0,0,1-.3-.88l-.1-.07-.56.34-.27.14h0l-.06-.07a.73.73,0,0,1,.42-.27q0-.17.27-.24a.41.41,0,0,0,.23-.34v0l-.16-.1h0a.58.58,0,0,0,.17-.41l0-.1,0,0v0l0,0v0l0-.1,0-.09a2.21,2.21,0,0,0-.77.5.22.22,0,0,0-.22.2A.79.79,0,0,0,20,18h0l.06-.1-.06-.1a1,1,0,0,1-.46.2c-.16.19-.3.28-.43.28a2.42,2.42,0,0,1-.93.6l-.33.27s-.12.11-.36.17l-.4.24c0,.07-.16.15-.49.24l-.1.1,0,0h0l-.23.23h-.06l0,0h0c0,.05-.08.08-.23.1a.68.68,0,0,1,.53-.34c0-.06.05-.1.16-.1s0-.1.07-.1l0,0a6,6,0,0,1,1.12-.78v0l-.07-.07a7.13,7.13,0,0,1-1.18.54c0,.08-.27.23-.73.44l-.07.07h0l0,0-.23.13,0,0v0c0-.05,0-.07.16-.07s.11-.23.33-.31l.13-.06c0-.05.14-.15.43-.31.37-.4.63-.61.76-.61s.13-.1.4-.2a2.1,2.1,0,0,1,.89-.58,3.19,3.19,0,0,1,1-.61,9,9,0,0,1,1.06-.73,6.06,6.06,0,0,1,1-.78,14.34,14.34,0,0,1,.72-2.13l.6-1.29a1.86,1.86,0,0,0,.33-.67v-.31l0,0-.07-.2v0l0-.23-.07-.07v0a3.82,3.82,0,0,0-.1-.84l0-.14-.16-.8,0,0-.06-.47,0,0v0l0-.37V7.72l-.07-.14,0-.6h0l-.06-.24h0l0,0V6.6a2.59,2.59,0,0,0-.1-.67v0l0-.2-.1-.4ZM15.51,20.33h0v0l-.1.1h0v0Zm.23-.14.06.07-.26.07v0C15.56,20.22,15.63,20.19,15.74,20.19Zm4.12-2.13h0v.1l-.07.07,0,0v0S19.86,18.12,19.86,18.06Zm.24-.31v.07h.06s0-.07.1-.07v-.06h0ZM22,16.91,22,17l0,.17a.55.55,0,0,0,.4-.23c.41-.33.62-.52.62-.57.38-.2.57-.38.57-.55V15.8l-.1,0a1.72,1.72,0,0,0-.63.34.38.38,0,0,0-.3.2h-.06c0,.08-.08.12-.24.14A.59.59,0,0,0,22,16.91Zm1.45-.44,0,0h0a2.19,2.19,0,0,1-.57.44c-.55.41-.82.66-.82.74v.17a2.37,2.37,0,0,0,.82-.54l.87-.78v-.13A.36.36,0,0,0,23.43,16.47Zm-1.35,1.86a7.46,7.46,0,0,0,.36,1.25l.66.88c.11,0,.38.25.83.75h0l.13-.15-.06-.4,0-.27-.07-.3,0,0-.1-.71v-.06l0-.21,0,0v0l0,0v0l-.1-.48,0-.16c0-.34,0-.51-.13-.51l-1.05.64-.07-.07a4.65,4.65,0,0,1,.93-.78l.19-.27v-.1l-.09-.09c-.05,0-.15.09-.3.26-.08,0-.15.06-.2.17a.72.72,0,0,0-.5.31C22.28,18,22.08,18.2,22.08,18.33Zm.4-3.58h.1c0-.07.13-.19.39-.37l.4-.48L23.3,13c-.07,0-.16.17-.27.47a2.67,2.67,0,0,0-.39.81A.84.84,0,0,0,22.48,14.75Zm1.19-2.37a9.87,9.87,0,0,1,.12,1.22h0a6.67,6.67,0,0,0,1-.95,5.86,5.86,0,0,1,.76-.74,3.28,3.28,0,0,1,.66-.74c0-.08.11-.21.33-.41a9.92,9.92,0,0,0,1.42-2,2.92,2.92,0,0,0,.56-1.08l.24-.4,0,0V7l0-.17-.17-.07a1.31,1.31,0,0,1-.5.2A12.71,12.71,0,0,0,27,8a6.72,6.72,0,0,0-1.38,1.45A14.17,14.17,0,0,0,24,11.71,1.22,1.22,0,0,0,23.67,12.38Zm.42,3v.13h0l.24-.13,0,0v0Zm0,.67h.1c0-.09.05-.13.1-.13l0,0A23.6,23.6,0,0,0,26.3,14.1l0-.13,0-.1h0c-.09,0-.3.15-.62.44,0,.11-.14.27-.4.47,0,.05-.09.16-.27.31q0,.16-.36.3c-.24.25-.4.37-.46.37Zm.07.78,0,.1h.1l.73-.61c.17-.16.26-.26.26-.3a1.61,1.61,0,0,1,.5-.37q.66-.66.66-.78a.29.29,0,0,1,.1-.2H26.5a.46.46,0,0,1-.29.06,7.3,7.3,0,0,1-.9,1h-.06s-.14.16-.43.34c0,0-.11.16-.33.34S24.19,16.76,24.19,16.81Z"/><path d="M27.71,17.1h0l.33-.13h.06l.05,0h0v0a.4.4,0,0,1,.2-.1h0a.92.92,0,0,0,.24-.13h0a.05.05,0,0,0,0-.05h.07s.05-.05.15-.08h0s.06-.07.15-.13,0,0,.07,0,0,0,.1-.08l.34-.38.09-.21,0-.06,0,0h0v-.07a.56.56,0,0,0,0-.13v-.07l0-.14h0l0-.1v0a4.86,4.86,0,0,0,.05-.51h0l0-.05a.8.8,0,0,1,.05-.2l0-.08h0a2,2,0,0,1,.05-.37v0a1.77,1.77,0,0,0,.07-.34v0h0l.08-.3v-.09l0-.21v0s0,0,0-.07,0,0,0-.13a1.11,1.11,0,0,1,.09-.22v0h0l.06-.25h0v0s0-.06.05-.18,0,0,0-.09h0v0a3.08,3.08,0,0,0,.17-.56s0,0,0-.06h0v0h0v0l0,0v-.06a.13.13,0,0,1,.05-.09V10.9h0a.49.49,0,0,0,.05-.18s0,0,0-.11.06-.09.11-.27a.16.16,0,0,0,0-.1s0,0,.05-.1,0,0,.05-.13,0,0,0-.08a1.19,1.19,0,0,0,.16-.34l.1-.21s0,0,0-.11a.36.36,0,0,0,.13-.2.59.59,0,0,0,.16-.24l.18-.25a.8.8,0,0,1,.15-.21.17.17,0,0,1,.1-.11l.06-.16s0,0,0-.06h0c0-.06,0-.08.07-.08h.11a.76.76,0,0,1,.17-.18s.05-.07.14-.1a.17.17,0,0,1,.17-.14l.1,0,.1,0s0,0,.13,0,0,0,.09,0h.13c.15,0,.23.08.23.13a.08.08,0,0,0,.07,0s0,0,.06,0a.73.73,0,0,1,.18.23h0v0l0,.1v.09h0v0l0,.05s0,0,0,.07l0,0s0,.05.06.05h0v.06a.11.11,0,0,1,0,.07l0,.09,0,.12v0s0,0,0,.07,0,.06,0,.19l0,0,0,0-.06.56V9.7h0l0,.13v.1l0,.18v.14a.23.23,0,0,0,0,.11l0,0h0s0,.16,0,.39h0l0,.06s0,0,0,.14h0l-.07.22h0v.12a1.06,1.06,0,0,0-.08.33l0,0h0v.05a.27.27,0,0,1,0,.16l0,.05v0a.26.26,0,0,0-.06.18s0,.07-.06.21,0,0-.05.12l-.11.13v.06A.34.34,0,0,1,33,13s0,0,0,0a.48.48,0,0,1-.08.16v0l0,0v0s0,.05-.06.16a.15.15,0,0,0,0,.1s0,0-.1.13a.33.33,0,0,0,0,.08l-.07.13s-.07,0-.1.14,0,0,0,.09,0,.05-.09.14,0,0,0,.12,0,0-.08.12a.31.31,0,0,0-.09.13s-.06,0-.08.07a.28.28,0,0,0-.09.2.46.46,0,0,0-.2.25s-.07,0-.12.11,0,0-.1.12,0,0-.05.1a1.43,1.43,0,0,0-.24.2l-.06.11-.18.1s-.06.11-.17.18l0,0s0,0,0,0-.05.05-.09.15l0,0h0a.21.21,0,0,1-.07.14v.07a1.3,1.3,0,0,1,.06.25v.07a.79.79,0,0,1,.13.18l.18.2H31c.08,0,.12,0,.12-.07a.38.38,0,0,0,.17-.15,1.14,1.14,0,0,0,.13-.22,1.27,1.27,0,0,0,.2-.32s0,0,0-.13a1.33,1.33,0,0,0,.24-.42.79.79,0,0,0,.18-.29c.1-.09.15-.14.15-.16a.4.4,0,0,1,.12-.15s0-.06.1-.08a.49.49,0,0,1,.28-.13l0,0h.13l0,0H33l0,0h0l0,0h0s0,0,0,0l0,0,0,0h0a.3.3,0,0,0,.16.08.68.68,0,0,1,.26.19l.11.13v0c.07,0,.12.05.15.16s0,0,0,.05.08.07.1.2V16l0,.1,0,0v.05c0,.06,0,.08-.05.08v0l0,.05c-.07.15-.12.23-.16.23l0,0v.07s0,.07-.08.1h0v0s0,0-.05,0v0h0s0,0,0-.05-.08,0-.11.1v0l-.14.14h0v0a.19.19,0,0,1-.08.1h-.06a.18.18,0,0,1,0,.07l0,0v.07a.25.25,0,0,1-.11.21.55.55,0,0,0-.09.14.71.71,0,0,0-.12.14h0v0a.43.43,0,0,0,0-.17s0,0,0,0v0h0l0-.11v0h-.08c0,.1,0,.15,0,.15v.09l-.07.11s0,0,0,0a.27.27,0,0,0,0,.13h0a.44.44,0,0,0-.13.14l0,0a.19.19,0,0,1-.05.1v0l0,0v0c0,.06,0,.09,0,.09h0l0,0,0-.16v-.05l.05-.33v0a.3.3,0,0,0,0-.16l0-.06a.8.8,0,0,0,0-.21l0-.11h0l0-.12v-.15a1.59,1.59,0,0,0-.09-.25v-.05l0-.08,0-.18h0v0l0-.25,0-.05,0-.13v0l0,0,0,0c-.19.15-.28.26-.29.31a1.14,1.14,0,0,0-.1.19s-.06.05-.13.14h0a1.23,1.23,0,0,1-.08.15.11.11,0,0,1-.08.1.27.27,0,0,1-.1.19.14.14,0,0,0-.06.11.8.8,0,0,0-.14.23l-.09.09c0,.05,0,.11-.14.18s-.09,0-.09.07a.64.64,0,0,1-.22.13l0,0h0l0,0H30.8a.16.16,0,0,0-.09,0h0l-.07,0h0a.91.91,0,0,1-.5-.23.34.34,0,0,0-.12-.12,1.1,1.1,0,0,0-.15-.26.66.66,0,0,0-.09-.2A.14.14,0,0,0,29.7,17a.08.08,0,0,1-.07,0s0,0,0,0h0s0,0,0,0h0a.08.08,0,0,1-.08.09h0s0,.07,0,.07h0l0,0h0s-.09.07-.26.09v0s0,.07-.1.07h0s0,.07,0,.07,0,0,0,0h0l0,0s0,0,0,0h0l0,0,0,0-.14,0h0l0,0s0,0,0,0h0s0,0,0,0h0s0,.07,0,.07h0s0,0-.14.06,0,0,0,0h0l0,0h0s0,.05,0,.05-.07,0-.17,0,0,0-.12,0,0,.05-.06.05,0,.05-.11.06l0,0s0,0-.08,0-.06.07-.19.1h0s0,0,0,0,0,0,0,0v0h0l-.05,0h0s0,0-.07,0,0,0-.09,0,0-.05-.09-.07,0,0-.06,0-.05-.07-.08-.07a.88.88,0,0,1-.05-.15l0,0a.59.59,0,0,0,0-.08v0l0,0c0-.1.06-.15.08-.15a.64.64,0,0,0,.28-.13l0,0c.05,0,.07,0,.07.05h0s0,0,0,0l.17,0h.06Zm2.12-1.87s0,0,0,0l0,.05,0,0h0v-.15c0-.07,0-.1,0-.1S29.83,15.14,29.83,15.23Zm.31-2.12h0v.08s0,0,0,.09h0l0,.06v0l-.07.28v.06a.35.35,0,0,1,0,.17,1.93,1.93,0,0,0-.05.38s0,0,0,.11,0,0,0,0h0a.09.09,0,0,1,0,.06l0,0v0s0,.08-.05.18h0l0,.18V15h0a0,0,0,0,0,0,0v0l0-.15c0-.11,0-.17,0-.17v0h0a2.47,2.47,0,0,1,.05-.38h0v0s0-.09.07-.26h0a.25.25,0,0,1,0-.12v0a.25.25,0,0,0,0-.11l0-.13v0a.92.92,0,0,1,0-.24C30.16,13.14,30.15,13.11,30.14,13.11Zm2-3.54v.06a.48.48,0,0,0-.12.2.46.46,0,0,0-.11.18s0,0,0,.1h0v0a.17.17,0,0,1-.07.1l0,0a.2.2,0,0,1-.09.19.07.07,0,0,1,0,.07.94.94,0,0,0-.11.27h0v0a1.73,1.73,0,0,0-.08.27s-.06.09-.09.26c0,0,0,0-.05.06v.07a.43.43,0,0,0-.07.21l-.06.09s0,0,0,.1V12a.64.64,0,0,0-.06.14s0,.07,0,.21,0,0-.05.12,0,.07,0,.14l0,0v0a.24.24,0,0,1,0,.15l-.09.35v0a.85.85,0,0,1-.06.23s0,.08,0,.08h0v.13l0,0h0c0,.13,0,.21-.05.24h0V14a.44.44,0,0,0,0,.18h0v.12l0,.13v0l0,.17v.06l0,0h0a.89.89,0,0,1-.07.24l0,.06.16-.15a.49.49,0,0,0,.12-.16s0,0,0-.08a.54.54,0,0,1,.11-.12.6.6,0,0,1,.11-.16.1.1,0,0,1,.05-.07,1.82,1.82,0,0,1,.17-.28s0,0,0-.05a1,1,0,0,0,.12-.25s0,0,.06-.14l.11-.31a.58.58,0,0,1,.1-.2v0a1.11,1.11,0,0,1,.07-.2.48.48,0,0,1,.09-.26h0a1.11,1.11,0,0,1,0-.13h0a.43.43,0,0,0,.05-.21s0,0,0-.11l.1-.34,0,0,0,0v-.07l0,0h0v0l0-.07v0l.07-.37a.42.42,0,0,1,.05-.2v-.15l0-.1v0h0v-.14l0,0h0v-.16h0a.33.33,0,0,0,0-.13l0,0h0l0,0,0-.11v0s0,0,0-.05l0-.11v0h0V9.64l0,0s0,0,0,0V9.48s0,0,0,0v0h0l0,0h0s0,0,0,0a.15.15,0,0,0-.07.12Zm.76,7.77v.1h0s.07,0,.07-.06l-.05,0Zm1-.71h0v0h0Z"/><path d="M36.58,13.28a4.27,4.27,0,0,1,.69.17c.41,0,.67.1.79.3a1.07,1.07,0,0,1,.07.39,2,2,0,0,1-.3.74,3.5,3.5,0,0,1-.24.6,2.56,2.56,0,0,0-.2.79l0,.15c0,.19,0,.29-.06.29s-.07-.06-.09-.17a.14.14,0,0,1-.08-.11l0,0v-.07l0,0-.05.05a1.49,1.49,0,0,0,.17.63c0,.1.15.18.46.26h.1a.89.89,0,0,0,.67-.38c.15-.38.28-.57.38-.57l.06,0c.13,0,.22.09.25.27v.11c0,.07-.09.2-.26.4a7.25,7.25,0,0,0-.68.54,1.91,1.91,0,0,1-.74.26A.74.74,0,0,1,37,17.6v0s0,0,0,0a1,1,0,0,0,.31.11l.26,0c.2-.05.29-.09.29-.13v0s0,0,0,0l-.19.05a1.3,1.3,0,0,1-.75-.25c-.09,0-.17-.07-.23-.2l-.11-.49a3,3,0,0,0-.58,1,4.24,4.24,0,0,1-.68.84l-.47.35a.58.58,0,0,1-.28.07c-.23,0-.42-.24-.56-.74a2.28,2.28,0,0,1,0-.56v-.06a3.72,3.72,0,0,1,.27-1.28,5.24,5.24,0,0,1,1.13-2c.59-.63,1-1,1.14-1ZM35,13a2.14,2.14,0,0,1,.18-1.46,1.06,1.06,0,0,1,.51.07.24.24,0,0,1,.2-.14l.18.21a.32.32,0,0,0,.05-.2l.13.16v-.1a.41.41,0,0,0,.33-.19l.27,0,.22-.12V11l.07.16.1-.2.07.09a3.17,3.17,0,0,1,.69-.45l0-.13.07.09.14-.18q.24.06.24-.15a.1.1,0,0,1,.1.05,5.3,5.3,0,0,1,.64-.44l.12-.06.1-.12.21,0c0-.12.13-.27.55-.46a2.46,2.46,0,0,0,.6-.31L41,8.84l.25-.11L41,9a1.25,1.25,0,0,0-.57.41l-.11,0a2,2,0,0,1-.68.5l-.16.08-.28.2-.09,0a.29.29,0,0,1-.2.15l-.46.38-.21.27c.15-.34,0-.28-.35.18a.61.61,0,0,1-.45.26v.13L36,12.45l-.3.22a4.5,4.5,0,0,1-.43.36l-.17,0Zm.23,5v0l0,0c.07,0,.19-.15.37-.43a8.41,8.41,0,0,0,1-1.74l0-.25h0c-.07,0-.27.21-.58.63a6.89,6.89,0,0,0-.52,1.1A2.35,2.35,0,0,0,35.24,18Zm1.82-1.21v.08a.44.44,0,0,0,.25.41,1.47,1.47,0,0,0,.4.08l.1-.05h0v0h-.22a1.64,1.64,0,0,1-.3-.25l-.14-.29h0Zm.32-.05h0l0,0v.06h0l0,0Zm.66.73v.05h0l0,0h0v0Zm3.21-8.63c.13-.31.2-.34.22-.08Z"/><path d="M39.62,10a2,2,0,0,1,.59,1.07,10.42,10.42,0,0,0-.13,1.64.39.39,0,0,0,.25.26c2.15.09,3.64.19,4.49.31H45v.1l-2,.22h.26a.26.26,0,0,1,.25.2c0,.08-.21.17-.63.26,0,.17-.33.29-1,.35a2.3,2.3,0,0,1-1.43.51.53.53,0,0,0-.42.21l0,2.05v1.69a7.6,7.6,0,0,0,.17,1.79V21c-.2.51-.35.77-.47.77s-.21-.19-.3-.57l.05-3v-.66l0-1.12h0a4.21,4.21,0,0,0-.51,1l-.34.15v0l.38-.87a6.54,6.54,0,0,0,.34-1.33l-.43-.56L38.77,14c0-.54.11-.81.34-.81a1.76,1.76,0,0,0,.46-1.39,6,6,0,0,0-.17-1.28A.59.59,0,0,1,39.62,10Z"/></svg>