<svg width="859" height="359" viewBox="0 0 859 359" fill="none" xmlns="http://www.w3.org/2000/svg">
<path d="M268.72 31.2H274.8L287.6 87.44L300.64 31.2H306.72L308.32 96H303.28L302 44.4L289.6 96H285.68L273.44 44.48L272.16 96H267.12L268.72 31.2ZM329.326 96.72C324.74 96.72 321.54 95.3067 319.726 92.48C317.913 89.6 317.006 85.2 317.006 79.28V66.48C317.006 60.56 317.913 56.1867 319.726 53.36C321.54 50.48 324.74 49.04 329.326 49.04C333.966 49.04 337.193 50.48 339.006 53.36C340.82 56.1867 341.726 60.56 341.726 66.48V79.28C341.726 85.2 340.82 89.6 339.006 92.48C337.193 95.3067 333.966 96.72 329.326 96.72ZM329.326 92.32C331.246 92.32 332.66 91.8133 333.566 90.8C334.526 89.7867 335.14 88.4267 335.406 86.72C335.673 84.96 335.806 82.5867 335.806 79.6V66.16C335.806 63.1733 335.673 60.8267 335.406 59.12C335.14 57.36 334.526 55.9733 333.566 54.96C332.66 53.9467 331.246 53.44 329.326 53.44C327.406 53.44 325.993 53.9467 325.086 54.96C324.18 55.9733 323.593 57.36 323.326 59.12C323.06 60.8267 322.926 63.1733 322.926 66.16V79.6C322.926 82.5867 323.06 84.96 323.326 86.72C323.593 88.4267 324.18 89.7867 325.086 90.8C325.993 91.8133 327.406 92.32 329.326 92.32ZM326.286 100.88H332.526V108H326.286V100.88ZM326.126 33.76H332.686L339.566 45.44H335.246L329.406 36.64L323.566 45.44H319.246L326.126 33.76ZM360.799 96.56C357.653 96.56 355.466 95.7067 354.239 94C353.066 92.24 352.479 89.7067 352.479 86.4V53.6H346.799V49.76H352.479V35.44H358.319V49.76H365.999V53.6H358.319V85.84C358.319 88.1867 358.586 89.8133 359.119 90.72C359.653 91.5733 360.746 92 362.399 92C363.413 92 364.533 91.8667 365.759 91.6V96.08C364.106 96.4 362.453 96.56 360.799 96.56ZM388.669 31.2H394.509V72.32L409.949 49.76H416.109L404.429 67.6L415.629 96H409.709L399.949 70.88L394.509 78.48V96H388.669V31.2ZM421.261 49.76H427.101V96H421.261V49.76ZM427.741 30.24H433.581L425.741 45.92H422.701L427.741 30.24ZM435.44 67.6H452.4V72.24H435.44V67.6ZM461.03 31.2H466.87V96H461.03V31.2ZM487.842 96.72C483.255 96.72 480.055 95.3067 478.242 92.48C476.429 89.6 475.522 85.2 475.522 79.28V66.48C475.522 60.56 476.429 56.1867 478.242 53.36C480.055 50.48 483.255 49.04 487.842 49.04C492.482 49.04 495.709 50.48 497.522 53.36C499.335 56.1867 500.242 60.56 500.242 66.48V79.28C500.242 85.2 499.335 89.6 497.522 92.48C495.709 95.3067 492.482 96.72 487.842 96.72ZM487.842 92.32C489.762 92.32 491.175 91.8133 492.082 90.8C493.042 89.7867 493.655 88.4267 493.922 86.72C494.189 84.96 494.322 82.5867 494.322 79.6V66.16C494.322 63.1733 494.189 60.8267 493.922 59.12C493.655 57.36 493.042 55.9733 492.082 54.96C491.175 53.9467 489.762 53.44 487.842 53.44C485.922 53.44 484.509 53.9467 483.602 54.96C482.695 55.9733 482.109 57.36 481.842 59.12C481.575 60.8267 481.442 63.1733 481.442 66.16V79.6C481.442 82.5867 481.575 84.96 481.842 86.72C482.109 88.4267 482.695 89.7867 483.602 90.8C484.509 91.8133 485.922 92.32 487.842 92.32ZM484.642 31.2H491.202L498.002 45.44H493.682L487.842 34.16L482.082 45.44H477.682L484.642 31.2ZM536.203 96.72C532.79 96.72 530.176 95.9733 528.363 94.48C526.55 92.9333 525.323 90.88 524.683 88.32C524.096 85.7067 523.803 82.4267 523.803 78.48V67.68C523.803 63.2 524.15 59.6267 524.843 56.96C525.59 54.2933 526.843 52.32 528.603 51.04C530.416 49.7067 532.95 49.04 536.203 49.04C540.736 49.04 543.83 50.2933 545.483 52.8C547.136 55.2533 547.963 58.9333 547.963 63.84V66.08H542.523V63.84C542.523 61.12 542.31 59.0133 541.883 57.52C541.51 56.0267 540.87 54.9867 539.963 54.4C539.056 53.76 537.803 53.44 536.203 53.44C534.39 53.44 533.003 53.8667 532.043 54.72C531.136 55.5733 530.496 56.9333 530.123 58.8C529.803 60.6133 529.643 63.2533 529.643 66.72V79.68C529.643 82.88 529.83 85.3867 530.203 87.2C530.576 89.0133 531.243 90.32 532.203 91.12C533.163 91.92 534.523 92.32 536.283 92.32C538.096 92.32 539.43 91.9467 540.283 91.2C541.19 90.4 541.776 89.2267 542.043 87.68C542.363 86.1333 542.523 83.9733 542.523 81.2V78.64H547.963V80.88C547.963 84.3467 547.643 87.2267 547.003 89.52C546.416 91.76 545.27 93.52 543.563 94.8C541.856 96.08 539.403 96.72 536.203 96.72ZM563.777 96.72C561.004 96.72 558.764 95.7333 557.057 93.76C555.35 91.7867 554.497 89.3333 554.497 86.4C554.497 83.36 555.084 80.8533 556.257 78.88C557.484 76.9067 559.35 75.1467 561.857 73.6C564.364 72.0533 568.124 70.16 573.137 67.92V64.64C573.137 61.76 572.95 59.52 572.577 57.92C572.257 56.32 571.67 55.1733 570.817 54.48C570.017 53.7867 568.87 53.44 567.377 53.44C563.057 53.44 560.897 56.08 560.897 61.36V62.96L555.137 62.88C555.19 58.1333 556.204 54.64 558.177 52.4C560.15 50.16 563.324 49.04 567.697 49.04C571.75 49.04 574.63 50.2667 576.337 52.72C578.097 55.1733 578.977 59.04 578.977 64.32V86.8C578.977 88.2933 579.004 90 579.057 91.92C579.164 93.84 579.27 95.2 579.377 96H574.177L573.297 89.6C572.604 91.6267 571.404 93.3333 569.697 94.72C568.044 96.0533 566.07 96.72 563.777 96.72ZM565.617 91.76C567.217 91.76 568.657 91.2267 569.937 90.16C571.27 89.04 572.337 87.7333 573.137 86.24V71.84C569.51 73.76 566.87 75.2533 565.217 76.32C563.617 77.3867 562.39 78.5867 561.537 79.92C560.737 81.2 560.337 82.88 560.337 84.96C560.337 87.2533 560.817 88.96 561.777 90.08C562.79 91.2 564.07 91.76 565.617 91.76ZM558.737 30.24H564.657L569.057 45.92H566.097L558.737 30.24ZM603.902 49.76H609.742V53.6C612.142 50.56 615.102 49.04 618.622 49.04C622.675 49.04 625.422 50.72 626.862 54.08C628.355 57.3867 629.102 61.84 629.102 67.44V77.2C629.102 83.5467 628.275 88.4 626.622 91.76C624.969 95.0667 622.089 96.72 617.982 96.72C615.102 96.72 612.355 95.2533 609.742 92.32V111.2H603.902V49.76ZM617.102 92.08C619.555 92.08 621.182 90.9333 621.982 88.64C622.835 86.3467 623.262 82.5867 623.262 77.36V67.44C623.262 62.48 622.835 58.9333 621.982 56.8C621.182 54.6667 619.502 53.6 616.942 53.6C614.542 53.6 612.142 54.8 609.742 57.2V88.72C611.875 90.96 614.329 92.08 617.102 92.08ZM637.341 31.2H643.181V54.64C646.648 50.9067 650.408 49.04 654.461 49.04C656.755 49.04 658.515 49.8933 659.741 51.6C660.968 53.3067 661.581 55.7333 661.581 58.88V96H655.661V60.16C655.661 57.8133 655.288 56.1333 654.541 55.12C653.848 54.1067 652.755 53.6 651.261 53.6C649.981 53.6 648.621 54 647.181 54.8C645.795 55.6 644.461 56.6667 643.181 58V96H637.341V31.2ZM681.83 96.72C678.843 96.72 676.443 96.1333 674.63 94.96C672.817 93.7867 671.483 91.8933 670.63 89.28C669.777 86.6667 669.35 83.12 669.35 78.64V66.96C669.35 62.4267 669.777 58.88 670.63 56.32C671.537 53.7067 672.897 51.84 674.71 50.72C676.577 49.6 678.977 49.04 681.91 49.04C685.11 49.04 687.563 49.7333 689.27 51.12C691.03 52.4533 692.23 54.48 692.87 57.2C693.563 59.92 693.91 63.5733 693.91 68.16V72.32H675.19V80.4C675.19 84.8267 675.697 87.92 676.71 89.68C677.723 91.44 679.43 92.32 681.83 92.32C683.857 92.32 685.403 91.68 686.47 90.4C687.59 89.12 688.15 86.8 688.15 83.44V80.24H693.83V82.8C693.83 87.28 692.897 90.72 691.03 93.12C689.163 95.52 686.097 96.72 681.83 96.72ZM688.15 68.96V65.12C688.15 62.3467 687.99 60.16 687.67 58.56C687.403 56.96 686.817 55.7067 685.91 54.8C685.003 53.8933 683.643 53.44 681.83 53.44C680.177 53.44 678.87 53.8133 677.91 54.56C676.95 55.2533 676.257 56.5067 675.83 58.32C675.403 60.08 675.19 62.5867 675.19 65.84V68.96H688.15ZM678.31 31.2H684.87L691.67 45.44H687.35L681.51 34.16L675.75 45.44H671.35L678.31 31.2ZM732.281 96.72C729.294 96.72 726.547 95.2533 724.041 92.32V96H718.201V31.2H724.041V53.6C725.054 52.2667 726.307 51.1733 727.801 50.32C729.294 49.4667 730.974 49.04 732.841 49.04C736.894 49.04 739.667 50.72 741.161 54.08C742.654 57.44 743.401 61.8933 743.401 67.44V77.2C743.401 83.5467 742.574 88.4 740.921 91.76C739.267 95.0667 736.387 96.72 732.281 96.72ZM731.241 92.08C733.747 92.08 735.401 90.9333 736.201 88.64C737.054 86.3467 737.481 82.5867 737.481 77.36V67.44C737.481 62.48 737.054 58.9333 736.201 56.8C735.401 54.6667 733.721 53.6 731.161 53.6C728.814 53.6 726.441 54.8 724.041 57.2V88.72C726.067 90.96 728.467 92.08 731.241 92.08ZM762.842 96.72C758.255 96.72 755.055 95.3067 753.242 92.48C751.429 89.6 750.522 85.2 750.522 79.28V66.48C750.522 60.56 751.429 56.1867 753.242 53.36C755.055 50.48 758.255 49.04 762.842 49.04C767.482 49.04 770.709 50.48 772.522 53.36C774.335 56.1867 775.242 60.56 775.242 66.48V79.28C775.242 85.2 774.335 89.6 772.522 92.48C770.709 95.3067 767.482 96.72 762.842 96.72ZM762.842 92.32C764.762 92.32 766.175 91.8133 767.082 90.8C768.042 89.7867 768.655 88.4267 768.922 86.72C769.189 84.96 769.322 82.5867 769.322 79.6V66.16C769.322 63.1733 769.189 60.8267 768.922 59.12C768.655 57.36 768.042 55.9733 767.082 54.96C766.175 53.9467 764.762 53.44 762.842 53.44C760.922 53.44 759.509 53.9467 758.602 54.96C757.695 55.9733 757.109 57.36 756.842 59.12C756.575 60.8267 756.442 63.1733 756.442 66.16V79.6C756.442 82.5867 756.575 84.96 756.842 86.72C757.109 88.4267 757.695 89.7867 758.602 90.8C759.509 91.8133 760.922 92.32 762.842 92.32ZM759.802 100.88H766.042V108H759.802V100.88ZM759.642 33.76H766.202L773.082 45.44H768.762L762.922 36.64L757.082 45.44H752.762L759.642 33.76ZM794.315 96.56C791.168 96.56 788.982 95.7067 787.755 94C786.582 92.24 785.995 89.7067 785.995 86.4V53.6H780.315V49.76H785.995V35.44H791.835V49.76H799.515V53.6H791.835V85.84C791.835 88.1867 792.102 89.8133 792.635 90.72C793.168 91.5733 794.262 92 795.915 92C796.928 92 798.048 91.8667 799.275 91.6V96.08C797.622 96.4 795.968 96.56 794.315 96.56ZM265.44 163H274.2C280.64 163 284.32 158.76 284.32 149.04C284.32 139.32 280.64 135.08 274.2 135.08H265.44V147.16H262.88V149.56H265.44V163ZM268.64 160.2V149.56H273.6V147.16H268.64V137.88H274.2C278.2 137.88 280.88 140.76 280.88 145.92V152.16C280.88 157.32 278.2 160.2 274.2 160.2H268.64ZM293.494 134.88H297.734L295.734 139L297.454 139.92L298.614 138.32C299.654 136.92 300.094 135.6 300.094 134.48C300.094 133.04 299.374 132.4 297.734 132.4H293.494V134.88ZM300.854 163H303.894V142.36H300.854V156.44C300.854 159.12 298.894 160.72 296.454 160.72C293.654 160.72 292.294 158.88 292.294 155.6V142.36H289.254V155.8C289.254 161 291.494 163.48 295.174 163.48C298.054 163.48 299.654 162.16 300.454 159.64H300.854V163ZM330.278 163H333.318V133.4H330.278V145.72H329.878C329.078 143.04 327.238 141.88 324.678 141.88C319.758 141.88 317.158 146.04 317.158 152.68C317.158 159.32 319.758 163.48 324.678 163.48C327.238 163.48 329.078 162.32 329.878 159.64H330.278V163ZM325.598 160.76C322.238 160.76 320.438 158.52 320.438 154.76V150.6C320.438 146.84 322.238 144.6 325.598 144.6C328.158 144.6 330.278 146.2 330.278 148.52V156.84C330.278 159.16 328.158 160.76 325.598 160.76ZM346.295 139.6L348.255 138.6L345.175 131.84L342.415 133.28L346.295 139.6ZM350.815 163H353.855V142.36H350.815V156.44C350.815 159.12 348.855 160.72 346.415 160.72C343.615 160.72 342.255 158.88 342.255 155.6V142.36H339.215V155.8C339.215 161 341.455 163.48 345.135 163.48C348.015 163.48 349.615 162.16 350.415 159.64H350.815V163ZM362.963 163V148.92C362.963 146.24 364.923 144.64 367.363 144.64C370.163 144.64 371.523 146.48 371.523 149.76V163H374.563V149.56C374.563 144.36 372.323 141.88 368.643 141.88C365.763 141.88 364.163 143.2 363.363 145.72H362.963V142.36H359.923V163H362.963ZM396.191 165.32C396.191 161.8 394.311 159.88 389.671 159.88H385.151C383.471 159.88 382.751 159.32 382.751 158.28C382.751 157.32 383.551 156.24 385.031 155.96C385.631 156.08 386.311 156.16 386.991 156.16C391.271 156.16 394.071 153.72 394.071 149.04C394.071 146.52 393.271 144.68 391.871 143.48V142.36H395.431V139.68H392.671C391.111 139.68 390.471 140.32 390.471 141.88V142.6C389.471 142.16 388.311 141.92 386.991 141.92C382.711 141.92 379.911 144.36 379.911 149.04C379.911 152.2 381.191 154.32 383.311 155.4V155.84C381.111 156.08 380.151 157.44 380.151 159.16C380.151 160.44 380.791 161.36 381.871 161.96V162.52C380.111 162.84 378.871 164.16 378.871 166.36C378.871 169.68 381.191 171.48 387.111 171.48C393.271 171.48 396.191 169.68 396.191 165.32ZM393.351 165.52C393.351 167.92 391.631 168.96 388.351 168.96H385.711C382.911 168.96 381.671 167.68 381.671 165.6C381.671 164.2 382.151 163.36 383.351 162.76H389.631C392.311 162.76 393.351 163.72 393.351 165.52ZM386.991 153.68C384.511 153.68 383.031 152.4 383.031 149.76V148.28C383.031 145.64 384.511 144.36 386.991 144.36C389.471 144.36 390.951 145.64 390.951 148.28V149.76C390.951 152.4 389.471 153.68 386.991 153.68ZM414.77 163.48C418.45 163.48 420.93 161.6 422.17 158.76L419.93 157.2C418.97 159.56 417.41 160.76 414.77 160.76C411.41 160.76 409.85 158.8 409.85 154.76V150.6C409.85 146.56 411.41 144.6 414.77 144.6C417.33 144.6 418.77 145.8 419.45 147.92L421.97 146.64C420.89 143.88 418.65 141.88 414.77 141.88C409.65 141.88 406.57 145 406.57 152.68C406.57 160.36 409.65 163.48 414.77 163.48ZM426.134 163H429.174V148.92C429.174 146.24 431.134 144.64 433.574 144.64C436.374 144.64 437.734 146.48 437.734 149.76V163H440.774V149.56C440.774 144.36 438.534 141.88 434.854 141.88C431.974 141.88 430.374 143.2 429.574 145.72H429.174V133.4H426.134V163ZM453.682 163.48C458.522 163.48 462.122 160.36 462.122 152.68C462.122 145 458.522 141.88 453.682 141.88C448.842 141.88 445.242 145 445.242 152.68C445.242 160.36 448.842 163.48 453.682 163.48ZM453.682 160.76C450.402 160.76 448.522 158.8 448.522 154.76V150.6C448.522 146.56 450.402 144.6 453.682 144.6C456.962 144.6 458.842 146.56 458.842 150.6V154.76C458.842 158.8 456.962 160.76 453.682 160.76ZM491.954 163V160.2H485.554V135.08H482.034L474.114 140.28L475.474 142.48L482.354 138V160.2H475.394V163H491.954ZM505.836 152.48V149.2H496.236V152.48H505.836ZM527.49 160.2H514.33L521.29 152.88C525.45 148.52 526.57 146.2 526.57 142.56C526.57 137.36 524.13 134.6 518.93 134.6C514.61 134.6 511.81 137.2 510.77 140.6L513.57 141.72C514.25 139.04 516.01 137.44 518.85 137.44C521.81 137.44 523.21 139.04 523.21 142.44V143.48C523.21 145.8 522.05 148.12 519.37 150.88L510.89 159.68V163H527.49V160.2ZM544.408 163V148.92C544.408 146.24 546.368 144.64 548.808 144.64C551.608 144.64 552.968 146.48 552.968 149.76V163H556.008V149.56C556.008 144.36 553.768 141.88 550.088 141.88C547.208 141.88 545.608 143.2 544.808 145.72H544.408V142.36H541.368V163H544.408ZM577.636 165.32C577.636 161.8 575.756 159.88 571.116 159.88H566.596C564.916 159.88 564.196 159.32 564.196 158.28C564.196 157.32 564.996 156.24 566.476 155.96C567.076 156.08 567.756 156.16 568.436 156.16C572.716 156.16 575.516 153.72 575.516 149.04C575.516 146.52 574.716 144.68 573.316 143.48V142.36H576.876V139.68H574.116C572.556 139.68 571.916 140.32 571.916 141.88V142.6C570.916 142.16 569.756 141.92 568.436 141.92C564.156 141.92 561.356 144.36 561.356 149.04C561.356 152.2 562.636 154.32 564.756 155.4V155.84C562.556 156.08 561.596 157.44 561.596 159.16C561.596 160.44 562.236 161.36 563.316 161.96V162.52C561.556 162.84 560.316 164.16 560.316 166.36C560.316 169.68 562.636 171.48 568.556 171.48C574.716 171.48 577.636 169.68 577.636 165.32ZM574.796 165.52C574.796 167.92 573.076 168.96 569.796 168.96H567.156C564.356 168.96 563.116 167.68 563.116 165.6C563.116 164.2 563.596 163.36 564.796 162.76H571.076C573.756 162.76 574.796 163.72 574.796 165.52ZM568.436 153.68C565.956 153.68 564.476 152.4 564.476 149.76V148.28C564.476 145.64 565.956 144.36 568.436 144.36C570.916 144.36 572.396 145.64 572.396 148.28V149.76C572.396 152.4 570.916 153.68 568.436 153.68ZM591.743 159.64H592.143V163H595.183V144.4H595.743C597.663 144.4 598.143 143.92 598.143 142V137.88H595.503V142.36H592.143V156.44C592.143 159.12 590.183 160.72 587.743 160.72C584.943 160.72 583.583 158.88 583.583 155.6V142.36H580.543V155.8C580.543 161 582.783 163.48 586.463 163.48C589.343 163.48 590.943 162.16 591.743 159.64ZM608.245 139.6L610.205 138.6L607.125 131.84L604.365 133.28L608.245 139.6ZM614.565 137.88V142.36H611.565C610.645 142.04 609.605 141.88 608.525 141.88C603.685 141.88 600.085 145 600.085 152.68C600.085 160.36 603.685 163.48 608.525 163.48C613.365 163.48 616.965 160.36 616.965 152.68C616.965 148.12 615.565 145.4 612.565 144.72V144.4H614.805C616.725 144.4 617.205 143.92 617.205 142V137.88H614.565ZM608.525 160.76C605.245 160.76 603.365 158.8 603.365 154.76V150.6C603.365 146.56 605.245 144.6 608.525 144.6C611.805 144.6 613.685 146.56 613.685 150.6V154.76C613.685 158.8 611.805 160.76 608.525 160.76ZM623.162 137.36C624.482 137.36 625.042 136.76 625.042 135.72V135.08C625.042 134.04 624.482 133.44 623.162 133.44C621.842 133.44 621.282 134.04 621.282 135.08V135.72C621.282 136.76 621.842 137.36 623.162 137.36ZM621.642 163H624.682V142.36H621.642V163ZM647.1 163V160.32H643.3V145.04H647.3V142.36H643.3V136.68H640.54V140.52C640.54 141.72 640.22 142.36 639.02 142.36H637.22V145.04H640.26V159.88C640.26 162.04 641.22 163 643.38 163H647.1ZM654.994 163V149.28C654.994 146.76 656.714 145.44 659.594 145.44H661.594V142.36H660.474C657.794 142.36 656.074 143.84 655.394 146.2H654.994V142.36H651.954V163H654.994ZM672.197 163.48C677.037 163.48 680.637 160.36 680.637 152.68C680.637 145 677.037 141.88 672.197 141.88C667.357 141.88 663.757 145 663.757 152.68C663.757 160.36 667.357 163.48 672.197 163.48ZM672.197 160.76C668.917 160.76 667.037 158.8 667.037 154.76V150.6C667.037 146.56 668.917 144.6 672.197 144.6C675.477 144.6 677.357 146.56 677.357 150.6V154.76C677.357 158.8 675.477 160.76 672.197 160.76ZM688.353 163V148.92C688.353 146.24 690.313 144.64 692.753 144.64C695.553 144.64 696.913 146.48 696.913 149.76V163H699.953V149.56C699.953 144.36 697.713 141.88 694.033 141.88C691.153 141.88 689.553 143.2 688.753 145.72H688.353V142.36H685.313V163H688.353ZM721.581 165.32C721.581 161.8 719.701 159.88 715.061 159.88H710.541C708.861 159.88 708.141 159.32 708.141 158.28C708.141 157.32 708.941 156.24 710.421 155.96C711.021 156.08 711.701 156.16 712.381 156.16C716.661 156.16 719.461 153.72 719.461 149.04C719.461 146.52 718.661 144.68 717.261 143.48V142.36H720.821V139.68H718.061C716.501 139.68 715.861 140.32 715.861 141.88V142.6C714.861 142.16 713.701 141.92 712.381 141.92C708.101 141.92 705.301 144.36 705.301 149.04C705.301 152.2 706.581 154.32 708.701 155.4V155.84C706.501 156.08 705.541 157.44 705.541 159.16C705.541 160.44 706.181 161.36 707.261 161.96V162.52C705.501 162.84 704.261 164.16 704.261 166.36C704.261 169.68 706.581 171.48 712.501 171.48C718.661 171.48 721.581 169.68 721.581 165.32ZM718.741 165.52C718.741 167.92 717.021 168.96 713.741 168.96H711.101C708.301 168.96 707.061 167.68 707.061 165.6C707.061 164.2 707.541 163.36 708.741 162.76H715.021C717.701 162.76 718.741 163.72 718.741 165.52ZM712.381 153.68C709.901 153.68 708.421 152.4 708.421 149.76V148.28C708.421 145.64 709.901 144.36 712.381 144.36C714.861 144.36 716.341 145.64 716.341 148.28V149.76C716.341 152.4 714.861 153.68 712.381 153.68ZM750.04 163V160.2H743.64V135.08H740.12L732.2 140.28L733.56 142.48L740.44 138V160.2H733.48V163H750.04ZM768.362 163V157.52H771.962V154.84H768.362V135.08H763.682L753.282 154.68V157.52H765.322V163H768.362ZM764.922 137.64H765.322V154.84H756.202L764.922 137.64ZM788.08 163V148.92C788.08 146.24 790.04 144.64 792.48 144.64C795.28 144.64 796.64 146.48 796.64 149.76V163H799.68V149.56C799.68 144.36 797.44 141.88 793.76 141.88C790.88 141.88 789.28 143.2 788.48 145.72H788.08V142.36H785.04V163H788.08ZM821.308 165.32C821.308 161.8 819.428 159.88 814.788 159.88H810.268C808.588 159.88 807.868 159.32 807.868 158.28C807.868 157.32 808.668 156.24 810.148 155.96C810.748 156.08 811.428 156.16 812.108 156.16C816.388 156.16 819.188 153.72 819.188 149.04C819.188 146.52 818.388 144.68 816.988 143.48V142.36H820.548V139.68H817.788C816.228 139.68 815.588 140.32 815.588 141.88V142.6C814.588 142.16 813.428 141.92 812.108 141.92C807.828 141.92 805.028 144.36 805.028 149.04C805.028 152.2 806.308 154.32 808.428 155.4V155.84C806.228 156.08 805.268 157.44 805.268 159.16C805.268 160.44 805.908 161.36 806.988 161.96V162.52C805.228 162.84 803.988 164.16 803.988 166.36C803.988 169.68 806.308 171.48 812.228 171.48C818.388 171.48 821.308 169.68 821.308 165.32ZM818.468 165.52C818.468 167.92 816.748 168.96 813.468 168.96H810.828C808.028 168.96 806.788 167.68 806.788 165.6C806.788 164.2 807.268 163.36 808.468 162.76H814.748C817.428 162.76 818.468 163.72 818.468 165.52ZM812.108 153.68C809.628 153.68 808.148 152.4 808.148 149.76V148.28C808.148 145.64 809.628 144.36 812.108 144.36C814.588 144.36 816.068 145.64 816.068 148.28V149.76C816.068 152.4 814.588 153.68 812.108 153.68ZM830.41 139.6L832.37 138.6L829.29 131.84L826.53 133.28L830.41 139.6ZM839.81 163V160.32H837.73V148.64C837.73 144.24 835.21 141.92 830.57 141.92C827.41 141.92 824.93 143.68 823.85 145.88L825.65 147.56C826.69 145.6 828.09 144.52 830.45 144.52C833.37 144.52 834.69 145.92 834.69 148.96V151.24H830.97C825.61 151.24 823.13 153.64 823.13 157.48C823.13 161.4 825.09 163.48 829.09 163.48C831.61 163.48 833.61 162.12 834.29 159.64H834.69V160.04C834.69 161.96 835.73 163 837.65 163H839.81ZM829.85 160.84C827.69 160.84 826.29 159.88 826.29 157.8V156.68C826.29 154.68 827.69 153.56 830.89 153.56H834.69V156.68C834.69 158.8 832.65 160.84 829.85 160.84ZM851.752 152.76L849.832 160.32H849.432L847.512 152.76L844.352 142.36H841.312L848.152 164.12L846.952 168.32H843.792V171H846.032C848.352 171 849.032 170.44 849.712 168.28L857.872 142.36H854.912L851.752 152.76Z" fill="#1B1703"/>
<path d="M112 0L123.122 6.18287L135.286 2.44747L144.879 10.8076L157.555 9.68291L165.2 19.8549L177.832 21.3901L183.195 32.9294L195.232 37.0574L198.079 49.4596L208.995 56L209.201 68.7232L218.518 77.3901L216.075 89.8782L223.386 100.293L218.4 112L223.386 123.707L216.075 134.122L218.518 146.61L209.201 155.277L208.995 168L198.079 174.54L195.232 186.943L183.195 191.071L177.832 202.61L165.2 204.145L157.555 214.317L144.879 213.192L135.286 221.553L123.122 217.817L112 224L100.878 217.817L88.7139 221.553L79.1206 213.192L66.4455 214.317L58.8 204.145L46.1681 202.61L40.8045 191.071L28.7678 186.943L25.9206 174.54L15.0052 168L14.7988 155.277L5.48167 146.61L7.92509 134.122L0.613548 123.707L5.6 112L0.613548 100.293L7.92509 89.8782L5.48167 77.3901L14.7988 68.7232L15.0052 56L25.9206 49.4596L28.7678 37.0574L40.8045 32.9294L46.1681 21.3901L58.8 19.8549L66.4455 9.68291L79.1206 10.8076L88.7139 2.44747L100.878 6.18287L112 0Z" fill="#FDB811"/>
<path d="M83.825 101H87.525V83.15H76.725V86.65H83.625V90.45C83.625 95.25 79.875 98.05 75.325 98.05C69.575 98.05 66.275 93.9 66.275 87.45V79.65C66.275 73.2 69.575 69.05 75.325 69.05C79.625 69.05 82.325 71.25 83.675 74.9L86.975 72.9C84.925 68.35 81.425 65.5 75.325 65.5C66.875 65.5 61.975 71.1 61.975 83.55C61.975 96 67.075 101.6 74.675 101.6C79.825 101.6 82.575 99.25 83.325 96.15H83.825V101ZM96.4227 68.95C98.0727 68.95 98.7727 68.2 98.7727 66.9V66.1C98.7727 64.8 98.0727 64.05 96.4227 64.05C94.7727 64.05 94.0727 64.8 94.0727 66.1V66.9C94.0727 68.2 94.7727 68.95 96.4227 68.95ZM94.5227 101H98.3227V75.2H94.5227V101ZM109.6 65.85H114.9L112.4 71L114.55 72.15L116 70.15C117.3 68.4 117.85 66.75 117.85 65.35C117.85 63.55 116.95 62.75 114.9 62.75H109.6V65.85ZM124.9 101V97.65H122.3V83.05C122.3 77.55 119.15 74.65 113.35 74.65C109.4 74.65 106.3 76.85 104.95 79.6L107.2 81.7C108.5 79.25 110.25 77.9 113.2 77.9C116.85 77.9 118.5 79.65 118.5 83.45V86.3H113.85C107.15 86.3 104.05 89.3 104.05 94.1C104.05 99 106.5 101.6 111.5 101.6C114.65 101.6 117.15 99.9 118 96.8H118.5V97.3C118.5 99.7 119.8 101 122.2 101H124.9ZM112.45 98.3C109.75 98.3 108 97.1 108 94.5V93.1C108 90.6 109.75 89.2 113.75 89.2H118.5V93.1C118.5 95.75 115.95 98.3 112.45 98.3ZM133.87 101V83.4C133.87 80.05 136.22 78.05 139.17 78.05C142.52 78.05 144.17 80.35 144.17 84.45V101H147.97V83.4C147.97 80.05 150.32 78.05 153.27 78.05C156.62 78.05 158.27 80.35 158.27 84.45V101H162.07V84.2C162.07 77.7 159.17 74.6 154.77 74.6C151.07 74.6 148.82 76.25 147.77 79.4H147.27C146.17 76.15 143.82 74.6 140.67 74.6C137.17 74.6 135.37 76.25 134.37 79.4H133.87V75.2H130.07V101H133.87ZM79.9153 161V156.1H68.7153V112.14H62.5553L48.6953 121.24L51.0753 125.09L63.1153 117.25V156.1H50.9353V161H79.9153ZM102.108 161.84C112.678 161.84 117.368 154.63 117.368 136.57C117.368 118.51 112.678 111.3 102.108 111.3C91.538 111.3 86.848 118.51 86.848 136.57C86.848 154.63 91.538 161.84 102.108 161.84ZM102.108 157.01C95.388 157.01 92.728 151.9 92.728 143.29V129.85C92.728 121.24 95.388 116.13 102.108 116.13C108.828 116.13 111.488 121.24 111.488 129.85V143.29C111.488 151.9 108.828 157.01 102.108 157.01ZM137.601 161L168.121 112.14H163.011L132.491 161H137.601ZM135.151 139.02C141.591 139.02 145.231 134.96 145.231 125.16C145.231 115.36 141.591 111.3 135.151 111.3C128.711 111.3 125.071 115.36 125.071 125.16C125.071 134.96 128.711 139.02 135.151 139.02ZM135.151 135.52C131.581 135.52 129.831 133.35 129.831 127.96V122.36C129.831 116.97 131.581 114.8 135.151 114.8C138.721 114.8 140.471 116.97 140.471 122.36V127.96C140.471 133.35 138.721 135.52 135.151 135.52ZM165.461 161.84C171.901 161.84 175.541 157.78 175.541 147.98C175.541 138.18 171.901 134.12 165.461 134.12C159.021 134.12 155.381 138.18 155.381 147.98C155.381 157.78 159.021 161.84 165.461 161.84ZM165.461 158.34C161.891 158.34 160.141 156.17 160.141 150.78V145.18C160.141 139.79 161.891 137.62 165.461 137.62C169.031 137.62 170.781 139.79 170.781 145.18V150.78C170.781 156.17 169.031 158.34 165.461 158.34Z" fill="#1B1703"/>
<path d="M279.717 345.32H267.317L275.277 338.16C279.837 334.08 282.397 331.24 282.397 326.08C282.397 322.08 280.157 319.6 275.797 319.6C271.277 319.6 268.757 322.04 267.157 326.12L269.717 327.24C270.797 324 272.397 322.32 275.397 322.32C278.437 322.32 279.037 324.56 279.037 326C279.037 326.96 278.797 328.32 278.677 328.88C278.277 330.72 276.877 333.16 273.757 335.96L264.037 344.64L263.357 348H279.157L279.717 345.32ZM304.839 320.08H291.799L288.079 335.72L290.639 336.12C291.759 334.48 293.239 333.28 295.519 333.28C298.559 333.28 299.639 334.8 299.639 337.44C299.639 338.2 299.439 339.36 299.279 340.28C298.599 344 296.759 345.76 293.559 345.76C290.279 345.76 288.959 344.24 288.279 341.92L285.719 343.6C286.559 346.16 288.799 348.48 293.159 348.48C299.399 348.48 302.839 344.24 302.839 337.48C302.839 332.68 300.559 330.6 296.879 330.6C294.199 330.6 292.599 331.64 291.479 333.96H291.079L293.719 322.76H304.279L304.839 320.08ZM322.16 349.56C322.16 346.56 320.8 344.96 316.8 344.96H312.04C310.6 344.96 309.92 344.56 309.92 343.44C309.92 342.04 311 341.32 312.8 341.04C313.28 341.08 313.84 341.12 314.32 341.12C319.48 341.12 322.56 337.6 322.56 333.2C322.56 331.28 322.24 329.76 321.48 328.76L321.76 327.36H325L325.52 324.76H322.68C321.4 324.76 320.64 325.44 320.44 326.48L320.2 327.68C319.28 327.16 318.08 326.88 316.6 326.88C311.68 326.88 308.64 330.44 308.64 335.44C308.64 337.72 309.28 339.64 311.08 340.4L311 340.8C308.56 341.28 307.2 342.44 307.2 344.56C307.2 345.76 307.64 346.64 308.68 347.04L308.6 347.44C306 348 304.8 349.84 304.8 352.04C304.8 355.2 307.08 356.48 312 356.48C318.92 356.48 322.16 354.04 322.16 349.56ZM319.12 350.12C319.12 352.76 317.36 354.08 313.44 354.08H311.16C308.52 354.08 307.68 352.96 307.68 351.08C307.68 349.36 308.4 348.32 309.8 347.72H316.48C318.48 347.72 319.12 348.44 319.12 350.12ZM314.92 338.8C312.52 338.8 311.56 337.64 311.56 335.96C311.56 335.36 311.68 334.32 311.92 333.28C312.48 330.84 313.52 329.24 316.32 329.24C318.68 329.24 319.64 330.4 319.64 332.08C319.64 332.68 319.52 333.72 319.28 334.76C318.68 337.36 317.56 338.8 314.92 338.8ZM342.305 348H345.265L345.945 344.64H346.345C346.585 347.16 348.665 348.48 351.025 348.48C355.545 348.48 358.425 345.04 359.665 338.84C359.985 337.16 360.225 335.12 360.225 333.68C360.225 329.64 358.385 326.88 354.825 326.88C352.105 326.88 350.145 328.48 348.905 331.8H348.505L351.185 318.4H348.225L342.305 348ZM350.585 345.88C347.785 345.88 346.185 343.44 346.545 341.6L347.665 336C347.945 334.64 348.905 332.84 349.945 331.52C350.985 330.2 352.145 329.52 353.665 329.52C355.905 329.52 357.265 330.8 357.265 333.72C357.265 334.24 357.265 335 357.105 335.72L356.185 340.36C355.465 343.92 353.585 345.88 350.585 345.88ZM368.37 354.64C369.73 354.64 370.33 354.2 370.61 353C370.73 352.48 370.77 352.24 370.77 351.88C370.77 351.16 370.21 350.72 369.17 350.72C367.81 350.72 367.21 351.16 366.93 352.36C366.81 352.88 366.77 353.12 366.77 353.48C366.77 354.2 367.33 354.64 368.37 354.64ZM373.33 317.4L368.09 323.16L369.65 324.36L374.77 319.64L378.05 324.36L379.69 323.28L376.65 317.4H373.33ZM370.01 348.48C374.85 348.48 378.09 345.04 379.29 339C379.61 337.4 379.85 335.44 379.85 334.04C379.85 329.8 377.57 326.88 373.09 326.88C368.25 326.88 365.01 330.32 363.81 336.36C363.49 337.96 363.25 339.92 363.25 341.32C363.25 345.56 365.53 348.48 370.01 348.48ZM370.25 345.88C367.73 345.88 366.21 344.48 366.21 341.28C366.21 340.8 366.25 340.12 366.37 339.48L367.29 334.84C367.97 331.36 369.85 329.48 372.85 329.48C375.37 329.48 376.89 330.88 376.89 334.08C376.89 334.56 376.85 335.24 376.73 335.88L375.81 340.52C375.13 344 373.25 345.88 370.25 345.88ZM389.504 348L390.024 345.44H386.304L389.384 329.92H393.304L393.824 327.36H389.904L391.064 321.68H388.264L387.464 325.68C387.184 327.04 386.944 327.36 385.664 327.36H384.224L383.704 329.92H386.424L383.424 345C383.344 345.4 383.264 345.8 383.264 346.2C383.264 347.44 383.984 348 385.264 348H389.504ZM446.009 333.12V330.56H429.209V333.12H446.009ZM446.009 341.04V338.48H429.209V341.04H446.009ZM500.036 348L500.596 345.28H494.276L499.316 320.08H495.836L486.876 325.68L488.116 327.8L495.596 323.2L491.196 345.28H484.556L483.996 348H500.036ZM512.115 356H515.075L517.355 344.64H517.755C517.995 347.16 520.075 348.48 522.435 348.48C526.955 348.48 529.835 345.04 531.075 338.84C531.395 337.16 531.635 335.12 531.635 333.68C531.635 329.64 529.795 326.88 526.235 326.88C523.515 326.88 521.555 328.48 520.315 331.8H519.915L520.795 327.36H517.835L512.115 356ZM521.995 345.88C519.195 345.88 517.595 343.44 517.955 341.6L519.075 336C519.355 334.64 520.315 332.84 521.355 331.52C522.395 330.2 523.555 329.52 525.075 329.52C527.315 329.52 528.675 330.8 528.675 333.72C528.675 334.24 528.675 335 528.515 335.72L527.595 340.36C526.875 343.92 524.995 345.88 521.995 345.88ZM534.297 348H537.257L539.657 336C539.937 334.52 540.817 332.52 541.937 331.16C542.857 330.04 544.097 329.52 545.577 329.52C547.257 329.52 548.337 330.36 548.337 332.48C548.337 333.2 548.217 334.16 548.017 335.12L546.057 344.92C545.977 345.32 545.897 345.72 545.897 346.12C545.897 347.36 546.617 348 547.857 348H550.977L551.497 345.44H548.937L550.977 335.2C551.217 334.04 551.377 333.08 551.377 332.24C551.377 328.84 549.817 326.88 546.897 326.88C544.177 326.88 542.137 328.32 540.977 331.4H540.577L543.177 318.4H540.217L534.297 348ZM561.21 322.36C562.41 322.36 563.05 321.72 563.29 320.8C563.41 320.36 563.45 320.04 563.45 319.84C563.45 318.88 562.81 318.44 561.85 318.44C560.65 318.44 560.01 319.08 559.77 320C559.65 320.44 559.61 320.76 559.61 320.96C559.61 321.92 560.25 322.36 561.21 322.36ZM560.09 348L560.61 345.44H558.05L561.65 327.36H558.69L555.17 345C555.09 345.4 555.01 345.8 555.01 346.2C555.01 347.44 555.73 348 557.01 348H560.09ZM567.452 348L569.852 336C570.132 334.52 571.012 332.52 572.132 331.16C573.052 330.04 574.292 329.52 575.772 329.52C577.452 329.52 578.532 330.36 578.532 332.48C578.532 333.2 578.412 334.16 578.212 335.12L576.252 344.92C576.172 345.32 576.092 345.72 576.092 346.12C576.092 347.36 576.812 348 578.052 348H581.172L581.692 345.44H579.132L581.172 335.2C581.412 334.04 581.572 333.08 581.572 332.24C581.572 328.84 580.012 326.88 577.092 326.88C574.372 326.88 572.332 328.32 571.172 331.4H570.772L571.572 327.36H568.612L564.492 348H567.452Z" fill="#1B1703"/>
<path d="M281.907 257.487C274.894 255.626 272.535 246.865 277.665 241.734L286.744 232.655C290.42 228.98 296.379 228.98 300.055 232.655L309.134 241.734C314.264 246.865 311.905 255.626 304.892 257.487L295.813 259.896C294.231 260.315 292.568 260.315 290.986 259.896L281.907 257.487Z" fill="#1B1703"/>
<path fill-rule="evenodd" clip-rule="evenodd" d="M545.645 297.001H514.417C512.852 296.918 511.379 296.238 510.302 295.102C509.224 293.966 508.625 292.46 508.627 290.896V248.874C508.588 248.724 508.579 248.569 508.6 248.416C508.622 248.263 508.673 248.116 508.752 247.983C508.831 247.85 508.935 247.734 509.059 247.642C509.182 247.55 509.323 247.483 509.473 247.445H550.589C550.9 247.445 551.198 247.568 551.417 247.787C551.637 248.006 551.76 248.304 551.76 248.614V256.473H558.266C559.888 256.473 561.444 257.116 562.591 258.261C563.737 259.406 564.382 260.959 564.382 262.578V279.919C564.382 281.538 563.737 283.091 562.591 284.236C561.444 285.381 559.888 286.024 558.266 286.024H551.76V290.701C551.76 292.32 551.116 293.873 549.969 295.018C548.822 296.163 547.267 296.806 545.645 296.806V297.001ZM510.644 250.043V290.896C510.644 291.895 511.042 292.853 511.749 293.559C512.457 294.266 513.417 294.663 514.417 294.663H545.645C546.646 294.663 547.606 294.266 548.313 293.559C549.021 292.853 549.418 291.895 549.418 290.896V250.043H510.644ZM551.76 283.946H558.266C559.262 283.863 560.185 283.396 560.841 282.644C561.497 281.892 561.834 280.915 561.779 279.919V262.838C561.78 261.832 561.384 260.867 560.678 260.151C559.972 259.434 559.013 259.023 558.006 259.006H551.5V283.946H551.76ZM556.77 244.132H503.292C503.139 244.132 502.986 244.102 502.844 244.043C502.702 243.985 502.573 243.898 502.464 243.79C502.356 243.681 502.269 243.552 502.211 243.411C502.152 243.269 502.121 243.117 502.121 242.963V234.455C502.138 234.156 502.269 233.875 502.487 233.67C502.704 233.464 502.993 233.35 503.292 233.351H509.798L502.121 199.577C502.042 199.427 502 199.26 502 199.09C502 198.92 502.042 198.753 502.121 198.603C502.217 198.451 502.352 198.328 502.513 198.248C502.673 198.167 502.853 198.133 503.032 198.148H556.77C556.947 198.146 557.122 198.186 557.281 198.265C557.439 198.344 557.577 198.46 557.681 198.603C557.747 198.757 557.781 198.923 557.781 199.09C557.781 199.258 557.747 199.423 557.681 199.577L550.394 233.416H556.9C557.166 233.444 557.415 233.562 557.605 233.752C557.794 233.941 557.913 234.189 557.941 234.455V242.898C557.941 243.208 557.818 243.506 557.598 243.725C557.378 243.944 557.081 244.067 556.77 244.067V244.132ZM504.724 241.794H555.599V235.689H504.464V241.794H504.724ZM511.88 233.416H547.987L555.339 200.487H504.724L511.88 233.416ZM531.397 189.64C530.052 189.64 528.761 189.106 527.809 188.156C526.858 187.206 526.323 185.918 526.323 184.574C526.331 183.857 526.486 183.15 526.778 182.496L530.487 176.585C530.575 176.404 530.714 176.252 530.887 176.148C531.061 176.044 531.261 175.993 531.462 176.001C531.664 175.993 531.864 176.044 532.038 176.148C532.211 176.252 532.35 176.404 532.438 176.585L536.017 182.496C536.297 183.154 536.452 183.859 536.472 184.574C536.472 185.918 535.937 187.206 534.986 188.156C534.034 189.106 532.743 189.64 531.397 189.64ZM531.397 179.378L528.795 183.665C528.749 183.966 528.749 184.273 528.795 184.574C528.795 185.297 529.083 185.991 529.595 186.503C530.108 187.014 530.803 187.302 531.528 187.302C532.252 187.302 532.947 187.014 533.46 186.503C533.972 185.991 534.26 185.297 534.26 184.574C534.328 184.231 534.328 183.878 534.26 183.535L531.397 179.378Z" fill="#1B1703"/>
<path d="M272 247H316.178C315.319 264.927 272 263.729 272 247Z" fill="#FAFAFA"/>
<path d="M316.178 247H272C272 263.729 315.319 264.927 316.178 247ZM316.178 247H388" stroke="#1B1703" stroke-width="2.5"/>
<path d="M281.907 218.487C274.894 216.626 272.535 207.865 277.665 202.734L286.744 193.655C290.42 189.98 296.379 189.98 300.055 193.655L309.134 202.734C314.264 207.865 311.905 216.626 304.892 218.487L295.813 220.896C294.231 221.315 292.568 221.315 290.986 220.896L281.907 218.487Z" fill="#1B1703"/>
<path d="M272 208H316.178C315.319 225.927 272 224.729 272 208Z" fill="#FAFAFA"/>
<path d="M316.178 208H272C272 224.729 315.319 225.927 316.178 208ZM316.178 208H388" stroke="#1B1703" stroke-width="2.5"/>
<path d="M281.907 294.487C274.894 292.626 272.535 283.865 277.665 278.734L286.744 269.655C290.42 265.98 296.379 265.98 300.055 269.655L309.134 278.734C314.264 283.865 311.905 292.626 304.892 294.487L295.813 296.896C294.231 297.315 292.568 297.315 290.986 296.896L281.907 294.487Z" fill="#1B1703"/>
<path d="M272 284H316.178C315.319 301.927 272 300.729 272 284Z" fill="#FAFAFA"/>
<path d="M316.178 284H272C272 300.729 315.319 301.927 316.178 284ZM316.178 284H388" stroke="#1B1703" stroke-width="2.5"/>
</svg>
