<svg width="859" height="359" viewBox="0 0 859 359" fill="none" xmlns="http://www.w3.org/2000/svg">
<path d="M267.6 31.2H273.76V59.92H294.16V31.2H300.24V96H294.16V64.48H273.76V96H267.6V31.2ZM318.386 96.72C315.613 96.72 313.373 95.7333 311.666 93.76C309.96 91.7867 309.106 89.3333 309.106 86.4C309.106 83.36 309.693 80.8533 310.866 78.88C312.093 76.9067 313.96 75.1467 316.466 73.6C318.973 72.0533 322.733 70.16 327.746 67.92V64.64C327.746 61.76 327.56 59.52 327.186 57.92C326.866 56.32 326.28 55.1733 325.426 54.48C324.626 53.7867 323.48 53.44 321.986 53.44C317.666 53.44 315.506 56.08 315.506 61.36V62.96L309.746 62.88C309.8 58.1333 310.813 54.64 312.786 52.4C314.76 50.16 317.933 49.04 322.306 49.04C326.36 49.04 329.24 50.2667 330.946 52.72C332.706 55.1733 333.586 59.04 333.586 64.32V86.8C333.586 88.2933 333.613 90 333.666 91.92C333.773 93.84 333.88 95.2 333.986 96H328.786L327.906 89.6C327.213 91.6267 326.013 93.3333 324.306 94.72C322.653 96.0533 320.68 96.72 318.386 96.72ZM320.226 91.76C321.826 91.76 323.266 91.2267 324.546 90.16C325.88 89.04 326.946 87.7333 327.746 86.24V71.84C324.12 73.76 321.48 75.2533 319.826 76.32C318.226 77.3867 317 78.5867 316.146 79.92C315.346 81.2 314.946 82.88 314.946 84.96C314.946 87.2533 315.426 88.96 316.386 90.08C317.4 91.2 318.68 91.76 320.226 91.76ZM342.823 35.44H348.663V43.36H342.823V35.44ZM342.823 49.76H348.663V96H342.823V49.76ZM374.919 31.2H380.759V72.32L396.199 49.76H402.359L390.679 67.6L401.879 96H395.959L386.199 70.88L380.759 78.48V96H374.919V31.2ZM407.511 49.76H413.351V96H407.511V49.76ZM413.991 30.24H419.831L411.991 45.92H408.951L413.991 30.24ZM421.69 67.6H438.65V72.24H421.69V67.6ZM447.28 31.2H453.12V96H447.28V31.2ZM474.092 96.72C469.505 96.72 466.305 95.3067 464.492 92.48C462.679 89.6 461.772 85.2 461.772 79.28V66.48C461.772 60.56 462.679 56.1867 464.492 53.36C466.305 50.48 469.505 49.04 474.092 49.04C478.732 49.04 481.959 50.48 483.772 53.36C485.585 56.1867 486.492 60.56 486.492 66.48V79.28C486.492 85.2 485.585 89.6 483.772 92.48C481.959 95.3067 478.732 96.72 474.092 96.72ZM474.092 92.32C476.012 92.32 477.425 91.8133 478.332 90.8C479.292 89.7867 479.905 88.4267 480.172 86.72C480.439 84.96 480.572 82.5867 480.572 79.6V66.16C480.572 63.1733 480.439 60.8267 480.172 59.12C479.905 57.36 479.292 55.9733 478.332 54.96C477.425 53.9467 476.012 53.44 474.092 53.44C472.172 53.44 470.759 53.9467 469.852 54.96C468.945 55.9733 468.359 57.36 468.092 59.12C467.825 60.8267 467.692 63.1733 467.692 66.16V79.6C467.692 82.5867 467.825 84.96 468.092 86.72C468.359 88.4267 468.945 89.7867 469.852 90.8C470.759 91.8133 472.172 92.32 474.092 92.32ZM470.892 31.2H477.452L484.252 45.44H479.932L474.092 34.16L468.332 45.44H463.932L470.892 31.2ZM522.453 96.72C519.04 96.72 516.426 95.9733 514.613 94.48C512.8 92.9333 511.573 90.88 510.933 88.32C510.346 85.7067 510.053 82.4267 510.053 78.48V67.68C510.053 63.2 510.4 59.6267 511.093 56.96C511.84 54.2933 513.093 52.32 514.853 51.04C516.666 49.7067 519.2 49.04 522.453 49.04C526.986 49.04 530.08 50.2933 531.733 52.8C533.386 55.2533 534.213 58.9333 534.213 63.84V66.08H528.773V63.84C528.773 61.12 528.56 59.0133 528.133 57.52C527.76 56.0267 527.12 54.9867 526.213 54.4C525.306 53.76 524.053 53.44 522.453 53.44C520.64 53.44 519.253 53.8667 518.293 54.72C517.386 55.5733 516.746 56.9333 516.373 58.8C516.053 60.6133 515.893 63.2533 515.893 66.72V79.68C515.893 82.88 516.08 85.3867 516.453 87.2C516.826 89.0133 517.493 90.32 518.453 91.12C519.413 91.92 520.773 92.32 522.533 92.32C524.346 92.32 525.68 91.9467 526.533 91.2C527.44 90.4 528.026 89.2267 528.293 87.68C528.613 86.1333 528.773 83.9733 528.773 81.2V78.64H534.213V80.88C534.213 84.3467 533.893 87.2267 533.253 89.52C532.666 91.76 531.52 93.52 529.813 94.8C528.106 96.08 525.653 96.72 522.453 96.72ZM550.027 96.72C547.254 96.72 545.014 95.7333 543.307 93.76C541.6 91.7867 540.747 89.3333 540.747 86.4C540.747 83.36 541.334 80.8533 542.507 78.88C543.734 76.9067 545.6 75.1467 548.107 73.6C550.614 72.0533 554.374 70.16 559.387 67.92V64.64C559.387 61.76 559.2 59.52 558.827 57.92C558.507 56.32 557.92 55.1733 557.067 54.48C556.267 53.7867 555.12 53.44 553.627 53.44C549.307 53.44 547.147 56.08 547.147 61.36V62.96L541.387 62.88C541.44 58.1333 542.454 54.64 544.427 52.4C546.4 50.16 549.574 49.04 553.947 49.04C558 49.04 560.88 50.2667 562.587 52.72C564.347 55.1733 565.227 59.04 565.227 64.32V86.8C565.227 88.2933 565.254 90 565.307 91.92C565.414 93.84 565.52 95.2 565.627 96H560.427L559.547 89.6C558.854 91.6267 557.654 93.3333 555.947 94.72C554.294 96.0533 552.32 96.72 550.027 96.72ZM551.867 91.76C553.467 91.76 554.907 91.2267 556.187 90.16C557.52 89.04 558.587 87.7333 559.387 86.24V71.84C555.76 73.76 553.12 75.2533 551.467 76.32C549.867 77.3867 548.64 78.5867 547.787 79.92C546.987 81.2 546.587 82.88 546.587 84.96C546.587 87.2533 547.067 88.96 548.027 90.08C549.04 91.2 550.32 91.76 551.867 91.76ZM544.987 30.24H550.907L555.307 45.92H552.347L544.987 30.24ZM590.152 49.76H595.992V53.6C598.392 50.56 601.352 49.04 604.872 49.04C608.925 49.04 611.672 50.72 613.112 54.08C614.605 57.3867 615.352 61.84 615.352 67.44V77.2C615.352 83.5467 614.525 88.4 612.872 91.76C611.219 95.0667 608.339 96.72 604.232 96.72C601.352 96.72 598.605 95.2533 595.992 92.32V111.2H590.152V49.76ZM603.352 92.08C605.805 92.08 607.432 90.9333 608.232 88.64C609.085 86.3467 609.512 82.5867 609.512 77.36V67.44C609.512 62.48 609.085 58.9333 608.232 56.8C607.432 54.6667 605.752 53.6 603.192 53.6C600.792 53.6 598.392 54.8 595.992 57.2V88.72C598.125 90.96 600.579 92.08 603.352 92.08ZM623.591 31.2H629.431V54.64C632.898 50.9067 636.658 49.04 640.711 49.04C643.005 49.04 644.765 49.8933 645.991 51.6C647.218 53.3067 647.831 55.7333 647.831 58.88V96H641.911V60.16C641.911 57.8133 641.538 56.1333 640.791 55.12C640.098 54.1067 639.005 53.6 637.511 53.6C636.231 53.6 634.871 54 633.431 54.8C632.045 55.6 630.711 56.6667 629.431 58V96H623.591V31.2ZM668.08 96.72C665.093 96.72 662.693 96.1333 660.88 94.96C659.067 93.7867 657.733 91.8933 656.88 89.28C656.027 86.6667 655.6 83.12 655.6 78.64V66.96C655.6 62.4267 656.027 58.88 656.88 56.32C657.787 53.7067 659.147 51.84 660.96 50.72C662.827 49.6 665.227 49.04 668.16 49.04C671.36 49.04 673.813 49.7333 675.52 51.12C677.28 52.4533 678.48 54.48 679.12 57.2C679.813 59.92 680.16 63.5733 680.16 68.16V72.32H661.44V80.4C661.44 84.8267 661.947 87.92 662.96 89.68C663.973 91.44 665.68 92.32 668.08 92.32C670.107 92.32 671.653 91.68 672.72 90.4C673.84 89.12 674.4 86.8 674.4 83.44V80.24H680.08V82.8C680.08 87.28 679.147 90.72 677.28 93.12C675.413 95.52 672.347 96.72 668.08 96.72ZM674.4 68.96V65.12C674.4 62.3467 674.24 60.16 673.92 58.56C673.653 56.96 673.067 55.7067 672.16 54.8C671.253 53.8933 669.893 53.44 668.08 53.44C666.427 53.44 665.12 53.8133 664.16 54.56C663.2 55.2533 662.507 56.5067 662.08 58.32C661.653 60.08 661.44 62.5867 661.44 65.84V68.96H674.4ZM664.56 31.2H671.12L677.92 45.44H673.6L667.76 34.16L662 45.44H657.6L664.56 31.2ZM718.531 96.72C715.544 96.72 712.797 95.2533 710.291 92.32V96H704.451V31.2H710.291V53.6C711.304 52.2667 712.557 51.1733 714.051 50.32C715.544 49.4667 717.224 49.04 719.091 49.04C723.144 49.04 725.917 50.72 727.411 54.08C728.904 57.44 729.651 61.8933 729.651 67.44V77.2C729.651 83.5467 728.824 88.4 727.171 91.76C725.517 95.0667 722.637 96.72 718.531 96.72ZM717.491 92.08C719.997 92.08 721.651 90.9333 722.451 88.64C723.304 86.3467 723.731 82.5867 723.731 77.36V67.44C723.731 62.48 723.304 58.9333 722.451 56.8C721.651 54.6667 719.971 53.6 717.411 53.6C715.064 53.6 712.691 54.8 710.291 57.2V88.72C712.317 90.96 714.717 92.08 717.491 92.08ZM749.092 96.72C744.505 96.72 741.305 95.3067 739.492 92.48C737.679 89.6 736.772 85.2 736.772 79.28V66.48C736.772 60.56 737.679 56.1867 739.492 53.36C741.305 50.48 744.505 49.04 749.092 49.04C753.732 49.04 756.959 50.48 758.772 53.36C760.585 56.1867 761.492 60.56 761.492 66.48V79.28C761.492 85.2 760.585 89.6 758.772 92.48C756.959 95.3067 753.732 96.72 749.092 96.72ZM749.092 92.32C751.012 92.32 752.425 91.8133 753.332 90.8C754.292 89.7867 754.905 88.4267 755.172 86.72C755.439 84.96 755.572 82.5867 755.572 79.6V66.16C755.572 63.1733 755.439 60.8267 755.172 59.12C754.905 57.36 754.292 55.9733 753.332 54.96C752.425 53.9467 751.012 53.44 749.092 53.44C747.172 53.44 745.759 53.9467 744.852 54.96C743.945 55.9733 743.359 57.36 743.092 59.12C742.825 60.8267 742.692 63.1733 742.692 66.16V79.6C742.692 82.5867 742.825 84.96 743.092 86.72C743.359 88.4267 743.945 89.7867 744.852 90.8C745.759 91.8133 747.172 92.32 749.092 92.32ZM746.052 100.88H752.292V108H746.052V100.88ZM745.892 33.76H752.452L759.332 45.44H755.012L749.172 36.64L743.332 45.44H739.012L745.892 33.76ZM780.565 96.56C777.418 96.56 775.232 95.7067 774.005 94C772.832 92.24 772.245 89.7067 772.245 86.4V53.6H766.565V49.76H772.245V35.44H778.085V49.76H785.765V53.6H778.085V85.84C778.085 88.1867 778.352 89.8133 778.885 90.72C779.418 91.5733 780.512 92 782.165 92C783.178 92 784.298 91.8667 785.525 91.6V96.08C783.872 96.4 782.218 96.56 780.565 96.56ZM265.44 163H274.2C280.64 163 284.32 158.76 284.32 149.04C284.32 139.32 280.64 135.08 274.2 135.08H265.44V147.16H262.88V149.56H265.44V163ZM268.64 160.2V149.56H273.6V147.16H268.64V137.88H274.2C278.2 137.88 280.88 140.76 280.88 145.92V152.16C280.88 157.32 278.2 160.2 274.2 160.2H268.64ZM293.494 134.88H297.734L295.734 139L297.454 139.92L298.614 138.32C299.654 136.92 300.094 135.6 300.094 134.48C300.094 133.04 299.374 132.4 297.734 132.4H293.494V134.88ZM300.854 163H303.894V142.36H300.854V156.44C300.854 159.12 298.894 160.72 296.454 160.72C293.654 160.72 292.294 158.88 292.294 155.6V142.36H289.254V155.8C289.254 161 291.494 163.48 295.174 163.48C298.054 163.48 299.654 162.16 300.454 159.64H300.854V163ZM330.278 163H333.318V133.4H330.278V145.72H329.878C329.078 143.04 327.238 141.88 324.678 141.88C319.758 141.88 317.158 146.04 317.158 152.68C317.158 159.32 319.758 163.48 324.678 163.48C327.238 163.48 329.078 162.32 329.878 159.64H330.278V163ZM325.598 160.76C322.238 160.76 320.438 158.52 320.438 154.76V150.6C320.438 146.84 322.238 144.6 325.598 144.6C328.158 144.6 330.278 146.2 330.278 148.52V156.84C330.278 159.16 328.158 160.76 325.598 160.76ZM346.295 139.6L348.255 138.6L345.175 131.84L342.415 133.28L346.295 139.6ZM350.815 163H353.855V142.36H350.815V156.44C350.815 159.12 348.855 160.72 346.415 160.72C343.615 160.72 342.255 158.88 342.255 155.6V142.36H339.215V155.8C339.215 161 341.455 163.48 345.135 163.48C348.015 163.48 349.615 162.16 350.415 159.64H350.815V163ZM362.963 163V148.92C362.963 146.24 364.923 144.64 367.363 144.64C370.163 144.64 371.523 146.48 371.523 149.76V163H374.563V149.56C374.563 144.36 372.323 141.88 368.643 141.88C365.763 141.88 364.163 143.2 363.363 145.72H362.963V142.36H359.923V163H362.963ZM396.191 165.32C396.191 161.8 394.311 159.88 389.671 159.88H385.151C383.471 159.88 382.751 159.32 382.751 158.28C382.751 157.32 383.551 156.24 385.031 155.96C385.631 156.08 386.311 156.16 386.991 156.16C391.271 156.16 394.071 153.72 394.071 149.04C394.071 146.52 393.271 144.68 391.871 143.48V142.36H395.431V139.68H392.671C391.111 139.68 390.471 140.32 390.471 141.88V142.6C389.471 142.16 388.311 141.92 386.991 141.92C382.711 141.92 379.911 144.36 379.911 149.04C379.911 152.2 381.191 154.32 383.311 155.4V155.84C381.111 156.08 380.151 157.44 380.151 159.16C380.151 160.44 380.791 161.36 381.871 161.96V162.52C380.111 162.84 378.871 164.16 378.871 166.36C378.871 169.68 381.191 171.48 387.111 171.48C393.271 171.48 396.191 169.68 396.191 165.32ZM393.351 165.52C393.351 167.92 391.631 168.96 388.351 168.96H385.711C382.911 168.96 381.671 167.68 381.671 165.6C381.671 164.2 382.151 163.36 383.351 162.76H389.631C392.311 162.76 393.351 163.72 393.351 165.52ZM386.991 153.68C384.511 153.68 383.031 152.4 383.031 149.76V148.28C383.031 145.64 384.511 144.36 386.991 144.36C389.471 144.36 390.951 145.64 390.951 148.28V149.76C390.951 152.4 389.471 153.68 386.991 153.68ZM414.77 163.48C418.45 163.48 420.93 161.6 422.17 158.76L419.93 157.2C418.97 159.56 417.41 160.76 414.77 160.76C411.41 160.76 409.85 158.8 409.85 154.76V150.6C409.85 146.56 411.41 144.6 414.77 144.6C417.33 144.6 418.77 145.8 419.45 147.92L421.97 146.64C420.89 143.88 418.65 141.88 414.77 141.88C409.65 141.88 406.57 145 406.57 152.68C406.57 160.36 409.65 163.48 414.77 163.48ZM426.134 163H429.174V148.92C429.174 146.24 431.134 144.64 433.574 144.64C436.374 144.64 437.734 146.48 437.734 149.76V163H440.774V149.56C440.774 144.36 438.534 141.88 434.854 141.88C431.974 141.88 430.374 143.2 429.574 145.72H429.174V133.4H426.134V163ZM453.682 163.48C458.522 163.48 462.122 160.36 462.122 152.68C462.122 145 458.522 141.88 453.682 141.88C448.842 141.88 445.242 145 445.242 152.68C445.242 160.36 448.842 163.48 453.682 163.48ZM453.682 160.76C450.402 160.76 448.522 158.8 448.522 154.76V150.6C448.522 146.56 450.402 144.6 453.682 144.6C456.962 144.6 458.842 146.56 458.842 150.6V154.76C458.842 158.8 456.962 160.76 453.682 160.76ZM491.474 160.2H478.314L485.274 152.88C489.434 148.52 490.554 146.2 490.554 142.56C490.554 137.36 488.114 134.6 482.914 134.6C478.594 134.6 475.794 137.2 474.754 140.6L477.554 141.72C478.234 139.04 479.994 137.44 482.834 137.44C485.794 137.44 487.194 139.04 487.194 142.44V143.48C487.194 145.8 486.034 148.12 483.354 150.88L474.874 159.68V163H491.474V160.2ZM505.836 152.48V149.2H496.236V152.48H505.836ZM514.93 146.96V149.76H517.89C521.33 149.76 523.17 151.44 523.17 154.88V155.52C523.17 158.96 521.33 160.64 517.89 160.64C514.85 160.64 513.41 159.2 512.13 157.04L509.73 158.84C511.29 161.2 513.61 163.48 517.97 163.48C523.45 163.48 526.53 160.32 526.53 155.36C526.53 151 524.09 148.8 521.05 148.48V148.08C523.81 147.52 526.05 145.36 526.05 141.6C526.05 136.76 523.01 134.6 518.45 134.6C514.41 134.6 512.09 136.8 510.81 139.08L513.13 140.88C514.17 138.68 515.69 137.44 518.25 137.44C520.97 137.44 522.69 138.68 522.69 141.8V142.4C522.69 145.2 520.97 146.96 517.65 146.96H514.93ZM544.408 163V148.92C544.408 146.24 546.368 144.64 548.808 144.64C551.608 144.64 552.968 146.48 552.968 149.76V163H556.008V149.56C556.008 144.36 553.768 141.88 550.088 141.88C547.208 141.88 545.608 143.2 544.808 145.72H544.408V142.36H541.368V163H544.408ZM577.636 165.32C577.636 161.8 575.756 159.88 571.116 159.88H566.596C564.916 159.88 564.196 159.32 564.196 158.28C564.196 157.32 564.996 156.24 566.476 155.96C567.076 156.08 567.756 156.16 568.436 156.16C572.716 156.16 575.516 153.72 575.516 149.04C575.516 146.52 574.716 144.68 573.316 143.48V142.36H576.876V139.68H574.116C572.556 139.68 571.916 140.32 571.916 141.88V142.6C570.916 142.16 569.756 141.92 568.436 141.92C564.156 141.92 561.356 144.36 561.356 149.04C561.356 152.2 562.636 154.32 564.756 155.4V155.84C562.556 156.08 561.596 157.44 561.596 159.16C561.596 160.44 562.236 161.36 563.316 161.96V162.52C561.556 162.84 560.316 164.16 560.316 166.36C560.316 169.68 562.636 171.48 568.556 171.48C574.716 171.48 577.636 169.68 577.636 165.32ZM574.796 165.52C574.796 167.92 573.076 168.96 569.796 168.96H567.156C564.356 168.96 563.116 167.68 563.116 165.6C563.116 164.2 563.596 163.36 564.796 162.76H571.076C573.756 162.76 574.796 163.72 574.796 165.52ZM568.436 153.68C565.956 153.68 564.476 152.4 564.476 149.76V148.28C564.476 145.64 565.956 144.36 568.436 144.36C570.916 144.36 572.396 145.64 572.396 148.28V149.76C572.396 152.4 570.916 153.68 568.436 153.68ZM591.743 159.64H592.143V163H595.183V144.4H595.743C597.663 144.4 598.143 143.92 598.143 142V137.88H595.503V142.36H592.143V156.44C592.143 159.12 590.183 160.72 587.743 160.72C584.943 160.72 583.583 158.88 583.583 155.6V142.36H580.543V155.8C580.543 161 582.783 163.48 586.463 163.48C589.343 163.48 590.943 162.16 591.743 159.64ZM608.245 139.6L610.205 138.6L607.125 131.84L604.365 133.28L608.245 139.6ZM614.565 137.88V142.36H611.565C610.645 142.04 609.605 141.88 608.525 141.88C603.685 141.88 600.085 145 600.085 152.68C600.085 160.36 603.685 163.48 608.525 163.48C613.365 163.48 616.965 160.36 616.965 152.68C616.965 148.12 615.565 145.4 612.565 144.72V144.4H614.805C616.725 144.4 617.205 143.92 617.205 142V137.88H614.565ZM608.525 160.76C605.245 160.76 603.365 158.8 603.365 154.76V150.6C603.365 146.56 605.245 144.6 608.525 144.6C611.805 144.6 613.685 146.56 613.685 150.6V154.76C613.685 158.8 611.805 160.76 608.525 160.76ZM623.162 137.36C624.482 137.36 625.042 136.76 625.042 135.72V135.08C625.042 134.04 624.482 133.44 623.162 133.44C621.842 133.44 621.282 134.04 621.282 135.08V135.72C621.282 136.76 621.842 137.36 623.162 137.36ZM621.642 163H624.682V142.36H621.642V163ZM647.1 163V160.32H643.3V145.04H647.3V142.36H643.3V136.68H640.54V140.52C640.54 141.72 640.22 142.36 639.02 142.36H637.22V145.04H640.26V159.88C640.26 162.04 641.22 163 643.38 163H647.1ZM654.994 163V149.28C654.994 146.76 656.714 145.44 659.594 145.44H661.594V142.36H660.474C657.794 142.36 656.074 143.84 655.394 146.2H654.994V142.36H651.954V163H654.994ZM672.197 163.48C677.037 163.48 680.637 160.36 680.637 152.68C680.637 145 677.037 141.88 672.197 141.88C667.357 141.88 663.757 145 663.757 152.68C663.757 160.36 667.357 163.48 672.197 163.48ZM672.197 160.76C668.917 160.76 667.037 158.8 667.037 154.76V150.6C667.037 146.56 668.917 144.6 672.197 144.6C675.477 144.6 677.357 146.56 677.357 150.6V154.76C677.357 158.8 675.477 160.76 672.197 160.76ZM688.353 163V148.92C688.353 146.24 690.313 144.64 692.753 144.64C695.553 144.64 696.913 146.48 696.913 149.76V163H699.953V149.56C699.953 144.36 697.713 141.88 694.033 141.88C691.153 141.88 689.553 143.2 688.753 145.72H688.353V142.36H685.313V163H688.353ZM721.581 165.32C721.581 161.8 719.701 159.88 715.061 159.88H710.541C708.861 159.88 708.141 159.32 708.141 158.28C708.141 157.32 708.941 156.24 710.421 155.96C711.021 156.08 711.701 156.16 712.381 156.16C716.661 156.16 719.461 153.72 719.461 149.04C719.461 146.52 718.661 144.68 717.261 143.48V142.36H720.821V139.68H718.061C716.501 139.68 715.861 140.32 715.861 141.88V142.6C714.861 142.16 713.701 141.92 712.381 141.92C708.101 141.92 705.301 144.36 705.301 149.04C705.301 152.2 706.581 154.32 708.701 155.4V155.84C706.501 156.08 705.541 157.44 705.541 159.16C705.541 160.44 706.181 161.36 707.261 161.96V162.52C705.501 162.84 704.261 164.16 704.261 166.36C704.261 169.68 706.581 171.48 712.501 171.48C718.661 171.48 721.581 169.68 721.581 165.32ZM718.741 165.52C718.741 167.92 717.021 168.96 713.741 168.96H711.101C708.301 168.96 707.061 167.68 707.061 165.6C707.061 164.2 707.541 163.36 708.741 162.76H715.021C717.701 162.76 718.741 163.72 718.741 165.52ZM712.381 153.68C709.901 153.68 708.421 152.4 708.421 149.76V148.28C708.421 145.64 709.901 144.36 712.381 144.36C714.861 144.36 716.341 145.64 716.341 148.28V149.76C716.341 152.4 714.861 153.68 712.381 153.68ZM750.04 163V160.2H743.64V135.08H740.12L732.2 140.28L733.56 142.48L740.44 138V160.2H733.48V163H750.04ZM768.362 163V157.52H771.962V154.84H768.362V135.08H763.682L753.282 154.68V157.52H765.322V163H768.362ZM764.922 137.64H765.322V154.84H756.202L764.922 137.64ZM788.08 163V148.92C788.08 146.24 790.04 144.64 792.48 144.64C795.28 144.64 796.64 146.48 796.64 149.76V163H799.68V149.56C799.68 144.36 797.44 141.88 793.76 141.88C790.88 141.88 789.28 143.2 788.48 145.72H788.08V142.36H785.04V163H788.08ZM821.308 165.32C821.308 161.8 819.428 159.88 814.788 159.88H810.268C808.588 159.88 807.868 159.32 807.868 158.28C807.868 157.32 808.668 156.24 810.148 155.96C810.748 156.08 811.428 156.16 812.108 156.16C816.388 156.16 819.188 153.72 819.188 149.04C819.188 146.52 818.388 144.68 816.988 143.48V142.36H820.548V139.68H817.788C816.228 139.68 815.588 140.32 815.588 141.88V142.6C814.588 142.16 813.428 141.92 812.108 141.92C807.828 141.92 805.028 144.36 805.028 149.04C805.028 152.2 806.308 154.32 808.428 155.4V155.84C806.228 156.08 805.268 157.44 805.268 159.16C805.268 160.44 805.908 161.36 806.988 161.96V162.52C805.228 162.84 803.988 164.16 803.988 166.36C803.988 169.68 806.308 171.48 812.228 171.48C818.388 171.48 821.308 169.68 821.308 165.32ZM818.468 165.52C818.468 167.92 816.748 168.96 813.468 168.96H810.828C808.028 168.96 806.788 167.68 806.788 165.6C806.788 164.2 807.268 163.36 808.468 162.76H814.748C817.428 162.76 818.468 163.72 818.468 165.52ZM812.108 153.68C809.628 153.68 808.148 152.4 808.148 149.76V148.28C808.148 145.64 809.628 144.36 812.108 144.36C814.588 144.36 816.068 145.64 816.068 148.28V149.76C816.068 152.4 814.588 153.68 812.108 153.68ZM830.41 139.6L832.37 138.6L829.29 131.84L826.53 133.28L830.41 139.6ZM839.81 163V160.32H837.73V148.64C837.73 144.24 835.21 141.92 830.57 141.92C827.41 141.92 824.93 143.68 823.85 145.88L825.65 147.56C826.69 145.6 828.09 144.52 830.45 144.52C833.37 144.52 834.69 145.92 834.69 148.96V151.24H830.97C825.61 151.24 823.13 153.64 823.13 157.48C823.13 161.4 825.09 163.48 829.09 163.48C831.61 163.48 833.61 162.12 834.29 159.64H834.69V160.04C834.69 161.96 835.73 163 837.65 163H839.81ZM829.85 160.84C827.69 160.84 826.29 159.88 826.29 157.8V156.68C826.29 154.68 827.69 153.56 830.89 153.56H834.69V156.68C834.69 158.8 832.65 160.84 829.85 160.84ZM851.752 152.76L849.832 160.32H849.432L847.512 152.76L844.352 142.36H841.312L848.152 164.12L846.952 168.32H843.792V171H846.032C848.352 171 849.032 170.44 849.712 168.28L857.872 142.36H854.912L851.752 152.76Z" fill="#1B1703"/>
<path d="M112 0L123.122 6.18287L135.286 2.44747L144.879 10.8076L157.555 9.68291L165.2 19.8549L177.832 21.3901L183.195 32.9294L195.232 37.0574L198.079 49.4596L208.995 56L209.201 68.7232L218.518 77.3901L216.075 89.8782L223.386 100.293L218.4 112L223.386 123.707L216.075 134.122L218.518 146.61L209.201 155.277L208.995 168L198.079 174.54L195.232 186.943L183.195 191.071L177.832 202.61L165.2 204.145L157.555 214.317L144.879 213.192L135.286 221.553L123.122 217.817L112 224L100.878 217.817L88.7139 221.553L79.1206 213.192L66.4455 214.317L58.8 204.145L46.1681 202.61L40.8045 191.071L28.7678 186.943L25.9206 174.54L15.0052 168L14.7988 155.277L5.48167 146.61L7.92509 134.122L0.613548 123.707L5.6 112L0.613548 100.293L7.92509 89.8782L5.48167 77.3901L14.7988 68.7232L15.0052 56L25.9206 49.4596L28.7678 37.0574L40.8045 32.9294L46.1681 21.3901L58.8 19.8549L66.4455 9.68291L79.1206 10.8076L88.7139 2.44747L100.878 6.18287L112 0Z" fill="#FDB811"/>
<path d="M83.825 101H87.525V83.15H76.725V86.65H83.625V90.45C83.625 95.25 79.875 98.05 75.325 98.05C69.575 98.05 66.275 93.9 66.275 87.45V79.65C66.275 73.2 69.575 69.05 75.325 69.05C79.625 69.05 82.325 71.25 83.675 74.9L86.975 72.9C84.925 68.35 81.425 65.5 75.325 65.5C66.875 65.5 61.975 71.1 61.975 83.55C61.975 96 67.075 101.6 74.675 101.6C79.825 101.6 82.575 99.25 83.325 96.15H83.825V101ZM96.4227 68.95C98.0727 68.95 98.7727 68.2 98.7727 66.9V66.1C98.7727 64.8 98.0727 64.05 96.4227 64.05C94.7727 64.05 94.0727 64.8 94.0727 66.1V66.9C94.0727 68.2 94.7727 68.95 96.4227 68.95ZM94.5227 101H98.3227V75.2H94.5227V101ZM109.6 65.85H114.9L112.4 71L114.55 72.15L116 70.15C117.3 68.4 117.85 66.75 117.85 65.35C117.85 63.55 116.95 62.75 114.9 62.75H109.6V65.85ZM124.9 101V97.65H122.3V83.05C122.3 77.55 119.15 74.65 113.35 74.65C109.4 74.65 106.3 76.85 104.95 79.6L107.2 81.7C108.5 79.25 110.25 77.9 113.2 77.9C116.85 77.9 118.5 79.65 118.5 83.45V86.3H113.85C107.15 86.3 104.05 89.3 104.05 94.1C104.05 99 106.5 101.6 111.5 101.6C114.65 101.6 117.15 99.9 118 96.8H118.5V97.3C118.5 99.7 119.8 101 122.2 101H124.9ZM112.45 98.3C109.75 98.3 108 97.1 108 94.5V93.1C108 90.6 109.75 89.2 113.75 89.2H118.5V93.1C118.5 95.75 115.95 98.3 112.45 98.3ZM133.87 101V83.4C133.87 80.05 136.22 78.05 139.17 78.05C142.52 78.05 144.17 80.35 144.17 84.45V101H147.97V83.4C147.97 80.05 150.32 78.05 153.27 78.05C156.62 78.05 158.27 80.35 158.27 84.45V101H162.07V84.2C162.07 77.7 159.17 74.6 154.77 74.6C151.07 74.6 148.82 76.25 147.77 79.4H147.27C146.17 76.15 143.82 74.6 140.67 74.6C137.17 74.6 135.37 76.25 134.37 79.4H133.87V75.2H130.07V101H133.87ZM79.0753 156.1H56.0453L68.2253 143.29C75.5053 135.66 77.4653 131.6 77.4653 125.23C77.4653 116.13 73.1953 111.3 64.0953 111.3C56.5353 111.3 51.6353 115.85 49.8153 121.8L54.7153 123.76C55.9053 119.07 58.9853 116.27 63.9553 116.27C69.1353 116.27 71.5853 119.07 71.5853 125.02V126.84C71.5853 130.9 69.5553 134.96 64.8653 139.79L50.0253 155.19V161H79.0753V156.1ZM102.108 161.84C112.678 161.84 117.368 154.63 117.368 136.57C117.368 118.51 112.678 111.3 102.108 111.3C91.538 111.3 86.848 118.51 86.848 136.57C86.848 154.63 91.538 161.84 102.108 161.84ZM102.108 157.01C95.388 157.01 92.728 151.9 92.728 143.29V129.85C92.728 121.24 95.388 116.13 102.108 116.13C108.828 116.13 111.488 121.24 111.488 129.85V143.29C111.488 151.9 108.828 157.01 102.108 157.01ZM137.601 161L168.121 112.14H163.011L132.491 161H137.601ZM135.151 139.02C141.591 139.02 145.231 134.96 145.231 125.16C145.231 115.36 141.591 111.3 135.151 111.3C128.711 111.3 125.071 115.36 125.071 125.16C125.071 134.96 128.711 139.02 135.151 139.02ZM135.151 135.52C131.581 135.52 129.831 133.35 129.831 127.96V122.36C129.831 116.97 131.581 114.8 135.151 114.8C138.721 114.8 140.471 116.97 140.471 122.36V127.96C140.471 133.35 138.721 135.52 135.151 135.52ZM165.461 161.84C171.901 161.84 175.541 157.78 175.541 147.98C175.541 138.18 171.901 134.12 165.461 134.12C159.021 134.12 155.381 138.18 155.381 147.98C155.381 157.78 159.021 161.84 165.461 161.84ZM165.461 158.34C161.891 158.34 160.141 156.17 160.141 150.78V145.18C160.141 139.79 161.891 137.62 165.461 137.62C169.031 137.62 170.781 139.79 170.781 145.18V150.78C170.781 156.17 169.031 158.34 165.461 158.34Z" fill="#1B1703"/>
<path d="M279.717 345.32H267.317L275.277 338.16C279.837 334.08 282.397 331.24 282.397 326.08C282.397 322.08 280.157 319.6 275.797 319.6C271.277 319.6 268.757 322.04 267.157 326.12L269.717 327.24C270.797 324 272.397 322.32 275.397 322.32C278.437 322.32 279.037 324.56 279.037 326C279.037 326.96 278.797 328.32 278.677 328.88C278.277 330.72 276.877 333.16 273.757 335.96L264.037 344.64L263.357 348H279.157L279.717 345.32ZM304.839 320.08H291.799L288.079 335.72L290.639 336.12C291.759 334.48 293.239 333.28 295.519 333.28C298.559 333.28 299.639 334.8 299.639 337.44C299.639 338.2 299.439 339.36 299.279 340.28C298.599 344 296.759 345.76 293.559 345.76C290.279 345.76 288.959 344.24 288.279 341.92L285.719 343.6C286.559 346.16 288.799 348.48 293.159 348.48C299.399 348.48 302.839 344.24 302.839 337.48C302.839 332.68 300.559 330.6 296.879 330.6C294.199 330.6 292.599 331.64 291.479 333.96H291.079L293.719 322.76H304.279L304.839 320.08ZM322.16 349.56C322.16 346.56 320.8 344.96 316.8 344.96H312.04C310.6 344.96 309.92 344.56 309.92 343.44C309.92 342.04 311 341.32 312.8 341.04C313.28 341.08 313.84 341.12 314.32 341.12C319.48 341.12 322.56 337.6 322.56 333.2C322.56 331.28 322.24 329.76 321.48 328.76L321.76 327.36H325L325.52 324.76H322.68C321.4 324.76 320.64 325.44 320.44 326.48L320.2 327.68C319.28 327.16 318.08 326.88 316.6 326.88C311.68 326.88 308.64 330.44 308.64 335.44C308.64 337.72 309.28 339.64 311.08 340.4L311 340.8C308.56 341.28 307.2 342.44 307.2 344.56C307.2 345.76 307.64 346.64 308.68 347.04L308.6 347.44C306 348 304.8 349.84 304.8 352.04C304.8 355.2 307.08 356.48 312 356.48C318.92 356.48 322.16 354.04 322.16 349.56ZM319.12 350.12C319.12 352.76 317.36 354.08 313.44 354.08H311.16C308.52 354.08 307.68 352.96 307.68 351.08C307.68 349.36 308.4 348.32 309.8 347.72H316.48C318.48 347.72 319.12 348.44 319.12 350.12ZM314.92 338.8C312.52 338.8 311.56 337.64 311.56 335.96C311.56 335.36 311.68 334.32 311.92 333.28C312.48 330.84 313.52 329.24 316.32 329.24C318.68 329.24 319.64 330.4 319.64 332.08C319.64 332.68 319.52 333.72 319.28 334.76C318.68 337.36 317.56 338.8 314.92 338.8ZM342.305 348H345.265L345.945 344.64H346.345C346.585 347.16 348.665 348.48 351.025 348.48C355.545 348.48 358.425 345.04 359.665 338.84C359.985 337.16 360.225 335.12 360.225 333.68C360.225 329.64 358.385 326.88 354.825 326.88C352.105 326.88 350.145 328.48 348.905 331.8H348.505L351.185 318.4H348.225L342.305 348ZM350.585 345.88C347.785 345.88 346.185 343.44 346.545 341.6L347.665 336C347.945 334.64 348.905 332.84 349.945 331.52C350.985 330.2 352.145 329.52 353.665 329.52C355.905 329.52 357.265 330.8 357.265 333.72C357.265 334.24 357.265 335 357.105 335.72L356.185 340.36C355.465 343.92 353.585 345.88 350.585 345.88ZM368.37 354.64C369.73 354.64 370.33 354.2 370.61 353C370.73 352.48 370.77 352.24 370.77 351.88C370.77 351.16 370.21 350.72 369.17 350.72C367.81 350.72 367.21 351.16 366.93 352.36C366.81 352.88 366.77 353.12 366.77 353.48C366.77 354.2 367.33 354.64 368.37 354.64ZM373.33 317.4L368.09 323.16L369.65 324.36L374.77 319.64L378.05 324.36L379.69 323.28L376.65 317.4H373.33ZM370.01 348.48C374.85 348.48 378.09 345.04 379.29 339C379.61 337.4 379.85 335.44 379.85 334.04C379.85 329.8 377.57 326.88 373.09 326.88C368.25 326.88 365.01 330.32 363.81 336.36C363.49 337.96 363.25 339.92 363.25 341.32C363.25 345.56 365.53 348.48 370.01 348.48ZM370.25 345.88C367.73 345.88 366.21 344.48 366.21 341.28C366.21 340.8 366.25 340.12 366.37 339.48L367.29 334.84C367.97 331.36 369.85 329.48 372.85 329.48C375.37 329.48 376.89 330.88 376.89 334.08C376.89 334.56 376.85 335.24 376.73 335.88L375.81 340.52C375.13 344 373.25 345.88 370.25 345.88ZM389.504 348L390.024 345.44H386.304L389.384 329.92H393.304L393.824 327.36H389.904L391.064 321.68H388.264L387.464 325.68C387.184 327.04 386.944 327.36 385.664 327.36H384.224L383.704 329.92H386.424L383.424 345C383.344 345.4 383.264 345.8 383.264 346.2C383.264 347.44 383.984 348 385.264 348H389.504ZM446.009 333.12V330.56H429.209V333.12H446.009ZM446.009 341.04V338.48H429.209V341.04H446.009ZM500.036 348L500.596 345.28H494.276L499.316 320.08H495.836L486.876 325.68L488.116 327.8L495.596 323.2L491.196 345.28H484.556L483.996 348H500.036ZM512.115 356H515.075L517.355 344.64H517.755C517.995 347.16 520.075 348.48 522.435 348.48C526.955 348.48 529.835 345.04 531.075 338.84C531.395 337.16 531.635 335.12 531.635 333.68C531.635 329.64 529.795 326.88 526.235 326.88C523.515 326.88 521.555 328.48 520.315 331.8H519.915L520.795 327.36H517.835L512.115 356ZM521.995 345.88C519.195 345.88 517.595 343.44 517.955 341.6L519.075 336C519.355 334.64 520.315 332.84 521.355 331.52C522.395 330.2 523.555 329.52 525.075 329.52C527.315 329.52 528.675 330.8 528.675 333.72C528.675 334.24 528.675 335 528.515 335.72L527.595 340.36C526.875 343.92 524.995 345.88 521.995 345.88ZM534.297 348H537.257L539.657 336C539.937 334.52 540.817 332.52 541.937 331.16C542.857 330.04 544.097 329.52 545.577 329.52C547.257 329.52 548.337 330.36 548.337 332.48C548.337 333.2 548.217 334.16 548.017 335.12L546.057 344.92C545.977 345.32 545.897 345.72 545.897 346.12C545.897 347.36 546.617 348 547.857 348H550.977L551.497 345.44H548.937L550.977 335.2C551.217 334.04 551.377 333.08 551.377 332.24C551.377 328.84 549.817 326.88 546.897 326.88C544.177 326.88 542.137 328.32 540.977 331.4H540.577L543.177 318.4H540.217L534.297 348ZM561.21 322.36C562.41 322.36 563.05 321.72 563.29 320.8C563.41 320.36 563.45 320.04 563.45 319.84C563.45 318.88 562.81 318.44 561.85 318.44C560.65 318.44 560.01 319.08 559.77 320C559.65 320.44 559.61 320.76 559.61 320.96C559.61 321.92 560.25 322.36 561.21 322.36ZM560.09 348L560.61 345.44H558.05L561.65 327.36H558.69L555.17 345C555.09 345.4 555.01 345.8 555.01 346.2C555.01 347.44 555.73 348 557.01 348H560.09ZM567.452 348L569.852 336C570.132 334.52 571.012 332.52 572.132 331.16C573.052 330.04 574.292 329.52 575.772 329.52C577.452 329.52 578.532 330.36 578.532 332.48C578.532 333.2 578.412 334.16 578.212 335.12L576.252 344.92C576.172 345.32 576.092 345.72 576.092 346.12C576.092 347.36 576.812 348 578.052 348H581.172L581.692 345.44H579.132L581.172 335.2C581.412 334.04 581.572 333.08 581.572 332.24C581.572 328.84 580.012 326.88 577.092 326.88C574.372 326.88 572.332 328.32 571.172 331.4H570.772L571.572 327.36H568.612L564.492 348H567.452Z" fill="#1B1703"/>
<path d="M281.907 257.487C274.894 255.626 272.535 246.865 277.665 241.734L286.744 232.655C290.42 228.98 296.379 228.98 300.055 232.655L309.134 241.734C314.264 246.865 311.905 255.626 304.892 257.487L295.813 259.896C294.231 260.315 292.568 260.315 290.986 259.896L281.907 257.487Z" fill="#1B1703"/>
<path fill-rule="evenodd" clip-rule="evenodd" d="M545.645 297.001H514.417C512.852 296.918 511.379 296.238 510.302 295.102C509.224 293.966 508.625 292.46 508.627 290.896V248.874C508.588 248.724 508.579 248.569 508.6 248.416C508.622 248.263 508.673 248.116 508.752 247.983C508.831 247.85 508.935 247.734 509.059 247.642C509.182 247.55 509.323 247.483 509.473 247.445H550.589C550.9 247.445 551.198 247.568 551.417 247.787C551.637 248.006 551.76 248.304 551.76 248.614V256.473H558.266C559.888 256.473 561.444 257.116 562.591 258.261C563.737 259.406 564.382 260.959 564.382 262.578V279.919C564.382 281.538 563.737 283.091 562.591 284.236C561.444 285.381 559.888 286.024 558.266 286.024H551.76V290.701C551.76 292.32 551.116 293.873 549.969 295.018C548.822 296.163 547.267 296.806 545.645 296.806V297.001ZM510.644 250.043V290.896C510.644 291.895 511.042 292.853 511.749 293.559C512.457 294.266 513.417 294.663 514.417 294.663H545.645C546.646 294.663 547.606 294.266 548.313 293.559C549.021 292.853 549.418 291.895 549.418 290.896V250.043H510.644ZM551.76 283.946H558.266C559.262 283.863 560.185 283.396 560.841 282.644C561.497 281.892 561.834 280.915 561.779 279.919V262.838C561.78 261.832 561.384 260.867 560.678 260.151C559.972 259.434 559.013 259.023 558.006 259.006H551.5V283.946H551.76ZM556.77 244.132H503.292C503.139 244.132 502.986 244.102 502.844 244.043C502.702 243.985 502.573 243.898 502.464 243.79C502.356 243.681 502.269 243.552 502.211 243.411C502.152 243.269 502.121 243.117 502.121 242.963V234.455C502.138 234.156 502.269 233.875 502.487 233.67C502.704 233.464 502.993 233.35 503.292 233.351H509.798L502.121 199.577C502.042 199.427 502 199.26 502 199.09C502 198.92 502.042 198.753 502.121 198.603C502.217 198.451 502.352 198.328 502.513 198.248C502.673 198.167 502.853 198.133 503.032 198.148H556.77C556.947 198.146 557.122 198.186 557.281 198.265C557.439 198.344 557.577 198.46 557.681 198.603C557.747 198.757 557.781 198.923 557.781 199.09C557.781 199.258 557.747 199.423 557.681 199.577L550.394 233.416H556.9C557.166 233.444 557.415 233.562 557.605 233.752C557.794 233.941 557.913 234.189 557.941 234.455V242.898C557.941 243.208 557.818 243.506 557.598 243.725C557.378 243.944 557.081 244.067 556.77 244.067V244.132ZM504.724 241.794H555.599V235.689H504.464V241.794H504.724ZM511.88 233.416H547.987L555.339 200.487H504.724L511.88 233.416ZM531.397 189.64C530.052 189.64 528.761 189.106 527.809 188.156C526.858 187.206 526.323 185.918 526.323 184.574C526.331 183.857 526.486 183.15 526.778 182.496L530.487 176.585C530.575 176.404 530.714 176.252 530.887 176.148C531.061 176.044 531.261 175.993 531.462 176.001C531.664 175.993 531.864 176.044 532.038 176.148C532.211 176.252 532.35 176.404 532.438 176.585L536.017 182.496C536.297 183.154 536.452 183.859 536.472 184.574C536.472 185.918 535.937 187.206 534.986 188.156C534.034 189.106 532.743 189.64 531.397 189.64ZM531.397 179.378L528.795 183.665C528.749 183.966 528.749 184.273 528.795 184.574C528.795 185.297 529.083 185.991 529.595 186.503C530.108 187.014 530.803 187.302 531.528 187.302C532.252 187.302 532.947 187.014 533.46 186.503C533.972 185.991 534.26 185.297 534.26 184.574C534.328 184.231 534.328 183.878 534.26 183.535L531.397 179.378Z" fill="#1B1703"/>
<path d="M272 247H316.178C315.319 264.927 272 263.729 272 247Z" fill="#FAFAFA"/>
<path d="M316.178 247H272C272 263.729 315.319 264.927 316.178 247ZM316.178 247H388" stroke="#1B1703" stroke-width="2.5"/>
<path d="M281.907 218.487C274.894 216.626 272.535 207.865 277.665 202.734L286.744 193.655C290.42 189.98 296.379 189.98 300.055 193.655L309.134 202.734C314.264 207.865 311.905 216.626 304.892 218.487L295.813 220.896C294.231 221.315 292.568 221.315 290.986 220.896L281.907 218.487Z" fill="#1B1703"/>
<path d="M272 208H316.178C315.319 225.927 272 224.729 272 208Z" fill="#FAFAFA"/>
<path d="M316.178 208H272C272 224.729 315.319 225.927 316.178 208ZM316.178 208H388" stroke="#1B1703" stroke-width="2.5"/>
<path d="M281.907 294.487C274.894 292.626 272.535 283.865 277.665 278.734L286.744 269.655C290.42 265.98 296.379 265.98 300.055 269.655L309.134 278.734C314.264 283.865 311.905 292.626 304.892 294.487L295.813 296.896C294.231 297.315 292.568 297.315 290.986 296.896L281.907 294.487Z" fill="#1B1703"/>
<path d="M272 284H316.178C315.319 301.927 272 300.729 272 284Z" fill="#FAFAFA"/>
<path d="M316.178 284H272C272 300.729 315.319 301.927 316.178 284ZM316.178 284H388" stroke="#1B1703" stroke-width="2.5"/>
</svg>
